<svg width="49" height="48" viewBox="0 0 49 48" fill="none" xmlns="http://www.w3.org/2000/svg">
<path d="M28.4535 19.88L24.3335 18L28.4535 16.12L30.3335 12L32.2135 16.12L36.3335 18L32.2135 19.88L30.3335 24L28.4535 19.88ZM8.3335 28L10.2135 23.88L14.3335 22L10.2135 20.12L8.3335 16L6.4535 20.12L2.3335 22L6.4535 23.88L8.3335 28ZM17.3335 18L19.5135 13.18L24.3335 11L19.5135 8.82L17.3335 4L15.1535 8.82L10.3335 11L15.1535 13.18L17.3335 18ZM9.3335 41L21.3335 28.98L29.3335 36.98L46.3335 17.86L43.5135 15.04L29.3335 30.98L21.3335 22.98L6.3335 38L9.3335 41Z" fill="#2C9D81"/>
</svg>
