<svg width="48" height="49" viewBox="0 0 48 49" fill="none" xmlns="http://www.w3.org/2000/svg">
<path d="M24 4.5C12.96 4.5 4 13.46 4 24.5C4 35.54 12.96 44.5 24 44.5C35.04 44.5 44 35.54 44 24.5C44 13.46 35.04 4.5 24 4.5ZM24 40.5C15.18 40.5 8 33.32 8 24.5C8 15.68 15.18 8.5 24 8.5C32.82 8.5 40 15.68 40 24.5C40 33.32 32.82 40.5 24 40.5ZM32.34 30.02L30.14 27.82C31.56 25.16 31.2 21.8 28.96 19.56C28.3109 18.9052 27.5382 18.3859 26.6867 18.0323C25.8352 17.6787 24.922 17.4977 24 17.5C23.94 17.5 23.88 17.52 23.82 17.52L26 19.7L23.88 21.82L18.22 16.16L23.88 10.5L26 12.62L24.08 14.54C26.62 14.56 29.14 15.5 31.08 17.42C34.48 20.84 34.9 26.14 32.34 30.02ZM29.78 32.84L24.12 38.5L22 36.38L23.9 34.48C21.2863 34.4596 18.7859 33.4106 16.94 31.56C15.3121 29.9304 14.2959 27.7892 14.0627 25.4976C13.8295 23.206 14.3937 20.9041 15.66 18.98L17.86 21.18C16.44 23.84 16.8 27.2 19.04 29.44C20.44 30.84 22.3 31.52 24.16 31.46L22 29.3L24.12 27.18L29.78 32.84Z" fill="#F56EAC"/>
</svg>
