<svg width="48" height="49" viewBox="0 0 48 49" fill="none" xmlns="http://www.w3.org/2000/svg">
<path d="M39 7.5L36 4.5L33 7.5L30 4.5L27 7.5L24 4.5L21 7.5L18 4.5L15 7.5L12 4.5V32.5H6V38.5C6 41.82 8.68 44.5 12 44.5H36C39.32 44.5 42 41.82 42 38.5V4.5L39 7.5ZM30 40.5H12C10.9 40.5 10 39.6 10 38.5V36.5H30V40.5ZM38 38.5C38 39.6 37.1 40.5 36 40.5C34.9 40.5 34 39.6 34 38.5V32.5H16V10.5H38V38.5Z" fill="#F56EAC"/>
<path d="M18 14.5H30V18.5H18V14.5ZM32 14.5H36V18.5H32V14.5ZM18 20.5H30V24.5H18V20.5ZM32 20.5H36V24.5H32V20.5Z" fill="#F56EAC"/>
</svg>
