<svg width="49" height="48" viewBox="0 0 49 48" fill="none" xmlns="http://www.w3.org/2000/svg">
<g id="ic:outline-fire-truck">
<path id="Vector" d="M24.5 4C13.46 4 4.5 12.96 4.5 24C4.5 35.04 13.46 44 24.5 44C35.54 44 44.5 35.04 44.5 24C44.5 12.96 35.54 4 24.5 4ZM39.42 18.24L33.86 20.54C33.3593 19.1921 32.5727 17.9686 31.5542 16.9536C30.5357 15.9386 29.3096 15.1561 27.96 14.66L30.26 9.1C34.46 10.7 37.8 14.04 39.42 18.24ZM24.5 30C21.18 30 18.5 27.32 18.5 24C18.5 20.68 21.18 18 24.5 18C27.82 18 30.5 20.68 30.5 24C30.5 27.32 27.82 30 24.5 30ZM18.76 9.08L21.1 14.64C19.7346 15.1376 18.4941 15.9268 17.4648 16.9526C16.4355 17.9785 15.6422 19.2163 15.14 20.58L9.58 18.26C10.3815 16.172 11.613 14.2759 13.1944 12.6944C14.7759 11.113 16.672 9.88154 18.76 9.08ZM9.58 29.74L15.14 27.44C15.6389 28.8 16.4291 30.0345 17.4551 31.0571C18.4812 32.0797 19.7183 32.8657 21.08 33.36L18.74 38.92C16.657 38.1139 14.7658 36.8807 13.1882 35.2996C11.6106 33.7186 10.3815 31.8247 9.58 29.74ZM30.26 38.92L27.96 33.36C29.3156 32.8574 30.5456 32.0658 31.5644 31.04C32.5833 30.0143 33.3666 28.779 33.86 27.42L39.42 29.76C38.6161 31.8411 37.386 33.731 35.8085 35.3085C34.231 36.886 32.3411 38.1161 30.26 38.92Z" fill="#0A1748"/>
</g>
</svg>
