<svg width="49" height="48" viewBox="0 0 49 48" fill="none" xmlns="http://www.w3.org/2000/svg">
<path d="M38.34 12.02C37.94 10.84 36.82 10 35.5 10H13.5C12.18 10 11.08 10.84 10.66 12.02L6.5 24V40C6.5 41.1 7.4 42 8.5 42H10.5C11.6 42 12.5 41.1 12.5 40V38H36.5V40C36.5 41.1 37.4 42 38.5 42H40.5C41.6 42 42.5 41.1 42.5 40V24L38.34 12.02ZM14.2 14H34.78L36.94 20.22H12.04L14.2 14ZM38.5 34H10.5V24H38.5V34Z" fill="#E9C21B"/>
<path d="M15.5 32C17.1569 32 18.5 30.6569 18.5 29C18.5 27.3431 17.1569 26 15.5 26C13.8431 26 12.5 27.3431 12.5 29C12.5 30.6569 13.8431 32 15.5 32Z" fill="#E9C21B"/>
<path d="M33.5 32C35.1569 32 36.5 30.6569 36.5 29C36.5 27.3431 35.1569 26 33.5 26C31.8431 26 30.5 27.3431 30.5 29C30.5 30.6569 31.8431 32 33.5 32Z" fill="#E9C21B"/>
</svg>
