<svg width="49" height="48" viewBox="0 0 49 48" fill="none" xmlns="http://www.w3.org/2000/svg">
<g id="ic:outline-my-location">
<path id="Vector" d="M24.5 16C20.08 16 16.5 19.58 16.5 24C16.5 28.42 20.08 32 24.5 32C28.92 32 32.5 28.42 32.5 24C32.5 19.58 28.92 16 24.5 16ZM42.38 22C41.927 17.9442 40.1083 14.1631 37.2226 11.2774C34.3369 8.3917 30.5558 6.57302 26.5 6.12V2H22.5V6.12C18.4442 6.57302 14.6631 8.3917 11.7774 11.2774C8.8917 14.1631 7.07302 17.9442 6.62 22H2.5V26H6.62C7.07302 30.0558 8.8917 33.8369 11.7774 36.7226C14.6631 39.6083 18.4442 41.427 22.5 41.88V46H26.5V41.88C30.5558 41.427 34.3369 39.6083 37.2226 36.7226C40.1083 33.8369 41.927 30.0558 42.38 26H46.5V22H42.38ZM24.5 38C16.76 38 10.5 31.74 10.5 24C10.5 16.26 16.76 10 24.5 10C32.24 10 38.5 16.26 38.5 24C38.5 31.74 32.24 38 24.5 38Z" fill="#0A1748"/>
</g>
</svg>
