<svg width="49" height="48" viewBox="0 0 49 48" fill="none" xmlns="http://www.w3.org/2000/svg">
<path d="M33.666 6C30.186 6 26.846 7.62 24.666 10.18C22.486 7.62 19.146 6 15.666 6C9.50602 6 4.66602 10.84 4.66602 17C4.66602 24.56 11.466 30.72 21.766 40.08L24.666 42.7L27.566 40.06C37.866 30.72 44.666 24.56 44.666 17C44.666 10.84 39.826 6 33.666 6ZM24.866 37.1L24.666 37.3L24.466 37.1C14.946 28.48 8.66602 22.78 8.66602 17C8.66602 13 11.666 10 15.666 10C18.746 10 21.746 11.98 22.806 14.72H26.546C27.586 11.98 30.586 10 33.666 10C37.666 10 40.666 13 40.666 17C40.666 22.78 34.386 28.48 24.866 37.1Z" fill="#0A1748"/>
</svg>
