<svg width="25" height="24" viewBox="0 0 25 24" fill="none" xmlns="http://www.w3.org/2000/svg">
<path d="M12.4287 2C6.90871 2 2.42871 6.48 2.42871 12C2.42871 17.52 6.90871 22 12.4287 22C17.9487 22 22.4287 17.52 22.4287 12C22.4287 6.48 17.9487 2 12.4287 2ZM12.4287 20C8.01871 20 4.42871 16.41 4.42871 12C4.42871 7.59 8.01871 4 12.4287 4C16.8387 4 20.4287 7.59 20.4287 12C20.4287 16.41 16.8387 20 12.4287 20ZM17.0187 7.58L10.4287 14.17L7.83871 11.59L6.42871 13L10.4287 17L18.4287 9L17.0187 7.58Z" fill="#00B59B"/>
</svg>
