<svg width="25" height="24" viewBox="0 0 25 24" fill="none" xmlns="http://www.w3.org/2000/svg">
<path d="M12.7139 2C7.18387 2 2.71387 6.47 2.71387 12C2.71387 17.53 7.18387 22 12.7139 22C18.2439 22 22.7139 17.53 22.7139 12C22.7139 6.47 18.2439 2 12.7139 2ZM12.7139 20C8.30387 20 4.71387 16.41 4.71387 12C4.71387 7.59 8.30387 4 12.7139 4C17.1239 4 20.7139 7.59 20.7139 12C20.7139 16.41 17.1239 20 12.7139 20ZM16.3039 7L12.7139 10.59L9.12387 7L7.71387 8.41L11.3039 12L7.71387 15.59L9.12387 17L12.7139 13.41L16.3039 17L17.7139 15.59L14.1239 12L17.7139 8.41L16.3039 7Z" fill="#F56EAC"/>
</svg>
