<svg width="111" height="106" viewBox="0 0 111 106" fill="none" xmlns="http://www.w3.org/2000/svg">
<rect width="110.399" height="106" rx="53" fill="white" fill-opacity="0.2"/>
<path d="M26.7892 60.26C26.0426 60.26 25.3192 60.1433 24.6192 59.91C23.9259 59.6767 23.3192 59.3433 22.7992 58.91C22.2792 58.4767 21.9126 57.96 21.6992 57.36L23.0092 56.87C23.1559 57.2833 23.4226 57.64 23.8092 57.94C24.2026 58.2333 24.6592 58.46 25.1792 58.62C25.7059 58.78 26.2426 58.86 26.7892 58.86C27.4292 58.86 28.0259 58.7533 28.5792 58.54C29.1326 58.3267 29.5792 58.03 29.9192 57.65C30.2592 57.2633 30.4292 56.81 30.4292 56.29C30.4292 55.7633 30.2526 55.33 29.8992 54.99C29.5459 54.65 29.0892 54.3833 28.5292 54.19C27.9759 53.99 27.3959 53.8367 26.7892 53.73C25.8359 53.5633 24.9792 53.3367 24.2192 53.05C23.4659 52.7633 22.8692 52.36 22.4292 51.84C21.9892 51.3133 21.7692 50.62 21.7692 49.76C21.7692 48.9533 22.0026 48.2533 22.4692 47.66C22.9359 47.0667 23.5492 46.6067 24.3092 46.28C25.0759 45.9533 25.9026 45.79 26.7892 45.79C27.5159 45.79 28.2259 45.9033 28.9192 46.13C29.6126 46.3567 30.2226 46.6867 30.7492 47.12C31.2826 47.5533 31.6659 48.0833 31.8992 48.71L30.5692 49.19C30.4226 48.77 30.1526 48.4133 29.7592 48.12C29.3726 47.82 28.9192 47.5933 28.3992 47.44C27.8792 47.28 27.3426 47.2 26.7892 47.2C26.1559 47.1933 25.5626 47.3 25.0092 47.52C24.4626 47.7333 24.0192 48.0333 23.6792 48.42C23.3392 48.8 23.1692 49.2467 23.1692 49.76C23.1692 50.36 23.3259 50.8233 23.6392 51.15C23.9592 51.47 24.3926 51.71 24.9392 51.87C25.4859 52.03 26.1026 52.1733 26.7892 52.3C27.6826 52.4533 28.5126 52.6933 29.2792 53.02C30.0459 53.34 30.6626 53.77 31.1292 54.31C31.5959 54.8433 31.8292 55.5033 31.8292 56.29C31.8292 57.09 31.5959 57.79 31.1292 58.39C30.6626 58.9833 30.0459 59.4433 29.2792 59.77C28.5192 60.0967 27.6892 60.26 26.7892 60.26ZM40.9086 60.26C39.9619 60.26 39.0719 60.0733 38.2386 59.7C37.4053 59.32 36.6719 58.7967 36.0386 58.13C35.4053 57.4633 34.9086 56.6933 34.5486 55.82C34.1886 54.94 34.0086 54 34.0086 53C34.0086 52 34.1886 51.0633 34.5486 50.19C34.9086 49.31 35.4053 48.5367 36.0386 47.87C36.6719 47.2033 37.4053 46.6833 38.2386 46.31C39.0719 45.93 39.9619 45.74 40.9086 45.74C41.8619 45.74 42.7553 45.93 43.5886 46.31C44.4219 46.6833 45.1553 47.2033 45.7886 47.87C46.4219 48.5367 46.9153 49.31 47.2686 50.19C47.6286 51.0633 47.8086 52 47.8086 53C47.8086 54 47.6286 54.94 47.2686 55.82C46.9153 56.6933 46.4219 57.4633 45.7886 58.13C45.1553 58.7967 44.4219 59.32 43.5886 59.7C42.7553 60.0733 41.8619 60.26 40.9086 60.26ZM40.9086 58.86C41.6753 58.86 42.3886 58.7067 43.0486 58.4C43.7153 58.0867 44.2986 57.66 44.7986 57.12C45.3053 56.58 45.6986 55.9567 45.9786 55.25C46.2653 54.5433 46.4086 53.7933 46.4086 53C46.4086 52.2 46.2653 51.4467 45.9786 50.74C45.6919 50.0267 45.2953 49.4033 44.7886 48.87C44.2886 48.33 43.7053 47.9067 43.0386 47.6C42.3786 47.2933 41.6686 47.14 40.9086 47.14C40.1419 47.14 39.4253 47.2967 38.7586 47.61C38.0986 47.9167 37.5153 48.34 37.0086 48.88C36.5086 49.42 36.1153 50.0433 35.8286 50.75C35.5486 51.4567 35.4086 52.2067 35.4086 53C35.4086 53.8067 35.5519 54.5633 35.8386 55.27C36.1253 55.9767 36.5186 56.6 37.0186 57.14C37.5253 57.68 38.1086 58.1033 38.7686 58.41C39.4353 58.71 40.1486 58.86 40.9086 58.86ZM55.5511 60.26C54.4311 60.26 53.4644 59.9867 52.6511 59.44C51.8378 58.8933 51.2111 58.16 50.7711 57.24C50.3378 56.3133 50.1211 55.2867 50.1211 54.16V46H51.5211V54.16C51.5211 55.0133 51.6778 55.7967 51.9911 56.51C52.3044 57.2233 52.7611 57.7933 53.3611 58.22C53.9611 58.6467 54.6911 58.86 55.5511 58.86C56.4311 58.86 57.1678 58.6467 57.7611 58.22C58.3611 57.7867 58.8144 57.2133 59.1211 56.5C59.4278 55.7867 59.5811 55.0067 59.5811 54.16V46H60.9811V54.16C60.9811 55.0067 60.8544 55.8 60.6011 56.54C60.3544 57.2733 59.9944 57.92 59.5211 58.48C59.0544 59.04 58.4844 59.4767 57.8111 59.79C57.1444 60.1033 56.3911 60.26 55.5511 60.26ZM63.6852 60V46H65.2052L72.5952 57.47V46H73.9952V60H72.4852L65.0852 48.53V60H63.6852ZM76.8 60V46H81.43C82.3967 46 83.3033 46.1833 84.15 46.55C84.9967 46.91 85.74 47.4133 86.38 48.06C87.02 48.7 87.52 49.4433 87.88 50.29C88.2467 51.13 88.43 52.0333 88.43 53C88.43 53.9667 88.2467 54.8733 87.88 55.72C87.52 56.56 87.02 57.3033 86.38 57.95C85.74 58.59 84.9967 59.0933 84.15 59.46C83.3033 59.82 82.3967 60 81.43 60H76.8ZM78.2 58.6H81.43C82.2033 58.6 82.9267 58.4567 83.6 58.17C84.28 57.8767 84.8767 57.4733 85.39 56.96C85.9033 56.4467 86.3033 55.8533 86.59 55.18C86.8833 54.5 87.03 53.7733 87.03 53C87.03 52.2267 86.8833 51.5033 86.59 50.83C86.3033 50.15 85.9 49.5533 85.38 49.04C84.8667 48.5267 84.2733 48.1267 83.6 47.84C82.9267 47.5467 82.2033 47.4 81.43 47.4H78.2V58.6Z" fill="white"/>
</svg>
