<svg width="16" height="16" viewBox="0 0 16 16" fill="none" xmlns="http://www.w3.org/2000/svg">
<g id="ic:outline-alternate-email" opacity="0.6">
<path id="Vector" d="M7.99967 1.29999C4.31967 1.29999 1.33301 4.28665 1.33301 7.96665C1.33301 11.6467 4.31967 14.6333 7.99967 14.6333H11.333V13.3H7.99967C5.10634 13.3 2.66634 10.86 2.66634 7.96665C2.66634 5.07332 5.10634 2.63332 7.99967 2.63332C10.893 2.63332 13.333 5.07332 13.333 7.96665V8.91999C13.333 9.44665 12.8597 9.96665 12.333 9.96665C11.8063 9.96665 11.333 9.44665 11.333 8.91999V7.96665C11.333 6.12665 9.83967 4.63332 7.99967 4.63332C6.15967 4.63332 4.66634 6.12665 4.66634 7.96665C4.66634 9.80665 6.15967 11.3 7.99967 11.3C8.91967 11.3 9.75967 10.9267 10.3597 10.32C10.793 10.9133 11.5397 11.3 12.333 11.3C13.6463 11.3 14.6663 10.2333 14.6663 8.91999V7.96665C14.6663 4.28665 11.6797 1.29999 7.99967 1.29999ZM7.99967 9.96665C6.89301 9.96665 5.99967 9.07332 5.99967 7.96665C5.99967 6.85999 6.89301 5.96665 7.99967 5.96665C9.10634 5.96665 9.99967 6.85999 9.99967 7.96665C9.99967 9.07332 9.10634 9.96665 7.99967 9.96665Z" fill="white"/>
</g>
</svg>
