<svg width="24" height="24" viewBox="0 0 24 24" fill="none" xmlns="http://www.w3.org/2000/svg">
<g id="ic:outline-alternate-email">
<path id="Vector" d="M11.9995 1.94998C6.47951 1.94998 1.99951 6.42998 1.99951 11.95C1.99951 17.47 6.47951 21.95 11.9995 21.95H16.9995V19.95H11.9995C7.65951 19.95 3.99951 16.29 3.99951 11.95C3.99951 7.60998 7.65951 3.94998 11.9995 3.94998C16.3395 3.94998 19.9995 7.60998 19.9995 11.95V13.38C19.9995 14.17 19.2895 14.95 18.4995 14.95C17.7095 14.95 16.9995 14.17 16.9995 13.38V11.95C16.9995 9.18998 14.7595 6.94998 11.9995 6.94998C9.23951 6.94998 6.99951 9.18998 6.99951 11.95C6.99951 14.71 9.23951 16.95 11.9995 16.95C13.3795 16.95 14.6395 16.39 15.5395 15.48C16.1895 16.37 17.3095 16.95 18.4995 16.95C20.4695 16.95 21.9995 15.35 21.9995 13.38V11.95C21.9995 6.42998 17.5195 1.94998 11.9995 1.94998ZM11.9995 14.95C10.3395 14.95 8.99951 13.61 8.99951 11.95C8.99951 10.29 10.3395 8.94998 11.9995 8.94998C13.6595 8.94998 14.9995 10.29 14.9995 11.95C14.9995 13.61 13.6595 14.95 11.9995 14.95Z" fill="#F56EAC"/>
</g>
</svg>
