<svg width="25" height="25" viewBox="0 0 25 25" fill="none" xmlns="http://www.w3.org/2000/svg">
<g id="entypo-social:linkedin-with-circle" clip-path="url(#clip0_4735_7376)">
<path id="Vector" d="M12.3335 0.980469C5.97108 0.980469 0.813477 6.13807 0.813477 12.5005C0.813477 18.8629 5.97108 24.0205 12.3335 24.0205C18.6959 24.0205 23.8535 18.8629 23.8535 12.5005C23.8535 6.13807 18.6959 0.980469 12.3335 0.980469ZM9.51348 17.2753H7.18068V9.76807H9.51348V17.2753ZM8.33268 8.84647C7.59588 8.84647 7.11948 8.32447 7.11948 7.67887C7.11948 7.02007 7.61028 6.51367 8.36268 6.51367C9.11508 6.51367 9.57588 7.02007 9.59028 7.67887C9.59028 8.32447 9.11508 8.84647 8.33268 8.84647ZM18.0335 17.2753H15.7007V13.1149C15.7007 12.1465 15.3623 11.4889 14.5187 11.4889C13.8743 11.4889 13.4915 11.9341 13.3223 12.3625C13.2599 12.5149 13.2443 12.7309 13.2443 12.9457V17.2741H10.9103V12.1621C10.9103 11.2249 10.8803 10.4413 10.8491 9.76687H12.8759L12.9827 10.8097H13.0295C13.3367 10.3201 14.0891 9.59767 15.3479 9.59767C16.8827 9.59767 18.0335 10.6261 18.0335 12.8365V17.2753Z" fill="#F56EAC"/>
</g>
<defs>
<clipPath id="clip0_4735_7376">
<rect width="24" height="24" fill="white" transform="translate(0.333008 0.5)"/>
</clipPath>
</defs>
</svg>
