<svg width="25" height="25" viewBox="0 0 25 25" fill="none" xmlns="http://www.w3.org/2000/svg">
<g id="entypo-social:facebook-with-circle" clip-path="url(#clip0_4735_7372)">
<path id="Vector" d="M12.3335 0.980469C5.97108 0.980469 0.813477 6.13807 0.813477 12.5005C0.813477 18.8629 5.97108 24.0205 12.3335 24.0205C18.6959 24.0205 23.8535 18.8629 23.8535 12.5005C23.8535 6.13807 18.6959 0.980469 12.3335 0.980469ZM15.0623 8.94127H13.3307C13.1255 8.94127 12.8975 9.21127 12.8975 9.57007V10.8205H15.0635L14.7359 12.6037H12.8975V17.9569H10.8539V12.6037H8.99988V10.8205H10.8539V9.77167C10.8539 8.26687 11.8979 7.04407 13.3307 7.04407H15.0623V8.94127Z" fill="#F56EAC"/>
</g>
<defs>
<clipPath id="clip0_4735_7372">
<rect width="24" height="24" fill="white" transform="translate(0.333008 0.5)"/>
</clipPath>
</defs>
</svg>
