<svg width="25" height="25" viewBox="0 0 25 25" fill="none" xmlns="http://www.w3.org/2000/svg">
<g id="entypo-social:twitter-with-circle" clip-path="url(#clip0_4735_7374)">
<path id="Vector" d="M12.3335 0.980469C5.97108 0.980469 0.813477 6.13807 0.813477 12.5005C0.813477 18.8629 5.97108 24.0205 12.3335 24.0205C18.6959 24.0205 23.8535 18.8629 23.8535 12.5005C23.8535 6.13807 18.6959 0.980469 12.3335 0.980469ZM17.0195 10.4173C17.0235 10.5157 17.0255 10.6133 17.0255 10.7101C17.0255 13.7101 14.7443 17.1673 10.5707 17.1673C9.33748 17.169 8.12998 16.8148 7.09308 16.1473C7.26988 16.1681 7.45028 16.1781 7.63428 16.1773C8.69748 16.1773 9.67548 15.8161 10.4519 15.2065C9.97874 15.1972 9.52028 15.0405 9.14041 14.7583C8.76054 14.4761 8.47818 14.0824 8.33268 13.6321C8.67246 13.6967 9.0225 13.6831 9.35628 13.5925C8.84253 13.489 8.38045 13.2109 8.04858 12.8053C7.71672 12.3997 7.53555 11.8917 7.53588 11.3677V11.3401C7.84188 11.5093 8.19228 11.6125 8.56428 11.6245C8.08284 11.304 7.74202 10.8117 7.61153 10.2482C7.48104 9.68478 7.57074 9.09277 7.86228 8.59327C8.43243 9.29384 9.14324 9.86698 9.94876 10.2756C10.7543 10.6843 11.6366 10.9194 12.5387 10.9657C12.424 10.4788 12.4733 9.96776 12.6791 9.51188C12.8848 9.05599 13.2354 8.68086 13.6764 8.44479C14.1173 8.20871 14.6239 8.12494 15.1173 8.20648C15.6108 8.28801 16.0635 8.5303 16.4051 8.89567C16.9129 8.79513 17.3998 8.60887 17.8451 8.34487C17.6758 8.87063 17.3215 9.31708 16.8479 9.60127C17.2977 9.54707 17.7369 9.42615 18.1511 9.24247C17.8476 9.6989 17.4642 10.0969 17.0195 10.4173Z" fill="#F56EAC"/>
</g>
<defs>
<clipPath id="clip0_4735_7374">
<rect width="24" height="24" fill="white" transform="translate(0.333008 0.5)"/>
</clipPath>
</defs>
</svg>
