<svg width="25" height="25" viewBox="0 0 25 25" fill="none" xmlns="http://www.w3.org/2000/svg">
<g id="entypo-social:instagram-with-circle" clip-path="url(#clip0_4735_7370)">
<path id="Vector" d="M15.9335 12.5005C15.9335 13.4552 15.5542 14.3709 14.8791 15.0461C14.2039 15.7212 13.2883 16.1005 12.3335 16.1005C11.3787 16.1005 10.463 15.7212 9.78789 15.0461C9.11276 14.3709 8.73348 13.4552 8.73348 12.5005C8.73428 12.2949 8.75388 12.0949 8.79228 11.9005H7.53348V16.6969C7.53348 17.0305 7.80348 17.3005 8.13708 17.3005H16.5311C16.691 17.3002 16.8442 17.2364 16.9571 17.1233C17.07 17.0101 17.1335 16.8567 17.1335 16.6969V11.9005H15.8747C15.9131 12.0949 15.9327 12.2949 15.9335 12.5005ZM12.3335 14.9005C12.6487 14.9004 12.9609 14.8382 13.2521 14.7175C13.5433 14.5968 13.8079 14.4199 14.0308 14.1969C14.2536 13.974 14.4304 13.7093 14.551 13.418C14.6715 13.1267 14.7336 12.8145 14.7335 12.4993C14.7334 12.184 14.6712 11.8719 14.5505 11.5806C14.4298 11.2894 14.2529 11.0248 14.0299 10.802C13.807 10.5791 13.5423 10.4023 13.251 10.2818C12.9597 10.1612 12.6475 10.0992 12.3323 10.0993C11.6956 10.0994 11.0851 10.3525 10.635 10.8028C10.1849 11.2531 9.93212 11.8638 9.93228 12.5005C9.93244 13.1371 10.1855 13.7477 10.6358 14.1978C11.0861 14.6479 11.6968 14.9006 12.3335 14.9005ZM15.2135 9.98047H16.6523C16.6997 9.98063 16.7466 9.97143 16.7904 9.95341C16.8342 9.93539 16.8741 9.9089 16.9076 9.87545C16.9412 9.84201 16.9678 9.80227 16.986 9.75851C17.0041 9.71476 17.0135 9.66785 17.0135 9.62047V8.18167C17.0136 8.13419 17.0044 8.08715 16.9863 8.04326C16.9682 7.99936 16.9416 7.95948 16.908 7.92591C16.8745 7.89234 16.8346 7.86574 16.7907 7.84764C16.7468 7.82954 16.6998 7.82031 16.6523 7.82047H15.2135C15.166 7.82031 15.119 7.82954 15.0751 7.84764C15.0312 7.86574 14.9913 7.89234 14.9577 7.92591C14.9241 7.95948 14.8975 7.99936 14.8794 8.04326C14.8614 8.08715 14.8521 8.13419 14.8523 8.18167V9.62047C14.8535 9.81847 15.0155 9.98047 15.2135 9.98047ZM12.3335 0.980469C9.27818 0.980469 6.34803 2.19418 4.18761 4.3546C2.02719 6.51502 0.813477 9.44518 0.813477 12.5005C0.813477 15.5558 2.02719 18.4859 4.18761 20.6463C6.34803 22.8068 9.27818 24.0205 12.3335 24.0205C13.8463 24.0205 15.3443 23.7225 16.742 23.1436C18.1397 22.5646 19.4096 21.7161 20.4793 20.6463C21.5491 19.5766 22.3976 18.3067 22.9766 16.909C23.5555 15.5113 23.8535 14.0133 23.8535 12.5005C23.8535 10.9876 23.5555 9.48963 22.9766 8.09196C22.3976 6.69428 21.5491 5.42433 20.4793 4.3546C19.4096 3.28487 18.1397 2.43631 16.742 1.85738C15.3443 1.27844 13.8463 0.980469 12.3335 0.980469ZM18.3335 17.1673C18.3335 17.9005 17.7335 18.5005 17.0003 18.5005H7.66668C6.93348 18.5005 6.33348 17.9005 6.33348 17.1673V7.83367C6.33348 7.10047 6.93348 6.50047 7.66668 6.50047H17.0003C17.7335 6.50047 18.3335 7.10047 18.3335 7.83367V17.1673Z" fill="#F56EAC"/>
</g>
<defs>
<clipPath id="clip0_4735_7370">
<rect width="24" height="24" fill="white" transform="translate(0.333008 0.5)"/>
</clipPath>
</defs>
</svg>
