<svg width="72" height="72" viewBox="0 0 72 72" fill="none" xmlns="http://www.w3.org/2000/svg">
<g clip-path="url(#clip0_5763_4284)">
<path d="M19.0351 37.4063L4.51758 43.1491V31.6636L19.0351 37.4063Z" fill="#006127"/>
<path d="M38.4246 56.7957L32.6829 71.3143L4.51758 43.149L19.0351 37.4062L38.4246 56.7957Z" fill="#003615"/>
<path d="M44.167 71.3145H32.6836L38.4253 56.7959L44.167 71.3145Z" fill="#239632"/>
<path d="M72.3338 43.148L44.1675 71.3143L38.4258 56.7957L57.8153 37.4062L72.3338 43.148Z" fill="#6DF2BE"/>
<path d="M72.333 31.6646V43.1479L57.8145 37.4062L72.333 31.6646Z" fill="#239632"/>
<path d="M72.3338 31.6646L57.8153 37.4063L38.4258 18.0168L44.1685 3.49927L72.3338 31.6646Z" fill="#03823C"/>
<path d="M44.1671 3.49927L38.4244 18.0168L32.6816 3.49927H44.1671Z" fill="#84CC33"/>
<path d="M38.4246 18.0168L19.0351 37.4063L4.51758 31.6635L32.6818 3.49927L38.4246 18.0168Z" fill="#CAF737"/>
<path d="M19.0293 37.4062L38.4158 18.0197L57.8024 37.4063L38.4158 56.7928L19.0293 37.4062Z" fill="#71E3B7"/>
<path d="M19.0293 37.4062L38.4158 18.0197L57.8024 37.4063L38.4158 56.7928L19.0293 37.4062Z" fill="url(#paint0_linear_5763_4284)"/>
<path d="M38.4246 18.0168L19.0352 37.4063L38.4246 56.7958L22.9639 37.4063L38.4246 18.0168Z" fill="white"/>
</g>
<defs>
<linearGradient id="paint0_linear_5763_4284" x1="28.7169" y1="27.7074" x2="48.1006" y2="47.0911" gradientUnits="userSpaceOnUse">
<stop offset="0.0772" stop-color="#39F1B3"/>
<stop offset="0.813" stop-color="#E0FE60"/>
</linearGradient>
<clipPath id="clip0_5763_4284">
<rect width="72" height="72" fill="white"/>
</clipPath>
</defs>
</svg>
