<svg width="73" height="72" viewBox="0 0 73 72" fill="none" xmlns="http://www.w3.org/2000/svg">
<g clip-path="url(#clip0_5763_4237)">
<path d="M48.1416 0H24.5244L0.333008 24.1914V47.8086L24.5244 72H48.1416L72.333 47.8086V24.1914L48.1416 0Z" fill="#C2D6FF"/>
<path d="M54.0383 18.2949V27.028C45.546 39.8881 32.878 48.6895 18.6279 52.4949V18.2949H54.0383Z" fill="#D9E5FF"/>
<path d="M24.5244 0L22.9329 4.93464L9.48042 21.2423L0.333008 24.1914L24.5244 0Z" fill="#D9E5FF"/>
<path d="M36.9497 43.8973C36.5492 43.3409 36.6758 42.565 37.2322 42.1645L40.7236 39.6522C41.2802 39.2519 42.0558 39.3784 42.4564 39.9348C42.8569 40.4913 42.7303 41.2671 42.1739 41.6676L38.6825 44.1799C38.1222 44.5828 37.3475 44.4502 36.9497 43.8973Z" fill="white"/>
<path d="M29.3186 40.9625C28.9183 40.4059 29.0451 39.6302 29.6017 39.2298L41.2613 30.8443C41.8179 30.444 42.5936 30.5706 42.994 31.1273C43.3943 31.684 43.2676 32.4597 42.7109 32.86L31.0513 41.2455C30.4934 41.6466 29.718 41.5178 29.3186 40.9625Z" fill="white"/>
<path d="M30.6956 31.9562C30.2952 31.3996 30.422 30.6238 30.9788 30.2235L34.4314 27.7407C34.9878 27.3404 35.7637 27.4672 36.164 28.0239C36.5644 28.5805 36.4376 29.3562 35.8808 29.7566L32.4282 32.2393C31.8716 32.6397 31.0956 32.5126 30.6956 31.9562Z" fill="white"/>
<path d="M72.333 47.8086L48.1416 72L54.0382 53.7051L72.333 47.8086Z" fill="#80AAFF"/>
<path d="M54.0383 53.7051L48.1417 71.9999H24.5245L18.6279 53.7051H54.0383Z" fill="#9CBCFF"/>
<path d="M18.6278 53.7051L24.5244 72L0.333008 47.8086L18.6278 53.7051Z" fill="#80AAFF"/>
<path d="M24.5244 72L0.333008 47.8086L9.48042 50.7576L22.9416 67.0903L24.5244 72Z" fill="#9CBCFF"/>
<path d="M72.3329 24.1915V47.8087L54.0381 53.7053V18.2949L72.3329 24.1915Z" fill="#9CBCFF"/>
<path d="M18.6278 18.2949V53.7053L0.333008 47.8087V24.1915L18.6278 18.2949Z" fill="#9CBCFF"/>
<path d="M9.48042 21.2424V50.7578L0.333008 47.8087V24.1915L9.48042 21.2424Z" fill="#C2D6FF"/>
<path d="M72.333 24.1914L54.0382 18.2948L48.1416 0L72.333 24.1914Z" fill="#80AAFF"/>
<path d="M48.1417 0L54.0383 18.2948H18.6279L24.5245 0H48.1417Z" fill="#9CBCFF"/>
</g>
<defs>
<clipPath id="clip0_5763_4237">
<rect width="72" height="72" fill="white" transform="translate(0.333008)"/>
</clipPath>
</defs>
</svg>
