<svg width="24" height="25" viewBox="0 0 24 25" fill="none" xmlns="http://www.w3.org/2000/svg">
<g clip-path="url(#clip0_4733_6140)">
<path d="M15.6005 12.5005C15.6005 13.4552 15.2212 14.3709 14.5461 15.0461C13.8709 15.7212 12.9552 16.1005 12.0005 16.1005C11.0457 16.1005 10.13 15.7212 9.45488 15.0461C8.77975 14.3709 8.40047 13.4552 8.40047 12.5005C8.40127 12.2949 8.42087 12.0949 8.45927 11.9005H7.20047V16.6969C7.20047 17.0305 7.47047 17.3005 7.80407 17.3005H16.1981C16.3579 17.3002 16.5112 17.2364 16.6241 17.1233C16.737 17.0101 16.8005 16.8567 16.8005 16.6969V11.9005H15.5417C15.5801 12.0949 15.5997 12.2949 15.6005 12.5005ZM12.0005 14.9005C12.3157 14.9004 12.6279 14.8382 12.9191 14.7175C13.2103 14.5968 13.4749 14.4199 13.6978 14.1969C13.9206 13.974 14.0974 13.7093 14.218 13.418C14.3385 13.1267 14.4005 12.8145 14.4005 12.4993C14.4004 12.184 14.3382 11.8719 14.2175 11.5806C14.0968 11.2894 13.9199 11.0248 13.6969 10.802C13.474 10.5791 13.2093 10.4023 12.918 10.2818C12.6267 10.1612 12.3145 10.0992 11.9993 10.0993C11.3626 10.0994 10.7521 10.3525 10.302 10.8028C9.85188 11.2531 9.59911 11.8638 9.59927 12.5005C9.59943 13.1371 9.8525 13.7477 10.3028 14.1978C10.7531 14.6479 11.3638 14.9006 12.0005 14.9005ZM14.8805 9.98047H16.3193C16.3666 9.98063 16.4136 9.97143 16.4574 9.95341C16.5012 9.93539 16.541 9.9089 16.5746 9.87545C16.6082 9.84201 16.6348 9.80227 16.653 9.75851C16.6711 9.71476 16.6805 9.66785 16.6805 9.62047V8.18167C16.6806 8.13419 16.6714 8.08715 16.6533 8.04326C16.6352 7.99936 16.6086 7.95948 16.575 7.92591C16.5415 7.89234 16.5016 7.86574 16.4577 7.84764C16.4138 7.82954 16.3667 7.82031 16.3193 7.82047H14.8805C14.833 7.82031 14.786 7.82954 14.7421 7.84764C14.6982 7.86574 14.6583 7.89234 14.6247 7.92591C14.5911 7.95948 14.5645 7.99936 14.5464 8.04326C14.5283 8.08715 14.5191 8.13419 14.5193 8.18167V9.62047C14.5205 9.81847 14.6825 9.98047 14.8805 9.98047ZM12.0005 0.980469C8.94518 0.980469 6.01502 2.19418 3.8546 4.3546C1.69418 6.51502 0.480469 9.44518 0.480469 12.5005C0.480469 15.5558 1.69418 18.4859 3.8546 20.6463C6.01502 22.8068 8.94518 24.0205 12.0005 24.0205C13.5133 24.0205 15.0113 23.7225 16.409 23.1436C17.8067 22.5646 19.0766 21.7161 20.1463 20.6463C21.2161 19.5766 22.0646 18.3067 22.6436 16.909C23.2225 15.5113 23.5205 14.0133 23.5205 12.5005C23.5205 10.9876 23.2225 9.48963 22.6436 8.09196C22.0646 6.69428 21.2161 5.42433 20.1463 4.3546C19.0766 3.28487 17.8067 2.43631 16.409 1.85738C15.0113 1.27844 13.5133 0.980469 12.0005 0.980469ZM18.0005 17.1673C18.0005 17.9005 17.4005 18.5005 16.6673 18.5005H7.33367C6.60047 18.5005 6.00047 17.9005 6.00047 17.1673V7.83367C6.00047 7.10047 6.60047 6.50047 7.33367 6.50047H16.6673C17.4005 6.50047 18.0005 7.10047 18.0005 7.83367V17.1673Z" fill="#2C9D81"/>
</g>
<defs>
<clipPath id="clip0_4733_6140">
<rect width="24" height="24" fill="white" transform="translate(0 0.5)"/>
</clipPath>
</defs>
</svg>
