<svg width="24" height="25" viewBox="0 0 24 25" fill="none" xmlns="http://www.w3.org/2000/svg">
<g clip-path="url(#clip0_4733_6144)">
<path d="M12.0005 0.980469C5.63807 0.980469 0.480469 6.13807 0.480469 12.5005C0.480469 18.8629 5.63807 24.0205 12.0005 24.0205C18.3629 24.0205 23.5205 18.8629 23.5205 12.5005C23.5205 6.13807 18.3629 0.980469 12.0005 0.980469ZM16.6865 10.4173C16.6905 10.5157 16.6925 10.6133 16.6925 10.7101C16.6925 13.7101 14.4113 17.1673 10.2377 17.1673C9.00447 17.169 7.79697 16.8148 6.76007 16.1473C6.93687 16.1681 7.11727 16.1781 7.30127 16.1773C8.36447 16.1773 9.34247 15.8161 10.1189 15.2065C9.64573 15.1972 9.18727 15.0405 8.8074 14.7583C8.42753 14.4761 8.14517 14.0824 7.99967 13.6321C8.33946 13.6967 8.68949 13.6831 9.02327 13.5925C8.50952 13.489 8.04744 13.2109 7.71558 12.8053C7.38371 12.3997 7.20254 11.8917 7.20287 11.3677V11.3401C7.50887 11.5093 7.85927 11.6125 8.23127 11.6245C7.74983 11.304 7.40901 10.8117 7.27852 10.2482C7.14803 9.68478 7.23773 9.09277 7.52927 8.59327C8.09942 9.29384 8.81023 9.86698 9.61576 10.2756C10.4213 10.6843 11.3036 10.9194 12.2057 10.9657C12.091 10.4788 12.1403 9.96776 12.3461 9.51188C12.5518 9.05599 12.9024 8.68086 13.3434 8.44479C13.7843 8.20871 14.2909 8.12494 14.7843 8.20648C15.2778 8.28801 15.7305 8.5303 16.0721 8.89567C16.5799 8.79513 17.0668 8.60887 17.5121 8.34487C17.3428 8.87063 16.9885 9.31708 16.5149 9.60127C16.9647 9.54707 17.4039 9.42615 17.8181 9.24247C17.5145 9.6989 17.1312 10.0969 16.6865 10.4173Z" fill="#2C9D81"/>
</g>
<defs>
<clipPath id="clip0_4733_6144">
<rect width="24" height="24" fill="white" transform="translate(0 0.5)"/>
</clipPath>
</defs>
</svg>
