<svg width="24" height="25" viewBox="0 0 24 25" fill="none" xmlns="http://www.w3.org/2000/svg">
<g clip-path="url(#clip0_4733_6146)">
<path d="M12.0005 0.980469C5.63807 0.980469 0.480469 6.13807 0.480469 12.5005C0.480469 18.8629 5.63807 24.0205 12.0005 24.0205C18.3629 24.0205 23.5205 18.8629 23.5205 12.5005C23.5205 6.13807 18.3629 0.980469 12.0005 0.980469ZM9.18047 17.2753H6.84767V9.76807H9.18047V17.2753ZM7.99967 8.84647C7.26287 8.84647 6.78647 8.32447 6.78647 7.67887C6.78647 7.02007 7.27727 6.51367 8.02967 6.51367C8.78207 6.51367 9.24287 7.02007 9.25727 7.67887C9.25727 8.32447 8.78207 8.84647 7.99967 8.84647ZM17.7005 17.2753H15.3677V13.1149C15.3677 12.1465 15.0293 11.4889 14.1857 11.4889C13.5413 11.4889 13.1585 11.9341 12.9893 12.3625C12.9269 12.5149 12.9113 12.7309 12.9113 12.9457V17.2741H10.5773V12.1621C10.5773 11.2249 10.5473 10.4413 10.5161 9.76687H12.5429L12.6497 10.8097H12.6965C13.0037 10.3201 13.7561 9.59767 15.0149 9.59767C16.5497 9.59767 17.7005 10.6261 17.7005 12.8365V17.2753Z" fill="#2C9D81"/>
</g>
<defs>
<clipPath id="clip0_4733_6146">
<rect width="24" height="24" fill="white" transform="translate(0 0.5)"/>
</clipPath>
</defs>
</svg>
