<svg width="48" height="48" viewBox="0 0 48 48" fill="none" xmlns="http://www.w3.org/2000/svg">
<path d="M40 12.0001H35.64C35.86 11.3801 36 10.7001 36 10.0001C36.0022 8.70972 35.5877 7.45315 34.8183 6.41726C34.049 5.38138 32.9657 4.62153 31.7298 4.25075C30.4939 3.87997 29.1713 3.91807 27.9587 4.35938C26.7462 4.80068 25.7085 5.62162 25 6.70007L24 8.04007L23 6.68007C21.92 5.08007 20.1 4.00008 18 4.00008C14.68 4.00008 12 6.68007 12 10.0001C12 10.7001 12.14 11.3801 12.36 12.0001H8C5.78 12.0001 4.02 13.7801 4.02 16.0001L4 38.0001C4 40.2201 5.78 42.0001 8 42.0001H40C42.22 42.0001 44 40.2201 44 38.0001V16.0001C44 13.7801 42.22 12.0001 40 12.0001ZM30 8.00007C31.1 8.00007 32 8.90007 32 10.0001C32 11.1001 31.1 12.0001 30 12.0001C28.9 12.0001 28 11.1001 28 10.0001C28 8.90007 28.9 8.00007 30 8.00007ZM18 8.00007C19.1 8.00007 20 8.90007 20 10.0001C20 11.1001 19.1 12.0001 18 12.0001C16.9 12.0001 16 11.1001 16 10.0001C16 8.90007 16.9 8.00007 18 8.00007ZM40 38.0001H8V34.0001H40V38.0001ZM40 28.0001H8V16.0001H18.16L14 21.6601L17.24 24.0001L24 14.8001L30.76 24.0001L34 21.6601L29.84 16.0001H40V28.0001Z" fill="#F56EAC"/>
</svg>
