<svg width="48" height="48" viewBox="0 0 48 48" fill="none" xmlns="http://www.w3.org/2000/svg">
<path d="M24.4396 39.7C24.0796 40.06 23.4396 40.12 23.0196 39.7C22.8323 39.5112 22.7271 39.256 22.7271 38.99C22.7271 38.724 22.8323 38.4688 23.0196 38.28L29.7996 31.5L26.9796 28.68L20.1996 35.46C19.8196 35.86 19.1796 35.84 18.7796 35.46C18.5923 35.2712 18.4872 35.016 18.4872 34.75C18.4872 34.484 18.5923 34.2288 18.7796 34.04L25.5596 27.26L22.7396 24.44L15.9596 31.22C15.5996 31.58 14.9596 31.64 14.5396 31.22C14.3565 31.029 14.2543 30.7746 14.2543 30.51C14.2543 30.2454 14.3565 29.991 14.5396 29.8L21.3196 23.02L18.4796 20.2L11.6996 26.98C11.3396 27.34 10.6996 27.4 10.2796 26.98C10.0965 26.789 9.99429 26.5346 9.99429 26.27C9.99429 26.0054 10.0965 25.751 10.2796 25.56L19.0396 16.8L22.7796 20.52C24.6796 22.42 27.9596 22.4 29.8596 20.52C31.8196 18.56 31.8196 15.4 29.8596 13.44L26.1396 9.71998L26.6996 9.15998C28.2596 7.59998 30.7996 7.59998 32.3596 9.15998L40.8396 17.64C42.3996 19.2 42.3996 21.74 40.8396 23.3L24.4396 39.7ZM43.6596 26.14C45.157 24.6368 45.9977 22.6016 45.9977 20.48C45.9977 18.3583 45.157 16.3231 43.6596 14.82L35.1796 6.33998C33.6765 4.84266 31.6413 4.00195 29.5196 4.00195C27.398 4.00195 25.3628 4.84266 23.8596 6.33998L23.2996 6.89998L22.7396 6.33998C21.2365 4.84266 19.2013 4.00195 17.0796 4.00195C14.958 4.00195 12.9228 4.84266 11.4196 6.33998L4.33963 13.42C2.98589 14.7679 2.16064 16.5568 2.01384 18.4616C1.86704 20.3663 2.40843 22.2605 3.53963 23.8L6.43963 20.9C6.05302 20.1451 5.91635 19.2869 6.04936 18.4493C6.18238 17.6116 6.57819 16.838 7.17963 16.24L14.2596 9.15998C15.8196 7.59998 18.3596 7.59998 19.9196 9.15998L27.0396 16.28C27.3996 16.64 27.4596 17.28 27.0396 17.7C26.6196 18.12 25.9796 18.06 25.6196 17.7L19.0396 11.14L7.43963 22.72C5.47963 24.66 5.47963 27.84 7.43963 29.8C8.21963 30.58 9.21963 31.06 10.2796 31.2C10.4203 32.2752 10.9123 33.2738 11.6791 34.0405C12.4458 34.8073 13.4444 35.2993 14.5196 35.44C14.6603 36.5152 15.1523 37.5138 15.9191 38.2805C16.6858 39.0473 17.6844 39.5393 18.7596 39.68C18.8996 40.76 19.3796 41.74 20.1596 42.52C21.0996 43.46 22.3596 43.98 23.6996 43.98C25.0396 43.98 26.2996 43.46 27.2396 42.52L43.6596 26.14Z" fill="#2C9D81"/>
</svg>
