<svg width="48" height="48" viewBox="0 0 48 48" fill="none" xmlns="http://www.w3.org/2000/svg">
<path d="M44 24C44 35.04 35.04 44 24 44C12.96 44 4 35.04 4 24C4 21.62 4.44 19.36 5.2 17.24L8.96 18.6C8.34 20.28 8 22.1 8 24C8 32.82 15.18 40 24 40C32.82 40 40 32.82 40 24C40 15.18 32.82 8 24 8C22.1 8 20.3 8.34 18.62 8.96L17.26 5.18C19.38 4.44 21.64 4 24 4C35.04 4 44 12.96 44 24ZM11 8C9.34 8 8 9.34 8 11C8 12.66 9.34 14 11 14C12.66 14 14 12.66 14 11C14 9.34 12.66 8 11 8ZM22 32V16H18V32H22ZM30 32V16H26V32H30Z" fill="#0A1748"/>
</svg>
