<svg width="48" height="48" viewBox="0 0 48 48" fill="none" xmlns="http://www.w3.org/2000/svg">
<path d="M38 4H10C8.93913 4 7.92172 4.42143 7.17157 5.17157C6.42143 5.92172 6 6.93913 6 8V36C6 37.0609 6.42143 38.0783 7.17157 38.8284C7.92172 39.5786 8.93913 40 10 40H18L24 46L30 40H38C40.2 40 42 38.2 42 36V8C42 5.8 40.2 4 38 4ZM38 36H28.34L27.16 37.18L24 40.34L20.82 37.16L19.66 36H10V8H38V36ZM22 30H26V34H22V30ZM24 14C26.2 14 28 15.8 28 18C28 22 22 21.5 22 28H26C26 23.5 32 23 32 18C32 13.58 28.42 10 24 10C19.58 10 16 13.58 16 18H20C20 15.8 21.8 14 24 14Z" fill="#0A1748"/>
</svg>
