<svg width="49" height="48" viewBox="0 0 49 48" fill="none" xmlns="http://www.w3.org/2000/svg">
<path d="M6.09398 15.76L9.17398 18.84C8.63398 20.46 8.33398 22.2 8.33398 24C8.33398 32.82 15.514 40 24.334 40C33.154 40 40.334 32.82 40.334 24C40.334 15.18 33.154 8 24.334 8C22.534 8 20.794 8.3 19.174 8.84L16.114 5.78C18.634 4.64 21.414 4 24.334 4C35.374 4 44.334 12.96 44.334 24C44.334 35.04 35.374 44 24.334 44C13.294 44 4.33398 35.04 4.33398 24C4.33398 21.06 4.97398 18.28 6.09398 15.76ZM14.334 11C14.334 12.66 12.994 14 11.334 14C9.67398 14 8.33398 12.66 8.33398 11C8.33398 9.34 9.67398 8 11.334 8C12.994 8 14.334 9.34 14.334 11ZM24.394 17.98H24.254L21.934 24.6H26.714L24.394 17.98ZM22.914 15H25.774L31.794 31H29.014L27.574 26.92H21.114L19.654 31H16.894L22.914 15Z" fill="#0A1748"/>
</svg>
