<svg width="49" height="48" viewBox="0 0 49 48" fill="none" xmlns="http://www.w3.org/2000/svg">
<path d="M20.41 21.72C20.51 21.06 20.73 20.48 21.01 19.98C21.29 19.48 21.69 19.06 22.19 18.74C22.67 18.44 23.27 18.3 24.01 18.28C24.47 18.3 24.89 18.38 25.27 18.54C25.67 18.72 26.03 18.96 26.31 19.26C26.59 19.56 26.81 19.92 26.99 20.32C27.17 20.72 27.25 21.16 27.27 21.6H30.85C30.81 20.66 30.63 19.8 30.29 19.02C29.95 18.24 29.49 17.56 28.89 17C28.29 16.44 27.57 16 26.73 15.68C25.89 15.36 24.97 15.22 23.95 15.22C22.65 15.22 21.51 15.44 20.55 15.9C19.59 16.36 18.79 16.96 18.15 17.74C17.51 18.52 17.03 19.42 16.73 20.46C16.43 21.5 16.25 22.58 16.25 23.74V24.28C16.25 25.44 16.41 26.52 16.71 27.56C17.01 28.6 17.49 29.5 18.13 30.26C18.77 31.02 19.57 31.64 20.53 32.08C21.49 32.52 22.63 32.76 23.93 32.76C24.87 32.76 25.75 32.6 26.57 32.3C27.39 32 28.11 31.58 28.73 31.04C29.35 30.5 29.85 29.88 30.21 29.16C30.57 28.44 30.79 27.68 30.81 26.86H27.23C27.21 27.28 27.11 27.66 26.93 28.02C26.75 28.38 26.51 28.68 26.21 28.94C25.91 29.2 25.57 29.4 25.17 29.54C24.79 29.68 24.39 29.72 23.97 29.74C23.25 29.72 22.65 29.58 22.19 29.28C21.69 28.96 21.29 28.54 21.01 28.04C20.73 27.54 20.51 26.94 20.41 26.28C20.31 25.62 20.25 24.94 20.25 24.28V23.74C20.25 23.04 20.31 22.38 20.41 21.72ZM24.25 4C13.21 4 4.25 12.96 4.25 24C4.25 35.04 13.21 44 24.25 44C35.29 44 44.25 35.04 44.25 24C44.25 12.96 35.29 4 24.25 4ZM24.25 40C15.43 40 8.25 32.82 8.25 24C8.25 15.18 15.43 8 24.25 8C33.07 8 40.25 15.18 40.25 24C40.25 32.82 33.07 40 24.25 40Z" fill="#0A1748"/>
</svg>
