<svg width="48" height="48" viewBox="0 0 48 48" fill="none" xmlns="http://www.w3.org/2000/svg">
<path d="M18 24C18 27.32 20.68 30 24 30C27.32 30 30 27.32 30 24C30 20.68 27.32 18 24 18C20.68 18 18 20.68 18 24ZM26 24C26 25.1 25.1 26 24 26C22.9 26 22 25.1 22 24C22 22.9 22.9 22 24 22C25.1 22 26 22.9 26 24Z" fill="#0A1748"/>
<path d="M16 20V16H10.18C12.94 11.22 18.1 8 24 8C31.44 8 37.7 13.12 39.48 20H43.6C41.74 10.88 33.68 4 24 4C17.46 4 11.64 7.16 8 12.02V8H4V20H16ZM32 28V32H37.82C35.06 36.78 29.9 40 24 40C16.56 40 10.3 34.88 8.52 28H4.4C6.26 37.12 14.32 44 24 44C30.54 44 36.36 40.84 40 35.98V40H44V28H32Z" fill="#0A1748"/>
</svg>
