<svg width="48" height="48" viewBox="0 0 48 48" fill="none" xmlns="http://www.w3.org/2000/svg">
<path d="M20.54 24.0004H27.46C27.8964 24.0007 28.3277 23.9058 28.7237 23.7222C29.1196 23.5387 29.4708 23.2709 29.7526 22.9377C30.0344 22.6044 30.2402 22.2137 30.3554 21.7927C30.4707 21.3718 30.4927 20.9308 30.42 20.5004L29.82 16.9204C29.5859 15.5449 28.8719 14.2968 27.8049 13.3976C26.7379 12.4984 25.3869 12.0064 23.9915 12.0088C22.5962 12.0112 21.2468 12.5079 20.1829 13.4107C19.119 14.3135 18.4094 15.5641 18.18 16.9404L17.58 20.5204C17.28 22.3404 18.68 24.0004 20.54 24.0004ZM22.12 17.5804C22.28 16.6604 23.06 16.0004 24 16.0004C24.94 16.0004 25.72 16.6604 25.88 17.5804L26.28 20.0004H21.72L22.12 17.5804ZM3.32 22.2204C3.06 22.7404 2.96 23.3604 3.12 23.9804C3.44 25.3604 4.64 26.0404 6.18 25.9804H10.08C11.74 25.9804 13.1 24.8204 13.1 23.4004C13.1 23.1204 13.04 22.8604 12.96 22.6004C12.94 22.5404 12.94 22.5004 12.98 22.4404C13.16 22.1204 13.26 21.7604 13.26 21.3804C13.26 20.7604 12.98 20.1804 12.54 19.7404C12.48 19.6804 12.48 19.6204 12.5 19.5404C12.64 19.1404 12.64 18.6804 12.52 18.2404C12.3716 17.8267 12.1047 17.4657 11.7526 17.2026C11.4006 16.9394 10.9788 16.7856 10.54 16.7604C10.4872 16.7597 10.4369 16.7381 10.4 16.7004C10.06 16.2804 9.44 16.0004 8.74 16.0004C8.14 16.0004 7.6 16.2004 7.24 16.5204C7.18 16.5804 7.12 16.5804 7.06 16.5604C6.70222 16.4154 6.31553 16.356 5.93071 16.3868C5.54589 16.4175 5.17358 16.5377 4.8434 16.7378C4.51323 16.9378 4.23432 17.2122 4.02887 17.539C3.82342 17.8659 3.69711 18.2362 3.66 18.6204C3.66 18.6604 3.64 18.7004 3.6 18.7404C3.02 19.2604 2.68 20.0404 2.78 20.8404C2.84 21.2804 3.02 21.7004 3.28 22.0404C3.34 22.0804 3.34 22.1604 3.32 22.2204ZM32.48 27.3004C30.14 26.2604 27.26 25.5004 24 25.5004C20.74 25.5004 17.86 26.2804 15.52 27.3004C14.4664 27.7759 13.5732 28.5466 12.9485 29.5192C12.3238 30.4917 11.9943 31.6245 12 32.7804V36.0004H36V32.7804C36 30.4204 34.64 28.2604 32.48 27.3004ZM16.14 32.0004C16.3207 31.5406 16.6717 31.1681 17.12 30.9604C19.32 29.9804 21.64 29.5004 23.98 29.5004C26.34 29.5004 28.64 30.0004 30.84 30.9604C31.3 31.1604 31.64 31.5404 31.82 32.0004H16.14ZM2.44 29.1604C1.71543 29.4701 1.09785 29.986 0.664036 30.6438C0.230225 31.3016 -0.000687372 32.0724 1.53699e-06 32.8604V36.0004H9V32.7804C9 31.1204 9.46 29.5604 10.26 28.2004C9.52 28.0804 8.78 28.0004 8 28.0004C6.02 28.0004 4.14 28.4204 2.44 29.1604ZM45.56 29.1604C43.8063 28.3952 41.9134 28.0003 40 28.0004C39.22 28.0004 38.48 28.0804 37.74 28.2004C38.54 29.5604 39 31.1204 39 32.7804V36.0004H48V32.8604C48 31.2404 47.04 29.8004 45.56 29.1604ZM44 22.0004V21.0004C44 18.8004 42.2 17.0004 40 17.0004H36C35.16 17.0004 34.7 17.9604 35.22 18.6204L36.62 19.8804C36.24 20.5004 36 21.2204 36 22.0004C36 24.2004 37.8 26.0004 40 26.0004C42.2 26.0004 44 24.2004 44 22.0004Z" fill="#0A1748"/>
</svg>
