<svg width="48" height="48" viewBox="0 0 48 48" fill="none" xmlns="http://www.w3.org/2000/svg">
<path d="M26.0996 19.5796L19.9996 14.9996V32.9996L26.0996 28.4196L31.9996 23.9996L26.0996 19.5796ZM26.0996 19.5796L19.9996 14.9996V32.9996L26.0996 28.4196L31.9996 23.9996L26.0996 19.5796ZM26.0996 19.5796L19.9996 14.9996V32.9996L26.0996 28.4196L31.9996 23.9996L26.0996 19.5796ZM21.9996 8.13961V4.09961C17.9796 4.49961 14.3196 6.09961 11.3596 8.51961L14.1996 11.3796C16.4595 9.6153 19.1548 8.49569 21.9996 8.13961ZM11.3796 14.1996L8.51961 11.3596C6.02934 14.3928 4.49154 18.0947 4.09961 21.9996H8.13961C8.49961 19.0796 9.65961 16.4196 11.3796 14.1996ZM8.13961 25.9996H4.09961C4.49961 30.0196 6.09961 33.6796 8.51961 36.6396L11.3796 33.7796C9.6125 31.529 8.49235 28.8392 8.13961 25.9996ZM11.3596 39.4796C14.3959 41.9647 18.0962 43.5019 21.9996 43.8996V39.8596C19.1548 39.5035 16.4595 38.3839 14.1996 36.6196L11.3596 39.4796ZM43.9996 23.9996C43.9996 34.3196 36.1596 42.8396 26.0996 43.8996V39.8596C33.9396 38.8196 39.9996 32.0996 39.9996 23.9996C39.9996 15.8996 33.9396 9.17961 26.0996 8.13961V4.09961C36.1596 5.15961 43.9996 13.6796 43.9996 23.9996Z" fill="#0A1748"/>
</svg>
