<svg width="49" height="48" viewBox="0 0 49 48" fill="none" xmlns="http://www.w3.org/2000/svg">
<path d="M24.5 13C28.1775 12.9878 31.7837 14.0136 34.9042 15.9595C38.0247 17.9053 40.5328 20.6923 42.14 24C38.84 30.74 32.1 35 24.5 35C16.9 35 10.16 30.74 6.86 24C8.46724 20.6923 10.9753 17.9053 14.0958 15.9595C17.2163 14.0136 20.8225 12.9878 24.5 13ZM24.5 9C14.5 9 5.96 15.22 2.5 24C5.96 32.78 14.5 39 24.5 39C34.5 39 43.04 32.78 46.5 24C43.04 15.22 34.5 9 24.5 9ZM24.5 19C25.8261 19 27.0979 19.5268 28.0355 20.4645C28.9732 21.4021 29.5 22.6739 29.5 24C29.5 25.3261 28.9732 26.5979 28.0355 27.5355C27.0979 28.4732 25.8261 29 24.5 29C23.1739 29 21.9021 28.4732 20.9645 27.5355C20.0268 26.5979 19.5 25.3261 19.5 24C19.5 22.6739 20.0268 21.4021 20.9645 20.4645C21.9021 19.5268 23.1739 19 24.5 19ZM24.5 15C19.54 15 15.5 19.04 15.5 24C15.5 28.96 19.54 33 24.5 33C29.46 33 33.5 28.96 33.5 24C33.5 19.04 29.46 15 24.5 15Z" fill="#F56EAC"/>
</svg>
