<svg width="48" height="49" viewBox="0 0 48 49" fill="none" xmlns="http://www.w3.org/2000/svg">
<path d="M12 22.68V13.28L24 8.78L36 13.28V20.66C37.42 20.86 38.76 21.28 40 21.86V10.5L24 4.5L8 10.5V22.68C8 32.78 14.82 42.2 24 44.5C24.06 44.48 24.1 44.46 24.16 44.46C22.58 42.9 21.36 40.94 20.66 38.78C15.52 35.56 12 29.34 12 22.68Z" fill="#0A1748"/>
<path d="M34 24.5C28.48 24.5 24 28.98 24 34.5C24 40.02 28.48 44.5 34 44.5C39.52 44.5 44 40.02 44 34.5C44 28.98 39.52 24.5 34 24.5ZM40 35.5H35V40.5H33V35.5H28V33.5H33V28.5H35V33.5H40V35.5Z" fill="#0A1748"/>
</svg>
