<svg width="48" height="49" viewBox="0 0 48 49" fill="none" xmlns="http://www.w3.org/2000/svg">
<path d="M26.0405 40.3601V44.4001C30.0605 44.0001 33.7205 42.4001 36.6805 39.9801L33.8405 37.1201C31.5807 38.8844 28.8854 40.004 26.0405 40.3601ZM8.06055 24.5001C8.06055 16.4001 14.1205 9.6801 21.9605 8.6401V4.6001C11.9005 5.6601 4.06055 14.1801 4.06055 24.5001C4.06055 34.8201 11.9005 43.3401 21.9605 44.4001V40.3601C14.1205 39.3201 8.06055 32.6001 8.06055 24.5001ZM39.9005 22.5001H43.9405C43.5405 18.4801 41.9405 14.8201 39.5205 11.8601L36.6605 14.7201C38.3805 16.9201 39.5405 19.5801 39.9005 22.5001ZM36.6805 9.0201C33.6442 6.53497 29.944 4.99784 26.0405 4.6001V8.6401C28.9605 9.0001 31.6205 10.1601 33.8405 11.8801L36.6805 9.0201ZM36.6605 34.3001L39.5205 37.1401C42.0108 34.1069 43.5486 30.405 43.9405 26.5001H39.9005C39.5445 29.3449 38.4249 32.0402 36.6605 34.3001Z" fill="#0A1748"/>
<path d="M32 22.7C32 17.72 28.2 14.5 24 14.5C19.8 14.5 16 17.72 16 22.7C16 26.02 18.66 29.96 24 34.5C29.34 29.96 32 26.02 32 22.7ZM24 24.5C23.4484 24.4761 22.9274 24.2403 22.5455 23.8415C22.1637 23.4428 21.9505 22.9121 21.9505 22.36C21.9505 21.8079 22.1637 21.2772 22.5455 20.8785C22.9274 20.4797 23.4484 20.2439 24 20.22C24.5516 20.2439 25.0726 20.4797 25.4545 20.8785C25.8363 21.2772 26.0495 21.8079 26.0495 22.36C26.0495 22.9121 25.8363 23.4428 25.4545 23.8415C25.0726 24.2403 24.5516 24.4761 24 24.5Z" fill="#0A1748"/>
</svg>
