<svg width="48" height="48" viewBox="0 0 48 48" fill="none" xmlns="http://www.w3.org/2000/svg">
<path d="M39.78 21.4999C39.92 22.3199 40 23.1399 40 23.9999C40 32.8199 32.82 39.9999 24 39.9999C15.18 39.9999 8 32.8199 8 23.9999C8 23.8999 8.02 23.7999 8 23.7199C13.2 21.7599 17.38 17.7399 19.48 12.6199C26.24 20.8999 35.42 20.0799 37.46 19.8399L35.68 15.9799C35.42 15.9999 26.44 16.7399 21.32 8.25991C23.34 7.93991 24.74 7.95991 26.5 8.23991C31.54 5.93991 30.36 6.45991 32.02 5.71991C29.5018 4.57557 26.766 3.98885 24 3.99991C12.96 3.99991 4 12.9599 4 23.9999C4 35.0399 12.96 43.9999 24 43.9999C35.04 43.9999 44 35.0399 44 23.9999C44 21.1399 43.4 18.4399 42.32 15.9799L39.78 21.4999ZM16.16 10.0599C14.8973 13.8206 12.2907 16.9828 8.84 18.9399C10.1027 15.1792 12.7093 12.017 16.16 10.0599Z" fill="#0A1748"/>
<path d="M30 28.5C31.3807 28.5 32.5 27.3807 32.5 26C32.5 24.6193 31.3807 23.5 30 23.5C28.6193 23.5 27.5 24.6193 27.5 26C27.5 27.3807 28.6193 28.5 30 28.5Z" fill="#0A1748"/>
<path d="M18 28.5C19.3807 28.5 20.5 27.3807 20.5 26C20.5 24.6193 19.3807 23.5 18 23.5C16.6193 23.5 15.5 24.6193 15.5 26C15.5 27.3807 16.6193 28.5 18 28.5Z" fill="#0A1748"/>
<path d="M46 9L41.2 6.8L39 2L36.8 6.8L32 9L36.8 11.2L39 16L41.2 11.2L46 9Z" fill="#0A1748"/>
</svg>
