<svg width="48" height="48" viewBox="0 0 48 48" fill="none" xmlns="http://www.w3.org/2000/svg">
<path d="M4 43.9999L32 33.9999L14 15.9999L4 43.9999ZM24.7 32.3599L10.6 37.3999L15.64 23.2999L24.7 32.3599ZM29.06 25.0599L40.24 13.8799C40.4722 13.6471 40.7481 13.4624 41.0518 13.3364C41.3556 13.2103 41.6812 13.1455 42.01 13.1455C42.3388 13.1455 42.6644 13.2103 42.9682 13.3364C43.2719 13.4624 43.5478 13.6471 43.78 13.8799L44.96 15.0599L47.08 12.9399L45.9 11.7599C44.8659 10.7328 43.4675 10.1563 42.01 10.1563C40.5525 10.1563 39.1541 10.7328 38.12 11.7599L26.94 22.9399L29.06 25.0599ZM20.12 13.7599L18.94 14.9399L21.06 17.0599L22.24 15.8799C23.2671 14.8458 23.8436 13.4474 23.8436 11.9899C23.8436 10.5324 23.2671 9.13403 22.24 8.09992L21.06 6.91992L18.94 9.05992L20.12 10.2399C21.08 11.1999 21.08 12.7999 20.12 13.7599ZM34.12 23.7599L30.94 26.9399L33.06 29.0599L36.24 25.8799C36.4722 25.6471 36.7481 25.4624 37.0518 25.3364C37.3556 25.2103 37.6812 25.1455 38.01 25.1455C38.3388 25.1455 38.6644 25.2103 38.9682 25.3364C39.2719 25.4624 39.5478 25.6471 39.78 25.8799L43 29.0999L45.12 26.9799L41.9 23.7599C40.8659 22.7328 39.4675 22.1563 38.01 22.1563C36.5525 22.1563 35.1541 22.7328 34.12 23.7599ZM30.12 11.7599L22.94 18.9399L25.06 21.0599L32.24 13.8799C33.2671 12.8458 33.8436 11.4474 33.8436 9.98992C33.8436 8.5324 33.2671 7.13403 32.24 6.09992L29.06 2.91992L26.94 5.03992L30.12 8.21992C31.08 9.19992 31.08 10.7999 30.12 11.7599Z" fill="#0A1748"/>
</svg>
