<svg width="48" height="48" viewBox="0 0 48 48" fill="none" xmlns="http://www.w3.org/2000/svg">
<path d="M40.6197 7.38C39.9797 6.72 36.7397 6 32.5197 6C26.4597 6 18.3397 7.5 12.9197 12.92C3.73967 22.1 5.79967 39.04 7.37967 40.62C8.01967 41.28 11.2597 42 15.4797 42C21.5397 42 29.6597 40.5 35.0797 35.08C44.2597 25.9 42.1997 8.96 40.6197 7.38ZM15.4797 38C13.1997 38 11.4397 37.76 10.4197 37.54C10.0597 35.96 9.81967 33.12 10.0797 29.88L18.0997 37.9C17.0597 37.98 16.1597 38 15.4797 38ZM32.2597 32.26C29.5997 34.92 26.1397 36.36 22.9397 37.14L10.8597 25.06C11.6997 21.7 13.1797 18.32 15.7597 15.76C18.3997 13.12 21.8597 11.68 25.0397 10.9L37.1397 23C36.2997 26.34 34.7997 29.7 32.2597 32.26ZM37.9197 18.18L29.8597 10.12C30.8997 10.02 31.8197 10 32.5197 10C34.7997 10 36.5597 10.24 37.5797 10.46C37.9397 12.04 38.1797 14.9 37.9197 18.18Z" fill="#0A1748"/>
<path d="M17 28.2L28.2 17L31 19.8L19.8 31L17 28.2Z" fill="#0A1748"/>
</svg>
