<svg width="49" height="48" viewBox="0 0 49 48" fill="none" xmlns="http://www.w3.org/2000/svg">
<path d="M38.5 6H10.5C8.3 6 6.5 7.8 6.5 10V38C6.5 40.2 8.3 42 10.5 42H38.5C40.7 42 42.5 40.2 42.5 38V10C42.5 7.8 40.7 6 38.5 6ZM26.5 10H38.5V22H32.5L34.5 14L26.5 16V10ZM10.5 10H22.5V16L14.5 14L16.5 22H10.5V10ZM22.5 38H10.5V26H16.5L14.5 34L22.5 32V38ZM38.5 38H26.5V32L34.5 34L32.5 26H38.5V38ZM29.76 29.26L24.5 27.44L19.24 29.26L21.06 24L19.24 18.74L24.5 20.56L29.76 18.74L27.94 24L29.76 29.26Z" fill="#0A1748"/>
</svg>
