<svg width="57" height="56" viewBox="0 0 57 56" fill="none" xmlns="http://www.w3.org/2000/svg">
<path d="M28.2503 4.66699C15.3703 4.66699 4.91699 15.1203 4.91699 28.0003C4.91699 40.8803 15.3703 51.3337 28.2503 51.3337C41.1303 51.3337 51.5837 40.8803 51.5837 28.0003C51.5837 15.1203 41.1303 4.66699 28.2503 4.66699ZM28.2503 46.667C17.9603 46.667 9.58366 38.2903 9.58366 28.0003C9.58366 17.7103 17.9603 9.33366 28.2503 9.33366C38.5403 9.33366 46.917 17.7103 46.917 28.0003C46.917 38.2903 38.5403 46.667 28.2503 46.667ZM28.9737 25.9937C24.8437 24.9437 23.5137 23.8003 23.5137 22.097C23.5137 20.137 25.357 18.7603 28.4137 18.7603C31.6337 18.7603 32.847 20.3003 32.9403 22.587H36.9303C36.8137 19.4603 34.9003 16.5903 31.1203 15.657V11.667H25.6837V15.6103C22.1603 16.357 19.337 18.6437 19.337 22.167C19.337 26.3437 22.8137 28.4437 27.877 29.657C32.427 30.7303 33.337 32.3403 33.337 34.0203C33.337 35.257 32.427 37.2637 28.437 37.2637C24.7037 37.2637 23.2337 35.5837 23.0237 33.437H19.0103C19.2437 37.4037 22.1837 39.6437 25.6837 40.367V44.3337H31.1437V40.437C34.6903 39.7603 37.4903 37.7303 37.5137 33.9737C37.4903 28.8403 33.0803 27.067 28.9737 25.9937Z" fill="#F56EAC"/>
</svg>
