<svg width="48" height="48" viewBox="0 0 48 48" fill="none" xmlns="http://www.w3.org/2000/svg">
<path d="M38.8597 25.9601C38.9397 25.3201 38.9997 24.6801 38.9997 24.0001C38.9997 23.3201 38.9397 22.6801 38.8597 22.0401L43.0797 18.7401C43.4597 18.4401 43.5597 17.9001 43.3197 17.4601L39.3197 10.5401C39.2018 10.3337 39.0142 10.1761 38.7907 10.0955C38.5671 10.0148 38.3221 10.0165 38.0997 10.1001L33.1197 12.1001C32.0797 11.3001 30.9597 10.6401 29.7397 10.1401L28.9797 4.84005C28.9458 4.60509 28.8277 4.39042 28.6475 4.23593C28.4673 4.08143 28.2371 3.99762 27.9997 4.00005H19.9997C19.4997 4.00005 19.0797 4.36005 19.0197 4.84005L18.2597 10.1401C17.0397 10.6401 15.9197 11.3201 14.8797 12.1001L9.89968 10.1001C9.78344 10.0618 9.66204 10.0416 9.53968 10.0401C9.19968 10.0401 8.85968 10.2201 8.67968 10.5401L4.67968 17.4601C4.41968 17.9001 4.53968 18.4401 4.91968 18.7401L9.13968 22.0401C9.05968 22.6801 8.99968 23.3401 8.99968 24.0001C8.99968 24.6601 9.05968 25.3201 9.13968 25.9601L4.91968 29.2601C4.53968 29.5601 4.43968 30.1001 4.67968 30.5401L8.67968 37.4601C8.79758 37.6664 8.98512 37.824 9.20868 37.9046C9.43224 37.9853 9.67721 37.9836 9.89968 37.9001L14.8797 35.9001C15.9197 36.7001 17.0397 37.3601 18.2597 37.8601L19.0197 43.1601C19.0797 43.6401 19.4997 44.0001 19.9997 44.0001H27.9997C28.4997 44.0001 28.9197 43.6401 28.9797 43.1601L29.7397 37.8601C30.9597 37.3601 32.0797 36.6801 33.1197 35.9001L38.0997 37.9001C38.2197 37.9401 38.3397 37.9601 38.4597 37.9601C38.7997 37.9601 39.1397 37.7801 39.3197 37.4601L43.3197 30.5401C43.5597 30.1001 43.4597 29.5601 43.0797 29.2601L38.8597 25.9601ZM34.8997 22.5401C34.9797 23.1601 34.9997 23.5801 34.9997 24.0001C34.9997 24.4201 34.9597 24.8601 34.8997 25.4601L34.6197 27.7201L36.3997 29.1201L38.5597 30.8001L37.1597 33.2201L34.6197 32.2001L32.5397 31.3601L30.7397 32.7201C29.8797 33.3601 29.0597 33.8401 28.2397 34.1801L26.1197 35.0401L25.7997 37.3001L25.3997 40.0001H22.5997L22.2197 37.3001L21.8997 35.0401L19.7797 34.1801C18.9197 33.8201 18.1197 33.3601 17.3197 32.76L15.4997 31.3601L13.3797 32.2201L10.8397 33.2401L9.43968 30.8201L11.5997 29.1401L13.3797 27.7401L13.0997 25.4801C13.0397 24.8601 12.9997 24.4001 12.9997 24.0001C12.9997 23.6001 13.0397 23.1401 13.0997 22.5401L13.3797 20.2801L11.5997 18.8801L9.43968 17.2001L10.8397 14.7801L13.3797 15.8001L15.4597 16.6401L17.2597 15.2801C18.1197 14.6401 18.9397 14.1601 19.7597 13.8201L21.8797 12.9601L22.1997 10.7001L22.5997 8.00005H25.3797L25.7597 10.7001L26.0797 12.9601L28.1997 13.8201C29.0597 14.1801 29.8597 14.6401 30.6597 15.2401L32.4797 16.6401L34.5997 15.7801L37.1397 14.7601L38.5397 17.1801L36.3997 18.8801L34.6197 20.2801L34.8997 22.5401ZM23.9997 16.0001C19.5797 16.0001 15.9997 19.5801 15.9997 24.0001C15.9997 28.4201 19.5797 32.0001 23.9997 32.0001C28.4197 32.0001 31.9997 28.4201 31.9997 24.0001C31.9997 19.5801 28.4197 16.0001 23.9997 16.0001ZM23.9997 28.0001C21.7997 28.0001 19.9997 26.2001 19.9997 24.0001C19.9997 21.8001 21.7997 20.0001 23.9997 20.0001C26.1997 20.0001 27.9997 21.8001 27.9997 24.0001C27.9997 26.2001 26.1997 28.0001 23.9997 28.0001Z" fill="#0A1748"/>
</svg>
