<svg width="48" height="48" viewBox="0 0 48 48" fill="none" xmlns="http://www.w3.org/2000/svg">
<path d="M24.0005 44C26.2005 44 28.0005 42.2 28.0005 40H20.0005C20.0005 42.2 21.8005 44 24.0005 44ZM36.0005 32V22C36.0005 15.86 32.7405 10.72 27.0005 9.36V8C27.0005 6.34 25.6605 5 24.0005 5C22.3405 5 21.0005 6.34 21.0005 8V9.36C15.2805 10.72 12.0005 15.84 12.0005 22V32L8.00055 36V38H40.0005V36L36.0005 32ZM32.0005 34H16.0005V22C16.0005 17.04 19.0205 13 24.0005 13C28.9805 13 32.0005 17.04 32.0005 22V34ZM15.1605 8.16L12.3005 5.3C7.50055 8.96 4.34055 14.6 4.06055 21H8.06055C8.20294 18.4638 8.91522 15.9923 10.1444 13.7693C11.3737 11.5463 13.0882 9.62903 15.1605 8.16ZM39.9405 21H43.9405C43.6405 14.6 40.4805 8.96 35.7005 5.3L32.8605 8.16C34.924 9.63625 36.6309 11.5557 37.856 13.7774C39.0811 15.9992 39.7934 18.4671 39.9405 21Z" fill="#F56EAC"/>
</svg>
