<svg width="48" height="48" viewBox="0 0 48 48" fill="none" xmlns="http://www.w3.org/2000/svg">
<path d="M42 10H46V38H42V10ZM34 10H38V38H34V10ZM28 10H4C2.9 10 2 10.9 2 12V36C2 37.1 2.9 38 4 38H28C29.1 38 30 37.1 30 36V12C30 10.9 29.1 10 28 10ZM26 34H6V14H26V34Z" fill="#0A1748"/>
<path d="M16.0016 23.7805C18.1555 23.7805 19.9016 22.0344 19.9016 19.8805C19.9016 17.7266 18.1555 15.9805 16.0016 15.9805C13.8477 15.9805 12.1016 17.7266 12.1016 19.8805C12.1016 22.0344 13.8477 23.7805 16.0016 23.7805Z" fill="#0A1748"/>
<path d="M23.7788 30.6998C23.7788 28.0998 18.5987 26.7998 15.9987 26.7998C13.3987 26.7998 8.21875 28.0998 8.21875 30.6998V31.9998H23.7788V30.6998Z" fill="#0A1748"/>
</svg>
