<svg width="48" height="48" viewBox="0 0 48 48" fill="none" xmlns="http://www.w3.org/2000/svg">
<path d="M36 6H12C7.58 6 4 9.58 4 14C4 16.96 5.62 19.5 8 20.9V38C8 40.2 9.8 42 12 42H36C38.2 42 40 40.2 40 38V20.9C42.38 19.52 44 16.96 44 14C44 9.58 40.42 6 36 6ZM38 17.44L36 18.6V38H12V18.62L10.02 17.46C8.76 16.7 8 15.42 8 14C8 11.8 9.8 10 12 10H36C38.2 10 40 11.8 40 14C40 15.42 39.24 16.72 38 17.44Z" fill="#0A1748"/>
<path d="M25.419 18.58C25.019 18.2 24.519 18 23.999 18C23.479 18 22.979 18.2 22.579 18.58L16.579 24.58C16.3936 24.765 16.2465 24.9848 16.1462 25.2268C16.0458 25.4687 15.9941 25.7281 15.9941 25.99C15.9941 26.2519 16.0458 26.5113 16.1462 26.7532C16.2465 26.9952 16.3936 27.215 16.579 27.4L22.579 33.4C22.979 33.8 23.479 34 23.999 34C24.519 34 25.019 33.8 25.419 33.42L31.419 27.42C31.6044 27.235 31.7515 27.0152 31.8519 26.7732C31.9523 26.5313 32.0039 26.2719 32.0039 26.01C32.0039 25.7481 31.9523 25.4887 31.8519 25.2468C31.7515 25.0048 31.6044 24.785 31.419 24.6L25.419 18.58ZM23.999 29.16L20.819 26L23.999 22.82L27.179 26L23.999 29.16Z" fill="#0A1748"/>
</svg>
