<svg width="49" height="48" viewBox="0 0 49 48" fill="none" xmlns="http://www.w3.org/2000/svg">
<path d="M22.332 36H26.332V32H22.332V36ZM24.332 4C13.292 4 4.33203 12.96 4.33203 24C4.33203 35.04 13.292 44 24.332 44C35.372 44 44.332 35.04 44.332 24C44.332 12.96 35.372 4 24.332 4ZM24.332 40C15.512 40 8.33203 32.82 8.33203 24C8.33203 15.18 15.512 8 24.332 8C33.152 8 40.332 15.18 40.332 24C40.332 32.82 33.152 40 24.332 40ZM24.332 12C19.912 12 16.332 15.58 16.332 20H20.332C20.332 17.8 22.132 16 24.332 16C26.532 16 28.332 17.8 28.332 20C28.332 24 22.332 23.5 22.332 30H26.332C26.332 25.5 32.332 25 32.332 20C32.332 15.58 28.752 12 24.332 12Z" fill="#0A1748"/>
</svg>
