<svg width="48" height="49" viewBox="0 0 48 49" fill="none" xmlns="http://www.w3.org/2000/svg">
<path d="M43.3397 36.8402L32.7397 26.2402H30.7597L25.6797 31.3202V33.3002L36.2797 43.9002C37.0597 44.6802 38.3197 44.6802 39.0997 43.9002L43.3397 39.6602C43.5251 39.4752 43.6722 39.2554 43.7726 39.0135C43.8729 38.7715 43.9246 38.5122 43.9246 38.2502C43.9246 37.9883 43.8729 37.7289 43.7726 37.487C43.6722 37.245 43.5251 37.0253 43.3397 36.8402ZM37.6797 39.6802L29.1997 31.2002L30.6197 29.7802L39.0997 38.2602L37.6797 39.6802Z" fill="#0A1748"/>
<path d="M34.68 20.88L37.5 18.06L41.74 22.3C42.8636 21.175 43.4947 19.65 43.4947 18.06C43.4947 16.47 42.8636 14.945 41.74 13.82L34.66 6.74L31.84 9.56V3.92L30.44 2.5L23.36 9.58L24.78 11H30.44L27.62 13.82L29.74 15.94L23.96 21.72L15.7 13.46V10.62L9.66 4.58L4 10.24L10.06 16.3H12.88L21.14 24.56L19.44 26.26H15.2L4.6 36.86C4.41459 37.045 4.2675 37.2648 4.16713 37.5068C4.06677 37.7487 4.01511 38.0081 4.01511 38.27C4.01511 38.5319 4.06677 38.7913 4.16713 39.0332C4.2675 39.2752 4.41459 39.495 4.6 39.68L8.84 43.92C9.62 44.7 10.88 44.7 11.66 43.92L22.26 33.32V29.08L32.56 18.78L34.68 20.88ZM18.72 31.18L10.24 39.66L8.82 38.24L17.3 29.76L18.72 31.18Z" fill="#0A1748"/>
</svg>
