<svg width="24" height="24" viewBox="0 0 24 24" fill="none" xmlns="http://www.w3.org/2000/svg">
<path d="M20.0001 9V6H18.0001V9H15.0001V11H18.0001V14H20.0001V11H23.0001V9H20.0001ZM9.00006 12C11.2101 12 13.0001 10.21 13.0001 8C13.0001 5.79 11.2101 4 9.00006 4C6.79006 4 5.00006 5.79 5.00006 8C5.00006 10.21 6.79006 12 9.00006 12ZM9.00006 6C10.1001 6 11.0001 6.9 11.0001 8C11.0001 9.1 10.1001 10 9.00006 10C7.90006 10 7.00006 9.1 7.00006 8C7.00006 6.9 7.90006 6 9.00006 6ZM15.3901 14.56C13.7101 13.7 11.5301 13 9.00006 13C6.47007 13 4.29006 13.7 2.61006 14.56C2.12212 14.8113 1.71337 15.1929 1.42916 15.6625C1.14496 16.132 0.996435 16.6712 1.00006 17.22V20H17.0001V17.22C17.0001 16.1 16.3901 15.07 15.3901 14.56ZM15.0001 18H3.00007V17.22C3.00007 16.84 3.20007 16.5 3.52007 16.34C4.71007 15.73 6.63006 15 9.00006 15C11.3701 15 13.2901 15.73 14.4801 16.34C14.8001 16.5 15.0001 16.84 15.0001 17.22V18Z" fill="#0A1748"/>
</svg>
