<svg width="48" height="48" viewBox="0 0 48 48" fill="none" xmlns="http://www.w3.org/2000/svg">
<path d="M14.12 17.88L10 16L14.12 14.12L16 10L17.88 14.12L22 16L17.88 17.88L16 22L14.12 17.88ZM16 42L17.88 37.88L22 36L17.88 34.12L16 30L14.12 34.12L10 36L14.12 37.88L16 42ZM8.74 24.74L6 26L8.74 27.26L10 30L11.26 27.26L14 26L11.26 24.74L10 22L8.74 24.74ZM24 24C24 17.82 26.76 12.12 30.88 8H24V4H38V18H34V10.56C30.4 14.04 28 18.96 28 24C28 30.64 32.2 36.72 38 39.64V44C29.82 40.82 24 32.7 24 24ZM48 28H44V24H40V28H36V32H40V36H44V32H48V28Z" fill="#0A1748"/>
</svg>
