<svg width="49" height="48" viewBox="0 0 49 48" fill="none" xmlns="http://www.w3.org/2000/svg">
<path d="M6.5 10H2.5V42C2.5 44.2 4.3 46 6.5 46H38.5V42H6.5V10ZM42.5 2H14.5C12.3 2 10.5 3.8 10.5 6V34C10.5 36.2 12.3 38 14.5 38H42.5C44.7 38 46.5 36.2 46.5 34V6C46.5 3.8 44.7 2 42.5 2ZM42.5 34H14.5V6H42.5V34ZM34.5 26H26.5V22H30.5C31.5609 22 32.5783 21.5786 33.3284 20.8284C34.0786 20.0783 34.5 19.0609 34.5 18V14C34.5 12.9391 34.0786 11.9217 33.3284 11.1716C32.5783 10.4214 31.5609 10 30.5 10H22.5V14H30.5V18H26.5C25.4391 18 24.4217 18.4214 23.6716 19.1716C22.9214 19.9217 22.5 20.9391 22.5 22V30H34.5V26Z" fill="#0A1748"/>
</svg>
