<svg width="48" height="48" viewBox="0 0 48 48" fill="none" xmlns="http://www.w3.org/2000/svg">
<path d="M34 36H14V12H34V14H38V6C38 3.8 36.2 2 34 2H14C11.8 2 10 3.8 10 6V42C10 44.2 11.8 46 14 46H34C36.2 46 38 44.2 38 42V34H34V36ZM14 6H34V8H14V6ZM34 42H14V40H34V42ZM40.76 19.24L42 22L43.24 19.24L46 18L43.24 16.76L42 14L40.76 16.76L38 18L40.76 19.24Z" fill="#0A1748"/>
<path d="M32 16L29.5 21.5L24 24L29.5 26.5L32 32L34.5 26.5L40 24L34.5 21.5L32 16ZM42 26L40.76 28.76L38 30L40.76 31.24L42 34L43.24 31.24L46 30L43.24 28.76L42 26Z" fill="#0A1748"/>
</svg>
