<svg width="48" height="49" viewBox="0 0 48 49" fill="none" xmlns="http://www.w3.org/2000/svg">
<path d="M24 13.5C27.6775 13.4878 31.2837 14.5136 34.4042 16.4595C37.5247 18.4053 40.0328 21.1923 41.64 24.5C38.34 31.24 31.6 35.5 24 35.5C16.4 35.5 9.66 31.24 6.36 24.5C7.96724 21.1923 10.4753 18.4053 13.5958 16.4595C16.7163 14.5136 20.3225 13.4878 24 13.5ZM24 9.5C14 9.5 5.46 15.72 2 24.5C5.46 33.28 14 39.5 24 39.5C34 39.5 42.54 33.28 46 24.5C42.54 15.72 34 9.5 24 9.5ZM24 19.5C25.3261 19.5 26.5979 20.0268 27.5355 20.9645C28.4732 21.9021 29 23.1739 29 24.5C29 25.8261 28.4732 27.0979 27.5355 28.0355C26.5979 28.9732 25.3261 29.5 24 29.5C22.6739 29.5 21.4021 28.9732 20.4645 28.0355C19.5268 27.0979 19 25.8261 19 24.5C19 23.1739 19.5268 21.9021 20.4645 20.9645C21.4021 20.0268 22.6739 19.5 24 19.5ZM24 15.5C19.04 15.5 15 19.54 15 24.5C15 29.46 19.04 33.5 24 33.5C28.96 33.5 33 29.46 33 24.5C33 19.54 28.96 15.5 24 15.5Z" fill="#F56EAC"/>
</svg>
