<svg width="48" height="48" viewBox="0 0 48 48" fill="none" xmlns="http://www.w3.org/2000/svg">
<path d="M20.5 26C20.5 26.663 20.2366 27.2989 19.7678 27.7678C19.2989 28.2366 18.663 28.5 18 28.5C17.337 28.5 16.7011 28.2366 16.2322 27.7678C15.7634 27.2989 15.5 26.663 15.5 26C15.5 25.337 15.7634 24.7011 16.2322 24.2322C16.7011 23.7634 17.337 23.5 18 23.5C18.663 23.5 19.2989 23.7634 19.7678 24.2322C20.2366 24.7011 20.5 25.337 20.5 26ZM30 23.5C29.337 23.5 28.7011 23.7634 28.2322 24.2322C27.7634 24.7011 27.5 25.337 27.5 26C27.5 26.663 27.7634 27.2989 28.2322 27.7678C28.7011 28.2366 29.337 28.5 30 28.5C30.663 28.5 31.2989 28.2366 31.7678 27.7678C32.2366 27.2989 32.5 26.663 32.5 26C32.5 25.337 32.2366 24.7011 31.7678 24.2322C31.2989 23.7634 30.663 23.5 30 23.5ZM44 24C44 35.04 35.04 44 24 44C12.96 44 4 35.04 4 24C4 12.96 12.96 4 24 4C35.04 4 44 12.96 44 24ZM21.32 8.24C24.12 12.88 29.2 16 35 16C35.92 16 36.82 15.9 37.68 15.76C34.88 11.12 29.8 8 24 8C23.08 8 22.18 8.1 21.32 8.24ZM8.84 18.94C12.2907 16.9829 14.8973 13.8207 16.16 10.06C12.7093 12.0171 10.1027 15.1793 8.84 18.94ZM40 24C40 22.44 39.76 20.94 39.34 19.52C37.94 19.82 36.5 20 35 20C32.0272 20.0006 29.0917 19.3386 26.4069 18.0619C23.7222 16.7853 21.3558 14.9262 19.48 12.62C18.4294 15.1582 16.8682 17.4534 14.8934 19.3629C12.9185 21.2723 10.5721 22.7554 8 23.72C8.02 23.8 8 23.9 8 24C8 32.82 15.18 40 24 40C32.82 40 40 32.82 40 24Z" fill="#0A1748"/>
</svg>
