<svg width="48" height="48" viewBox="0 0 48 48" fill="none" xmlns="http://www.w3.org/2000/svg">
<path d="M5.05971 39.3L7.73971 40.42V22.36L2.87971 34.08C2.05971 36.12 3.03971 38.46 5.05971 39.3ZM44.0597 31.9L34.1397 7.96C33.8385 7.24407 33.3363 6.63073 32.6938 6.19417C32.0514 5.7576 31.2963 5.51649 30.5197 5.5C29.9997 5.5 29.4597 5.58 28.9397 5.8L14.1997 11.9C13.2269 12.307 12.4543 13.0817 12.0498 14.0556C11.6452 15.0294 11.6416 16.1235 12.0397 17.1L21.9597 41.04C22.3668 42.0128 23.1414 42.7854 24.1153 43.19C25.0891 43.5945 26.1832 43.5981 27.1597 43.2L41.8797 37.1C42.8582 36.6993 43.6375 35.9264 44.0463 34.9513C44.4551 33.9762 44.4599 32.8787 44.0597 31.9ZM25.6597 39.5L15.7397 15.58L30.4397 9.5H30.4597L40.3597 33.4L25.6597 39.5Z" fill="#0A1748"/>
<path d="M22 20C23.1046 20 24 19.1046 24 18C24 16.8954 23.1046 16 22 16C20.8954 16 20 16.8954 20 18C20 19.1046 20.8954 20 22 20Z" fill="#0A1748"/>
<path d="M11.7598 39.4999C11.7598 41.6999 13.5598 43.4999 15.7598 43.4999H18.6598L11.7598 26.8199V39.4999Z" fill="#0A1748"/>
</svg>
