<svg width="48" height="48" viewBox="0 0 48 48" fill="none" xmlns="http://www.w3.org/2000/svg">
<path d="M28 24C28 21.8 26.2 20 24 20C21.8 20 20 21.8 20 24C20 26.2 21.8 28 24 28C26.2 28 28 26.2 28 24ZM24 6C19.2261 6 14.6477 7.89642 11.2721 11.2721C7.89642 14.6477 6 19.2261 6 24H0L8 32L16 24H10C10 16.26 16.26 10 24 10C31.74 10 38 16.26 38 24C38.0027 26.5716 37.2966 29.0942 35.9592 31.2906C34.6218 33.487 32.7048 35.2724 30.419 36.4504C28.1331 37.6285 25.5668 38.1537 23.0019 37.9684C20.437 37.7831 17.9728 36.8944 15.88 35.4L13.04 38.28C15.3093 40.0214 17.9609 41.1969 20.7751 41.7091C23.5894 42.2213 26.4851 42.0554 29.2224 41.2252C31.9598 40.395 34.4598 38.9244 36.5154 36.9352C38.571 34.946 40.1229 32.4956 41.0425 29.7871C41.9622 27.0785 42.2231 24.1897 41.8036 21.3602C41.384 18.5307 40.2962 15.8419 38.6303 13.5166C36.9643 11.1914 34.7682 9.29666 32.2239 7.98947C29.6796 6.68229 26.8604 6.00029 24 6Z" fill="#F56EAC"/>
</svg>
