<svg width="32" height="32" viewBox="0 0 32 32" fill="none" xmlns="http://www.w3.org/2000/svg">
<path d="M16.0003 2.6665C8.64033 2.6665 2.66699 8.63984 2.66699 15.9998C2.66699 23.3598 8.64033 29.3332 16.0003 29.3332C23.3603 29.3332 29.3337 23.3598 29.3337 15.9998C29.3337 8.63984 23.3603 2.6665 16.0003 2.6665ZM16.0003 26.6665C10.1203 26.6665 5.33366 21.8798 5.33366 15.9998C5.33366 10.1198 10.1203 5.33317 16.0003 5.33317C21.8803 5.33317 26.667 10.1198 26.667 15.9998C26.667 21.8798 21.8803 26.6665 16.0003 26.6665ZM16.4137 14.8532C14.0537 14.2532 13.2937 13.5998 13.2937 12.6265C13.2937 11.5065 14.347 10.7198 16.0937 10.7198C17.9337 10.7198 18.627 11.5998 18.6803 12.9065H20.9603C20.8937 11.1198 19.8003 9.47984 17.6403 8.9465V6.6665H14.5337V8.91984C12.5203 9.3465 10.907 10.6532 10.907 12.6665C10.907 15.0532 12.8937 16.2532 15.787 16.9465C18.387 17.5598 18.907 18.4798 18.907 19.4398C18.907 20.1465 18.387 21.2932 16.107 21.2932C13.9737 21.2932 13.1337 20.3332 13.0137 19.1065H10.7203C10.8537 21.3732 12.5337 22.6532 14.5337 23.0665V25.3332H17.6537V23.1065C19.6803 22.7198 21.2803 21.5598 21.2937 19.4132C21.2803 16.4798 18.7603 15.4665 16.4137 14.8532Z" fill="#0A1748"/>
</svg>
