<svg width="48" height="48" viewBox="0 0 48 48" fill="none" xmlns="http://www.w3.org/2000/svg">
<path d="M28 24C28 25.48 27.2 26.76 26 27.44V44H22V27.44C20.8 26.74 20 25.48 20 24C20 21.8 21.8 20 24 20C26.2 20 28 21.8 28 24ZM24 12C17.38 12 12 17.38 12 24C12 27.48 13.5 30.62 15.88 32.8L18.72 29.96C17.8677 29.2181 17.184 28.3024 16.7149 27.2744C16.2457 26.2464 16.002 25.13 16 24C16 19.58 19.58 16 24 16C28.42 16 32 19.58 32 24C32 26.38 30.94 28.5 29.28 29.96L32.12 32.8C33.3425 31.6831 34.3189 30.3238 34.9869 28.8087C35.6549 27.2936 36 25.6559 36 24C36 17.38 30.62 12 24 12ZM24 4C12.96 4 4 12.96 4 24C4 29.7 6.4 34.82 10.22 38.48L13.06 35.64C11.4672 34.1476 10.1966 32.345 9.32644 30.3432C8.45625 28.3414 8.00484 26.1827 8 24C8 15.18 15.18 8 24 8C32.82 8 40 15.18 40 24C40 28.58 38.04 32.72 34.94 35.64L37.78 38.48C41.6 34.82 44 29.7 44 24C44 12.96 35.04 4 24 4Z" fill="#0A1748"/>
</svg>
