<svg width="49" height="48" viewBox="0 0 49 48" fill="none" xmlns="http://www.w3.org/2000/svg">
<path d="M18.334 26C22.754 26 26.334 22.42 26.334 18C26.334 13.58 22.754 10 18.334 10C13.914 10 10.334 13.58 10.334 18C10.334 22.42 13.914 26 18.334 26ZM18.334 14C20.534 14 22.334 15.8 22.334 18C22.334 20.2 20.534 22 18.334 22C16.134 22 14.334 20.2 14.334 18C14.334 15.8 16.134 14 18.334 14ZM18.334 30C12.994 30 2.33398 32.68 2.33398 38V42H34.334V38C34.334 32.68 23.674 30 18.334 30ZM6.33398 38C6.77398 36.56 12.954 34 18.334 34C23.734 34 29.934 36.58 30.334 38H6.33398ZM30.494 14.1C32.174 16.46 32.174 19.52 30.494 21.88L33.854 25.26C37.894 21.22 37.894 15.12 33.854 10.72L30.494 14.1ZM40.474 4L37.214 7.26C42.754 13.3 42.754 22.38 37.214 28.74L40.474 32C48.274 24.22 48.294 12.1 40.474 4Z" fill="#0A1748"/>
</svg>
