<svg width="48" height="49" viewBox="0 0 48 49" fill="none" xmlns="http://www.w3.org/2000/svg">
<path d="M25.78 22.7C22.22 21.52 20.5 20.78 20.5 18.9C20.5 16.86 22.72 16.12 24.12 16.12C26.74 16.12 27.7 18.1 27.92 18.8L31.08 17.46C30.78 16.56 29.44 13.62 26 12.98V10.5H22V13.02C17.04 14.14 17.02 18.74 17.02 18.94C17.02 23.48 21.52 24.76 23.72 25.56C26.88 26.68 28.28 27.7 28.28 29.62C28.28 31.88 26.18 32.84 24.32 32.84C20.68 32.84 19.64 29.1 19.52 28.66L16.2 30C17.46 34.38 20.76 35.56 22 35.92V38.5H26V36.02C26.8 35.84 31.8 34.84 31.8 29.58C31.8 26.8 30.58 24.36 25.78 22.7ZM6 42.5H2V30.5H14V34.5H9.04C12.26 39.32 17.76 42.5 24 42.5C28.7739 42.5 33.3523 40.6036 36.7279 37.2279C40.1036 33.8523 42 29.2739 42 24.5H46C46 36.66 36.16 46.5 24 46.5C16.56 46.5 9.98 42.8 6 37.16V42.5ZM2 24.5C2 12.34 11.84 2.5 24 2.5C31.44 2.5 38.02 6.2 42 11.84V6.5H46V18.5H34V14.5H38.96C35.74 9.68 30.24 6.5 24 6.5C19.2261 6.5 14.6477 8.39642 11.2721 11.7721C7.89642 15.1477 6 19.7261 6 24.5H2Z" fill="#2C9D81"/>
</svg>
