<svg width="48" height="49" viewBox="0 0 48 49" fill="none" xmlns="http://www.w3.org/2000/svg">
<path d="M40.38 8.5H8C5.8 8.5 4.02 10.3 4.02 12.5V20.5C6.22 20.5 8 22.3 8 24.5C8 26.7 6.22 28.5 4 28.5V36.5C4 38.7 5.8 40.5 8 40.5H40C42.2 40.5 44 38.7 44 36.5V12.5C44 10.3 42.38 8.5 40.38 8.5ZM40 36.5H8V31.42C10.38 30.04 12 27.44 12 24.5C12 21.54 10.4 18.96 8.02 17.58L8 12.5H40V36.5ZM17.74 31.82L14.42 26.06L16.28 25.56L18.8 27.54L23.58 26.26L18.78 17.94L21.58 17.18L29.6 24.66L34.48 23.36C34.9732 23.2296 35.498 23.2993 35.94 23.5541C36.3821 23.8088 36.7055 24.2279 36.84 24.72C36.9633 25.2182 36.8883 25.7448 36.6309 26.1888C36.3734 26.6328 35.9536 26.9595 35.46 27.1L17.74 31.82Z" fill="#0A1748"/>
</svg>
