<svg width="48" height="48" viewBox="0 0 48 48" fill="none" xmlns="http://www.w3.org/2000/svg">
<path d="M24 4C12.96 4 4 12.96 4 24C4 35.04 12.96 44 24 44C35.04 44 44 35.04 44 24C44 12.96 35.04 4 24 4ZM38.92 18.24L33.36 20.54C32.8593 19.1921 32.0727 17.9686 31.0542 16.9536C30.0357 15.9386 28.8096 15.1561 27.46 14.66L29.76 9.1C33.96 10.7 37.3 14.04 38.92 18.24ZM24 30C20.68 30 18 27.32 18 24C18 20.68 20.68 18 24 18C27.32 18 30 20.68 30 24C30 27.32 27.32 30 24 30ZM18.26 9.08L20.6 14.64C19.2346 15.1376 17.9941 15.9268 16.9648 16.9526C15.9355 17.9785 15.1422 19.2163 14.64 20.58L9.08 18.26C9.88154 16.172 11.113 14.2759 12.6944 12.6944C14.2759 11.113 16.172 9.88154 18.26 9.08ZM9.08 29.74L14.64 27.44C15.1389 28.8 15.9291 30.0345 16.9551 31.0571C17.9812 32.0797 19.2183 32.8657 20.58 33.36L18.24 38.92C16.157 38.1139 14.2658 36.8807 12.6882 35.2996C11.1106 33.7186 9.88151 31.8247 9.08 29.74ZM29.76 38.92L27.46 33.36C28.8156 32.8574 30.0456 32.0658 31.0644 31.04C32.0833 30.0143 32.8666 28.779 33.36 27.42L38.92 29.76C38.1161 31.8411 36.886 33.731 35.3085 35.3085C33.731 36.886 31.8411 38.1161 29.76 38.92Z" fill="#0A1748"/>
</svg>
