<svg width="48" height="48" viewBox="0 0 48 48" fill="none" xmlns="http://www.w3.org/2000/svg">
<path d="M42.5801 27.8L36.0001 24L42.5801 20.2C43.5401 19.64 43.8601 18.42 43.3201 17.46L39.3201 10.54C39.0524 10.0812 38.6148 9.74622 38.102 9.60771C37.5891 9.46921 37.0424 9.53829 36.5801 9.8L30.0001 13.6V6C30.0001 4.9 29.1001 4 28.0001 4H20.0001C18.9001 4 18.0001 4.9 18.0001 6V13.6L11.4201 9.8C10.9578 9.53829 10.4111 9.46921 9.89825 9.60771C9.38542 9.74622 8.94778 10.0812 8.68011 10.54L4.68011 17.46C4.12011 18.42 4.46011 19.64 5.42011 20.2L12.0001 24L5.42011 27.8C4.46011 28.36 4.14011 29.58 4.68011 30.54L8.68011 37.46C9.24011 38.42 10.4601 38.74 11.4201 38.2L18.0001 34.4V42C18.0001 43.1 18.9001 44 20.0001 44H28.0001C29.1001 44 30.0001 43.1 30.0001 42V34.4L36.5801 38.2C37.5401 38.76 38.7601 38.42 39.3201 37.46L43.3201 30.54C43.8801 29.58 43.5401 28.36 42.5801 27.8ZM36.8601 33.74L27.5001 28.34C26.8401 27.94 26.0001 28.42 26.0001 29.2V40H22.0001V29.2C22.0001 28.44 21.1601 27.94 20.5001 28.34L11.1401 33.74L9.14011 30.28L18.5001 24.88C19.1601 24.5 19.1601 23.54 18.5001 23.14L9.14011 17.74L11.1401 14.28L20.5001 19.68C21.1601 20.06 22.0001 19.58 22.0001 18.8V8H26.0001V18.8C26.0001 19.56 26.8401 20.06 27.5001 19.66L36.8601 14.26L38.8601 17.72L29.5001 23.12C28.8401 23.5 28.8401 24.46 29.5001 24.86L38.8601 30.26L36.8601 33.74Z" fill="#F56EAC"/>
</svg>
