<svg width="48" height="48" viewBox="0 0 48 48" fill="none" xmlns="http://www.w3.org/2000/svg">
<path d="M24 4C15.16 4 8 5 8 12V32C8 33.76 8.78 35.34 10 36.44V40C10 41.1 10.9 42 12 42H14C15.1 42 16 41.1 16 40V38H32V40C32 41.1 32.9 42 34 42H36C37.1 42 38 41.1 38 40V36.44C39.22 35.34 40 33.76 40 32V12C40 5 32.84 4 24 4ZM35.32 9.98H12.68C13.78 8.92 16.62 8 24 8C31.38 8 34.22 8.92 35.32 9.98ZM36 13.98V20H12V13.98H36ZM35.32 33.46L34.74 34H13.26L12.68 33.46C12.4687 33.2795 12.2986 33.0558 12.1813 32.8039C12.064 32.552 12.0022 32.2779 12 32V24H36V32C36 32.74 35.58 33.24 35.32 33.46Z" fill="#0A1748"/>
<path d="M17 32C18.6569 32 20 30.6569 20 29C20 27.3431 18.6569 26 17 26C15.3431 26 14 27.3431 14 29C14 30.6569 15.3431 32 17 32Z" fill="#0A1748"/>
<path d="M31 32C32.6569 32 34 30.6569 34 29C34 27.3431 32.6569 26 31 26C29.3431 26 28 27.3431 28 29C28 30.6569 29.3431 32 31 32Z" fill="#0A1748"/>
</svg>
