<svg width="48" height="48" viewBox="0 0 48 48" fill="none" xmlns="http://www.w3.org/2000/svg">
<path d="M24 4C12.96 4 4 12.96 4 24C4 35.04 12.96 44 24 44C35.04 44 44 35.04 44 24C44 12.96 35.04 4 24 4ZM24 40C15.18 40 8 32.82 8 24C8 15.18 15.18 8 24 8C32.82 8 40 15.18 40 24C40 32.82 32.82 40 24 40Z" fill="#0A1748"/>
<path d="M24 38C25.66 38 27 36.66 27 35H21C21 36.66 22.34 38 24 38ZM18 30H30V33H18V30ZM24 10C18.48 10 14 14.48 14 20C14 23.28 15.6 26.18 18.06 28H29.96C31.2105 27.0738 32.227 25.868 32.9285 24.479C33.63 23.09 33.9969 21.5561 34 20C34 14.48 29.52 10 24 10ZM28.86 25H19.14C18.465 24.3536 17.9275 23.5775 17.5598 22.7184C17.1921 21.8592 17.0017 20.9346 17 20C17 16.14 20.14 13 24 13C27.86 13 31 16.14 31 20C31 21.9 30.22 23.68 28.86 25Z" fill="#0A1748"/>
</svg>
