<svg width="49" height="48" viewBox="0 0 49 48" fill="none" xmlns="http://www.w3.org/2000/svg">
<path d="M14.5 10L6.5 14V6L14.5 10ZM36.5 6V14L44.5 10L36.5 6ZM22.5 4V12L30.5 8L22.5 4ZM26.5 36H22.5V44C12.4 43.7 4.5 41.12 4.5 38V20C4.5 16.68 13.46 14 24.5 14C35.54 14 44.5 16.68 44.5 20V38C44.5 41.12 36.6 43.7 26.5 44V36ZM10.5 20.08C13.26 21.06 18.04 22 24.5 22C30.96 22 35.74 21.06 38.5 20.08C38.5 19.72 32.94 18 24.5 18C16.06 18 10.5 19.72 10.5 20.08ZM40.5 23.6C36.86 25.06 31.04 26 24.5 26C17.96 26 12.14 25.06 8.5 23.6V37.16C9.72 37.98 13.22 39.18 18.5 39.72V32H30.5V39.72C35.78 39.18 39.28 37.98 40.5 37.16V23.6Z" fill="#0A1748"/>
</svg>
