<svg width="48" height="48" viewBox="0 0 48 48" fill="none" xmlns="http://www.w3.org/2000/svg">
<path d="M40.7603 17.1402L38.3003 20.8402C39.4867 23.2064 40.0675 25.8299 39.9907 28.4757C39.9139 31.1215 39.1819 33.7069 37.8603 36.0002H10.1403C8.42268 33.0205 7.71093 29.5665 8.11062 26.1504C8.51032 22.7343 10.0002 19.5379 12.3593 17.0351C14.7184 14.5323 17.8213 12.8563 21.2078 12.2556C24.5944 11.6549 28.0843 12.1615 31.1603 13.7002L34.8603 11.2402C31.0933 8.82467 26.625 7.74225 22.1701 8.16612C17.7153 8.58998 13.5312 10.4956 10.2873 13.5783C7.04343 16.6609 4.92707 20.7424 4.27678 25.1699C3.62649 29.5974 4.47985 34.115 6.70034 38.0002C7.04937 38.6048 7.55052 39.1075 8.15401 39.4583C8.75749 39.8092 9.44229 39.996 10.1403 40.0002H37.8403C38.5452 40.003 39.2382 39.8195 39.8494 39.4683C40.4605 39.1171 40.9679 38.6107 41.3203 38.0002C43.1631 34.8081 44.0879 31.1688 43.9926 27.4841C43.8973 23.7995 42.7856 20.2129 40.7803 17.1202L40.7603 17.1402Z" fill="#0A1748"/>
<path d="M21.181 30.8198C21.5525 31.1917 21.9936 31.4868 22.4792 31.6881C22.9648 31.8894 23.4853 31.993 24.011 31.993C24.5366 31.993 25.0571 31.8894 25.5427 31.6881C26.0283 31.4868 26.4695 31.1917 26.841 30.8198L38.161 13.8398L21.181 25.1598C20.8091 25.5313 20.514 25.9725 20.3127 26.4581C20.1114 26.9437 20.0078 27.4642 20.0078 27.9898C20.0078 28.5155 20.1114 29.036 20.3127 29.5216C20.514 30.0072 20.8091 30.4484 21.181 30.8198Z" fill="#0A1748"/>
</svg>
