<svg width="48" height="49" viewBox="0 0 48 49" fill="none" xmlns="http://www.w3.org/2000/svg">
<path d="M42 15.06V10.5C42 8.3 40.2 6.5 38 6.5H10C8.93913 6.5 7.92172 6.92143 7.17157 7.67157C6.42143 8.42172 6 9.43913 6 10.5V38.5C6 39.5609 6.42143 40.5783 7.17157 41.3284C7.92172 42.0786 8.93913 42.5 10 42.5H38C40.2 42.5 42 40.7 42 38.5V33.94C42.6046 33.591 43.1072 33.0898 43.4581 32.4863C43.809 31.8829 43.9958 31.1981 44 30.5V18.5C43.9958 17.8019 43.809 17.1171 43.4581 16.5137C43.1072 15.9102 42.6046 15.409 42 15.06ZM40 18.5V30.5H26V18.5H40ZM10 38.5V10.5H38V14.5H26C23.8 14.5 22 16.3 22 18.5V30.5C22 32.7 23.8 34.5 26 34.5H38V38.5H10Z" fill="#0A1748"/>
<path d="M32 27.5C33.6569 27.5 35 26.1569 35 24.5C35 22.8431 33.6569 21.5 32 21.5C30.3431 21.5 29 22.8431 29 24.5C29 26.1569 30.3431 27.5 32 27.5Z" fill="#0A1748"/>
</svg>
