<svg width="48" height="48" viewBox="0 0 48 48" fill="none" xmlns="http://www.w3.org/2000/svg">
<path d="M36 24.44V18L26 13V10H30V6H26V2H22V6H18V10H22V13L12 18V24.44L4 28V44H22V36C22 34.9 22.9 34 24 34C25.1 34 26 34.9 26 36V44H44V28L36 24.44ZM40 40H30V35.92C30 32.54 27.3 29.8 24 29.8C20.7 29.8 18 32.54 18 35.92V40H8V30.42L16 26.8V20.1L24 16L32 20.08V26.78L40 30.4V40Z" fill="#F56EAC"/>
<path d="M24 27C25.6569 27 27 25.6569 27 24C27 22.3431 25.6569 21 24 21C22.3431 21 21 22.3431 21 24C21 25.6569 22.3431 27 24 27Z" fill="#F56EAC"/>
</svg>
