<svg width="48" height="48" viewBox="0 0 48 48" fill="none" xmlns="http://www.w3.org/2000/svg">
<path d="M26 4V20H42C42 11.16 34.84 4 26 4ZM30 16V8.68C33.4 9.88 36.1 12.58 37.32 16H30ZM12.88 22L10.98 18H4V22H8.44C8.44 22 12.22 30.14 12.68 30.84C10.48 32.02 9 34.34 9 37C9 40.86 12.14 44 16 44C19.52 44 22.44 41.4 22.92 38H27.08C27.56 41.4 30.48 44 34 44C37.86 44 41 40.86 41 37C41 34.92 40.08 33.06 38.64 31.78C40.8185 28.9855 42.001 25.5433 42 22H12.88ZM16 40C14.34 40 13 38.66 13 37C13 35.34 14.34 34 16 34C17.66 34 19 35.34 19 37C19 38.66 17.66 40 16 40ZM34 40C32.34 40 31 38.66 31 37C31 35.34 32.34 34 34 34C35.66 34 37 35.34 37 37C37 38.66 35.66 40 34 40ZM35.48 29.32L34.9 30.06C33.4349 29.8723 31.948 30.1523 30.6514 30.8598C29.3548 31.5673 28.3149 32.6664 27.68 34H22.32C21.32 31.92 19.32 30.4 16.96 30.06L16.08 28.72C15.88 28.38 15.4 27.34 14.74 26H37.32C36.9 27.18 36.28 28.3 35.48 29.32Z" fill="#0A1748"/>
</svg>
