<svg width="48" height="48" viewBox="0 0 48 48" fill="none" xmlns="http://www.w3.org/2000/svg">
<path d="M22 34C22 35.1 22.9 36 24 36C25.1 36 26 35.1 26 34C26 32.9 25.1 32 24 32C22.9 32 22 32.9 22 34ZM22 6V14H26V10.16C32.78 11.14 38 16.94 38 24C38 31.74 31.74 38 24 38C16.26 38 10 31.74 10 24C10 20.64 11.18 17.56 13.16 15.16L24 26L26.82 23.18L13.22 9.58V9.62C8.84 12.9 6 18.1 6 24C6 33.94 14.04 42 24 42C28.7739 42 33.3523 40.1036 36.7279 36.7279C40.1036 33.3523 42 28.7739 42 24C42 19.2261 40.1036 14.6477 36.7279 11.2721C33.3523 7.89642 28.7739 6 24 6H22ZM36 24C36 22.9 35.1 22 34 22C32.9 22 32 22.9 32 24C32 25.1 32.9 26 34 26C35.1 26 36 25.1 36 24ZM12 24C12 25.1 12.9 26 14 26C15.1 26 16 25.1 16 24C16 22.9 15.1 22 14 22C12.9 22 12 22.9 12 24Z" fill="#0A1748"/>
</svg>
