<svg width="48" height="49" viewBox="0 0 48 49" fill="none" xmlns="http://www.w3.org/2000/svg">
<path d="M6.84 5.22L4.02 8.06L8.2 12.24C5.58 15.64 4 19.88 4 24.5C4 31.9 8.02 38.34 13.98 41.8L15.98 38.34C11.22 35.56 8 30.42 8 24.5C8 20.98 9.14 17.74 11.06 15.12L13.92 18C12.72 19.86 12 22.1 12 24.5C12 28.94 14.42 32.8 18 34.88L20 31.4C17.62 30 16 27.46 16 24.5C16 23.2 16.34 22 16.88 20.92L20.04 24.08L20 24.5C20 26.7 21.8 28.5 24 28.5L24.42 28.46L39.46 43.5L42.28 40.68L6.84 5.22ZM35.42 28.14C35.78 27 36 25.76 36 24.5C36 17.88 30.62 12.5 24 12.5C22.74 12.5 21.5 12.72 20.36 13.08L23.8 16.52C23.86 16.52 23.92 16.5 24 16.5C28.42 16.5 32 20.08 32 24.5C32 24.58 31.98 24.64 31.98 24.72L35.42 28.14ZM24 8.5C32.84 8.5 40 15.66 40 24.5C40 26.9 39.42 29.14 38.46 31.2L41.44 34.18C43.117 31.2294 43.9991 27.8939 44 24.5C44 13.46 35.04 4.5 24 4.5C20.48 4.5 17.2 5.46 14.32 7.06L17.28 10.02C19.32 9.06 21.6 8.5 24 8.5Z" fill="#0A1748"/>
</svg>
