<svg width="57" height="56" viewBox="0 0 57 56" fill="none" xmlns="http://www.w3.org/2000/svg">
<path d="M37.033 30.3337C38.783 30.3337 40.323 29.377 41.1163 27.9303L49.4697 12.787C49.6663 12.4333 49.7672 12.0344 49.7624 11.6298C49.7575 11.2252 49.6471 10.8288 49.442 10.4799C49.2369 10.1311 48.9443 9.84181 48.5931 9.64077C48.2419 9.43972 47.8443 9.33386 47.4397 9.33366H12.9063L10.713 4.66699H3.08301V9.33366H7.74967L16.1497 27.0437L12.9997 32.737C11.2963 35.8637 13.5363 39.667 17.083 39.667H45.083V35.0003H17.083L19.6497 30.3337H37.033ZM15.123 14.0003H43.473L37.033 25.667H20.653L15.123 14.0003ZM17.083 42.0003C14.5163 42.0003 12.4397 44.1003 12.4397 46.667C12.4397 49.2337 14.5163 51.3337 17.083 51.3337C19.6497 51.3337 21.7497 49.2337 21.7497 46.667C21.7497 44.1003 19.6497 42.0003 17.083 42.0003ZM40.4163 42.0003C37.8497 42.0003 35.773 44.1003 35.773 46.667C35.773 49.2337 37.8497 51.3337 40.4163 51.3337C42.983 51.3337 45.083 49.2337 45.083 46.667C45.083 44.1003 42.983 42.0003 40.4163 42.0003Z" fill="#F56EAC"/>
</svg>
