<svg width="48" height="49" viewBox="0 0 48 49" fill="none" xmlns="http://www.w3.org/2000/svg">
<path d="M34 24.5C28.48 24.5 24 28.98 24 34.5C24 40.02 28.48 44.5 34 44.5C39.52 44.5 44 40.02 44 34.5C44 28.98 39.52 24.5 34 24.5ZM37.3 39.2L33 34.9V28.5H35V34.08L38.7 37.78L37.3 39.2ZM36 6.5H29.64C28.8 4.18 26.6 2.5 24 2.5C21.4 2.5 19.2 4.18 18.36 6.5H12C9.8 6.5 8 8.3 8 10.5V40.5C8 42.7 9.8 44.5 12 44.5H24.22C23.0353 43.3528 22.0725 41.9967 21.38 40.5H12V10.5H16V16.5H32V10.5H36V20.66C37.42 20.86 38.76 21.28 40 21.86V10.5C40 8.3 38.2 6.5 36 6.5ZM24 10.5C22.9 10.5 22 9.6 22 8.5C22 7.4 22.9 6.5 24 6.5C25.1 6.5 26 7.4 26 8.5C26 9.6 25.1 10.5 24 10.5Z" fill="#0A1748"/>
</svg>
