<svg width="48" height="48" viewBox="0 0 48 48" fill="none" xmlns="http://www.w3.org/2000/svg">
<path d="M34.0017 33.2398C35.2388 33.2398 36.2417 32.2369 36.2417 30.9998C36.2417 29.7626 35.2388 28.7598 34.0017 28.7598C32.7646 28.7598 31.7617 29.7626 31.7617 30.9998C31.7617 32.2369 32.7646 33.2398 34.0017 33.2398Z" fill="#0A1748"/>
<path fill-rule="evenodd" clip-rule="evenodd" d="M33.9995 35C32.5395 35 29.6195 35.72 29.5195 37.16C30.5195 38.58 32.1595 39.5 33.9995 39.5C35.8395 39.5 37.4795 38.58 38.4795 37.16C38.3795 35.72 35.4595 35 33.9995 35Z" fill="#0A1748"/>
<path fill-rule="evenodd" clip-rule="evenodd" d="M36 22.18V12.54L21 6L6 12.54V22.36C6 31.44 12.4 39.94 21 42C22.1 41.74 23.16 41.36 24.2 40.9C25.3019 42.4766 26.7684 43.7636 28.4747 44.6516C30.181 45.5396 32.0765 46.0022 34 46C40.62 46 46 40.62 46 34C46 28.06 41.68 23.14 36 22.18ZM22 34C22 35.12 22.16 36.22 22.46 37.24C21.98 37.46 21.5 37.68 21 37.84C14.66 35.84 10 29.36 10 22.36V15.16L21 10.36L32 15.16V22.18C26.32 23.14 22 28.06 22 34ZM34 42C29.58 42 26 38.42 26 34C26 29.58 29.58 26 34 26C38.42 26 42 29.58 42 34C42 38.42 38.42 42 34 42Z" fill="#0A1748"/>
</svg>
