<svg width="48" height="48" viewBox="0 0 48 48" fill="none" xmlns="http://www.w3.org/2000/svg">
<path d="M40.3006 28.84C40.7606 27.3 41.0006 25.68 41.0006 24C41.0006 22.32 40.7606 20.7 40.3006 19.16C41.8606 17.96 42.3406 15.76 41.3206 14C40.3006 12.24 38.1606 11.54 36.3406 12.3C34.0784 9.91493 31.1754 8.23421 27.9806 7.46C27.7006 5.5 26.0206 4 24.0006 4C21.9806 4 20.3006 5.5 20.0406 7.46C16.8399 8.23385 13.9303 9.91433 11.6606 12.3C9.84059 11.54 7.70059 12.24 6.68059 14C5.66059 15.76 6.14059 17.96 7.70059 19.16C7.24059 20.7 7.00059 22.32 7.00059 24C7.00059 25.68 7.24059 27.3 7.70059 28.84C6.14059 30.04 5.66059 32.24 6.68059 34C7.70059 35.76 9.84059 36.46 11.6606 35.7C12.4606 36.54 13.3206 37.28 14.2606 37.94L11.5606 44H15.3206L17.2806 39.62C18.1606 40 19.0806 40.3 20.0406 40.54C20.3006 42.5 21.9806 44 24.0006 44C26.0206 44 27.7006 42.5 27.9606 40.54C28.8806 40.32 29.7806 40.02 30.6406 39.66L32.6006 44H36.3606L33.6806 38C34.6406 37.32 35.5406 36.56 36.3606 35.7C38.1806 36.46 40.3406 35.76 41.3406 34C42.3406 32.24 41.8606 30.04 40.3006 28.84ZM27.1206 37.5C26.3806 36.58 25.2606 36 24.0006 36C22.7406 36 21.6006 36.58 20.8606 37.5C20.0606 37.32 19.2806 37.08 18.5406 36.76L21.4006 30.38C23.0417 31.0355 24.8694 31.0498 26.5206 30.42L29.3606 36.78C28.6406 37.08 27.9006 37.32 27.1206 37.5ZM20.9606 24.04C20.9606 22.38 22.3006 21.04 23.9606 21.04C25.6206 21.04 26.9606 22.38 26.9606 24.04C26.9606 25.7 25.6206 27.04 23.9606 27.04C22.3006 27.04 20.9606 25.7 20.9606 24.04ZM37.4206 28.02C36.2006 28.16 35.0606 28.84 34.3806 30C33.7406 31.12 33.7006 32.4 34.1406 33.5C33.5806 34.08 32.9806 34.6 32.3406 35.08L29.3406 28.38C30.3206 27.2 30.9006 25.7 30.9006 24.06C30.9006 20.28 27.8006 17.24 23.9806 17.24C20.1606 17.24 17.0606 20.3 17.0606 24.06C17.0606 25.66 17.6206 27.14 18.5606 28.32L15.5206 35.1C14.9006 34.64 14.3206 34.14 13.7806 33.58C14.3006 32.46 14.2606 31.14 13.6006 30C12.9206 28.82 11.7406 28.12 10.4806 28.02C10.0406 26.66 9.82059 25.22 9.82059 23.72C9.82059 22.44 10.0006 21.2 10.3206 20.02C11.6406 19.96 12.9206 19.26 13.6206 18.02C14.3606 16.76 14.3206 15.26 13.6406 14.06C15.4806 12.1 17.8606 10.68 20.5406 10C21.2206 11.18 22.5206 12 24.0006 12C25.4806 12 26.7806 11.2 27.4606 10C30.1406 10.68 32.5206 12.14 34.3406 14.1C33.7006 15.28 33.6806 16.76 34.4006 18C35.1006 19.2 36.3206 19.9 37.6006 20C37.9206 21.18 38.1006 22.42 38.1006 23.72C38.1006 25.22 37.8606 26.66 37.4206 28.02Z" fill="#0A1748"/>
</svg>
