<svg width="56" height="56" viewBox="0 0 56 56" fill="none" xmlns="http://www.w3.org/2000/svg">
<path d="M46.667 13.9998H41.5803C41.837 13.2764 42.0003 12.4831 42.0003 11.6664C42.0028 10.161 41.5193 8.69501 40.6217 7.48648C39.7241 6.27795 38.4603 5.39146 37.0184 4.95889C35.5765 4.52631 34.0335 4.57076 32.6188 5.08561C31.2042 5.60047 29.9936 6.55823 29.167 7.81643L28.0003 9.37976L26.8337 7.7931C25.5737 5.92643 23.4503 4.66643 21.0003 4.66643C17.127 4.66643 14.0003 7.7931 14.0003 11.6664C14.0003 12.4831 14.1637 13.2764 14.4203 13.9998H9.33366C6.74366 13.9998 4.69033 16.0764 4.69033 18.6664L4.66699 44.3331C4.66699 46.9231 6.74366 48.9998 9.33366 48.9998H46.667C49.257 48.9998 51.3337 46.9231 51.3337 44.3331V18.6664C51.3337 16.0764 49.257 13.9998 46.667 13.9998ZM35.0003 9.3331C36.2837 9.3331 37.3337 10.3831 37.3337 11.6664C37.3337 12.9498 36.2837 13.9998 35.0003 13.9998C33.717 13.9998 32.667 12.9498 32.667 11.6664C32.667 10.3831 33.717 9.3331 35.0003 9.3331ZM21.0003 9.3331C22.2837 9.3331 23.3337 10.3831 23.3337 11.6664C23.3337 12.9498 22.2837 13.9998 21.0003 13.9998C19.717 13.9998 18.667 12.9498 18.667 11.6664C18.667 10.3831 19.717 9.3331 21.0003 9.3331ZM46.667 44.3331H9.33366V39.6664H46.667V44.3331ZM46.667 32.6664H9.33366V18.6664H21.187L16.3337 25.2698L20.1137 27.9998L28.0003 17.2664L35.887 27.9998L39.667 25.2698L34.8137 18.6664H46.667V32.6664Z" fill="#F56EAC"/>
</svg>
