<svg width="49" height="48" viewBox="0 0 49 48" fill="none" xmlns="http://www.w3.org/2000/svg">
<path d="M27.09 8L36.75 17.66V40H12.75V8H27.09ZM28.75 4H12.75C10.55 4 8.75 5.8 8.75 8V40C8.75 42.2 10.55 44 12.75 44H36.75C38.95 44 40.75 42.2 40.75 40V16L28.75 4ZM30.75 22H22.75V24H28.75C29.85 24 30.75 24.9 30.75 26V32C30.75 33.1 29.85 34 28.75 34H26.75V36H22.75V34H18.75V30H26.75V28H20.75C19.65 28 18.75 27.1 18.75 26V20C18.75 18.9 19.65 18 20.75 18H22.75V16H26.75V18H30.75V22Z" fill="#0A1748"/>
</svg>
