<svg width="48" height="48" viewBox="0 0 48 48" fill="none" xmlns="http://www.w3.org/2000/svg">
<path d="M44 18H34.42L25.66 4.88004C25.28 4.32004 24.64 4.04004 24 4.04004C23.36 4.04004 22.72 4.32004 22.34 4.90004L13.58 18H4C2.9 18 2 18.9 2 20C2 20.18 2.02 20.36 2.08 20.54L7.16 39.08C7.62 40.76 9.16 42 11 42H37C38.84 42 40.38 40.76 40.86 39.08L45.94 20.54L46 20C46 18.9 45.1 18 44 18ZM24 9.60004L29.6 18H18.4L24 9.60004ZM37 38L11.02 38.02L6.62 22H41.4L37 38ZM24 26C21.8 26 20 27.8 20 30C20 32.2 21.8 34 24 34C26.2 34 28 32.2 28 30C28 27.8 26.2 26 24 26Z" fill="#0A1748"/>
</svg>
