<svg width="48" height="48" viewBox="0 0 48 48" fill="none" xmlns="http://www.w3.org/2000/svg">
<path d="M24 4C12.96 4 4 12.96 4 24C4 35.04 12.96 44 24 44H40C42.2 44 44 42.2 44 40V24C44 12.96 35.04 4 24 4ZM24 40C18.22 40 13.14 36.92 10.34 32.32L16.24 26.42L22.82 32L32 22.84V26H36V16H26V20H29.16L22.6 26.56L16 21L8.62 28.4C8.22 27 8 25.52 8 24C8 15.18 15.18 8 24 8C32.82 8 40 15.18 40 24C40 32.82 32.82 40 24 40ZM39 41C37.9 41 37 40.1 37 39C37 37.9 37.9 37 39 37C40.1 37 41 37.9 41 39C41 40.1 40.1 41 39 41Z" fill="#0A1748"/>
</svg>
