<svg width="48" height="48" viewBox="0 0 48 48" fill="none" xmlns="http://www.w3.org/2000/svg">
<path d="M22 16V22H16V26H22V32H26V26H32V22H26V16H22ZM26 4.09998V10.16C32.78 11.14 38 16.94 38 24C38 25.8 37.64 27.5 37.04 29.08L42.24 32.14C43.36 29.66 44 26.9 44 24C44 13.64 36.1 5.09998 26 4.09998ZM24 38C16.26 38 10 31.74 10 24C10 16.94 15.22 11.14 22 10.16V4.09998C11.88 5.09998 4 13.62 4 24C4 35.04 12.94 44 23.98 44C30.6 44 36.46 40.78 40.1 35.82L34.9 32.76C33.5953 34.3981 31.9372 35.7202 30.0498 36.6276C28.1623 37.535 26.0942 38.0041 24 38Z" fill="#0A1748"/>
</svg>
