<svg width="49" height="48" viewBox="0 0 49 48" fill="none" xmlns="http://www.w3.org/2000/svg">
<path d="M36.5 22V26H44.5V22H36.5ZM32.5 35.22C34.42 36.64 36.92 38.52 38.9 40C39.7 38.94 40.5 37.86 41.3 36.8C39.32 35.32 36.82 33.44 34.9 32C34.1 33.08 33.3 34.16 32.5 35.22ZM41.3 11.2C40.5 10.14 39.7 9.06 38.9 8C36.92 9.48 34.42 11.36 32.5 12.8C33.3 13.86 34.1 14.94 34.9 16C36.82 14.56 39.32 12.7 41.3 11.2ZM8.5 18C6.3 18 4.5 19.8 4.5 22V26C4.5 28.2 6.3 30 8.5 30H10.5V38H14.5V30H16.5L26.5 36V12L16.5 18H8.5ZM18.56 21.42L22.5 19.06V28.94L18.56 26.58L17.6 26H8.5V22H17.6L18.56 21.42ZM31.5 24C31.5 21.34 30.34 18.94 28.5 17.3V30.68C30.34 29.06 31.5 26.66 31.5 24Z" fill="#0A1748"/>
</svg>
