<svg width="48" height="48" viewBox="0 0 48 48" fill="none" xmlns="http://www.w3.org/2000/svg">
<path d="M36.64 8.5201C33.6068 6.02983 29.9049 4.49203 26 4.1001V8.1401C28.92 8.5001 31.58 9.6601 33.8 11.3801L36.64 8.5201ZM39.86 22.0001H43.9C43.5 17.9801 41.9 14.3201 39.48 11.3601L36.62 14.2001C38.3843 16.4599 39.5039 19.1553 39.86 22.0001ZM36.62 33.8001L39.48 36.6601C41.9651 33.6238 43.5023 29.9235 43.9 26.0201H39.86C39.4995 28.8577 38.3801 31.5454 36.62 33.8001ZM26 39.8601V43.9001C30.02 43.5001 33.68 41.9001 36.64 39.4801L33.78 36.6201C31.58 38.3401 28.92 39.5001 26 39.8601ZM31.18 21.1801L26 26.3401V14.0001H22V26.3401L16.82 21.1601L14 24.0001L24 34.0001L34 24.0001L31.18 21.1801ZM22 39.8601V43.9001C11.9 42.9001 4 34.3801 4 24.0001C4 13.6201 11.9 5.1001 22 4.1001V8.1401C14.1 9.1201 8 15.8401 8 24.0001C8 32.1601 14.1 38.8801 22 39.8601Z" fill="#2C9D81"/>
</svg>
