<svg width="48" height="48" viewBox="0 0 48 48" fill="none" xmlns="http://www.w3.org/2000/svg">
<path d="M42 14.56V10C42 7.8 40.2 6 38 6H10C8.93913 6 7.92172 6.42143 7.17157 7.17157C6.42143 7.92172 6 8.93913 6 10V38C6 39.0609 6.42143 40.0783 7.17157 40.8284C7.92172 41.5786 8.93913 42 10 42H38C40.2 42 42 40.2 42 38V33.44C42.6046 33.091 43.1072 32.5898 43.4581 31.9863C43.809 31.3829 43.9958 30.6981 44 30V18C43.9958 17.3019 43.809 16.6171 43.4581 16.0137C43.1072 15.4102 42.6046 14.909 42 14.56ZM40 18V30H26V18H40ZM10 38V10H38V14H26C23.8 14 22 15.8 22 18V30C22 32.2 23.8 34 26 34H38V38H10Z" fill="#F56EAC"/>
<path d="M32 27C33.6569 27 35 25.6569 35 24C35 22.3431 33.6569 21 32 21C30.3431 21 29 22.3431 29 24C29 25.6569 30.3431 27 32 27Z" fill="#F56EAC"/>
</svg>
