<svg width="48" height="48" viewBox="0 0 48 48" fill="none" xmlns="http://www.w3.org/2000/svg">
<path d="M40.0001 18V12H36.0001V18H30.0001V22H36.0001V28H40.0001V22H46.0001V18H40.0001ZM18.0001 24C22.4201 24 26.0001 20.42 26.0001 16C26.0001 11.58 22.4201 8 18.0001 8C13.5801 8 10.0001 11.58 10.0001 16C10.0001 20.42 13.5801 24 18.0001 24ZM18.0001 12C20.2001 12 22.0001 13.8 22.0001 16C22.0001 18.2 20.2001 20 18.0001 20C15.8001 20 14.0001 18.2 14.0001 16C14.0001 13.8 15.8001 12 18.0001 12ZM30.7801 29.12C27.4201 27.4 23.0601 26 18.0001 26C12.9401 26 8.58013 27.4 5.22013 29.12C4.24425 29.6226 3.42673 30.3859 2.85833 31.325C2.28993 32.2641 1.99287 33.3423 2.00013 34.44V40H34.0001V34.44C34.0001 32.2 32.7801 30.14 30.7801 29.12ZM30.0001 36H6.00013V34.44C6.00013 33.68 6.40013 33 7.04013 32.68C9.42013 31.46 13.2601 30 18.0001 30C22.7401 30 26.5801 31.46 28.9601 32.68C29.6001 33 30.0001 33.68 30.0001 34.44V36Z" fill="#0A1748"/>
</svg>
