<svg width="48" height="48" viewBox="0 0 48 48" fill="none" xmlns="http://www.w3.org/2000/svg">
<path d="M12 40V20H36V22C37.4 22 38.74 22.2 40 22.58V20C40 17.8 38.2 16 36 16H34V12C34 6.48 29.52 2 24 2C18.48 2 14 6.48 14 12V16H12C9.8 16 8 17.8 8 20V40C8 42.2 9.8 44 12 44H24.52C23.68 42.8 23.02 41.44 22.58 40H12ZM18 12C18 8.68 20.68 6 24 6C27.32 6 30 8.68 30 12V16H18V12Z" fill="#0A1748"/>
<path d="M36 26C30.48 26 26 30.48 26 36C26 41.52 30.48 46 36 46C41.52 46 46 41.52 46 36C46 30.48 41.52 26 36 26ZM36 30C37.66 30 39 31.34 39 33C39 34.66 37.66 36 36 36C34.34 36 33 34.66 33 33C33 31.34 34.34 30 36 30ZM36 42C33.94 42 32.12 40.96 31.04 39.36C32.5 38.52 34.18 38 36 38C37.82 38 39.5 38.52 40.96 39.36C39.88 40.96 38.06 42 36 42Z" fill="#0A1748"/>
</svg>
