<svg width="48" height="49" viewBox="0 0 48 49" fill="none" xmlns="http://www.w3.org/2000/svg">
<path d="M31 2.5H15C13.6739 2.5 12.4021 3.02678 11.4645 3.96447C10.5268 4.90215 10 6.17392 10 7.5V41.5C10 42.8261 10.5268 44.0979 11.4645 45.0355C12.4021 45.9732 13.6739 46.5 15 46.5H31C32.3261 46.5 33.5979 45.9732 34.5355 45.0355C35.4732 44.0979 36 42.8261 36 41.5V7.5C36 6.17392 35.4732 4.90215 34.5355 3.96447C33.5979 3.02678 32.3261 2.5 31 2.5ZM23 44.5C21.34 44.5 20 43.16 20 41.5C20 39.84 21.34 38.5 23 38.5C24.66 38.5 26 39.84 26 41.5C26 43.16 24.66 44.5 23 44.5ZM32 36.5H14V8.5H32V36.5Z" fill="#0A1748"/>
</svg>
