<svg width="49" height="48" viewBox="0 0 49 48" fill="none" xmlns="http://www.w3.org/2000/svg">
<path d="M40.666 12.0001H36.306C36.526 11.3801 36.666 10.7001 36.666 10.0001C36.6682 8.70972 36.2537 7.45315 35.4844 6.41726C34.715 5.38138 33.6317 4.62153 32.3958 4.25075C31.1599 3.87997 29.8373 3.91807 28.6247 4.35938C27.4122 4.80068 26.3745 5.62162 25.666 6.70007L24.666 8.04007L23.666 6.68007C22.586 5.08007 20.766 4.00008 18.666 4.00008C15.346 4.00008 12.666 6.68007 12.666 10.0001C12.666 10.7001 12.806 11.3801 13.026 12.0001H8.66602C6.44602 12.0001 4.68602 13.7801 4.68602 16.0001L4.66602 38.0001C4.66602 40.2201 6.44602 42.0001 8.66602 42.0001H40.666C42.886 42.0001 44.666 40.2201 44.666 38.0001V16.0001C44.666 13.7801 42.886 12.0001 40.666 12.0001ZM30.666 8.00007C31.766 8.00007 32.666 8.90007 32.666 10.0001C32.666 11.1001 31.766 12.0001 30.666 12.0001C29.566 12.0001 28.666 11.1001 28.666 10.0001C28.666 8.90007 29.566 8.00007 30.666 8.00007ZM18.666 8.00007C19.766 8.00007 20.666 8.90007 20.666 10.0001C20.666 11.1001 19.766 12.0001 18.666 12.0001C17.566 12.0001 16.666 11.1001 16.666 10.0001C16.666 8.90007 17.566 8.00007 18.666 8.00007ZM40.666 38.0001H8.66602V34.0001H40.666V38.0001ZM40.666 28.0001H8.66602V16.0001H18.826L14.666 21.6601L17.906 24.0001L24.666 14.8001L31.426 24.0001L34.666 21.6601L30.506 16.0001H40.666V28.0001Z" fill="#0A1748"/>
</svg>
