<svg width="48" height="48" viewBox="0 0 48 48" fill="none" xmlns="http://www.w3.org/2000/svg">
<path d="M38.0596 7.1201C34.7196 4.3401 30.5796 2.5201 25.9996 2.1001V6.1201C29.4596 6.5001 32.6196 7.8801 35.2196 9.9601L38.0596 7.1201ZM21.9996 6.1201V2.1001C17.4196 2.5001 13.2796 4.3401 9.93961 7.1201L12.7796 9.9601C15.4252 7.82932 18.6236 6.49723 21.9996 6.1201ZM9.95961 12.7801L7.11961 9.9401C4.33961 13.2801 2.51961 17.4201 2.09961 22.0001H6.11961C6.49961 18.5401 7.87961 15.3801 9.95961 12.7801ZM41.8796 22.0001H45.8996C45.4796 17.4201 43.6596 13.2801 40.8796 9.9401L38.0396 12.7801C40.1704 15.4257 41.5025 18.6241 41.8796 22.0001ZM13.9996 24.0001L20.8796 27.1201L23.9996 34.0001L27.1196 27.1201L33.9996 24.0001L27.1196 20.8801L23.9996 14.0001L20.8796 20.8801L13.9996 24.0001Z" fill="#0A1748"/>
<path d="M24 42C21.0464 41.9994 18.1387 41.2687 15.5357 39.873C12.9327 38.4772 10.715 36.4597 9.08 34H14V30H2V42H6V36.6C9.98 42.28 16.54 46 24 46C33.74 46 42 39.66 44.88 30.88L40.96 29.98C38.5 36.96 31.84 42 24 42Z" fill="#0A1748"/>
</svg>
