<svg width="49" height="48" viewBox="0 0 49 48" fill="none" xmlns="http://www.w3.org/2000/svg">
<path d="M38.666 18L41.166 12.5L46.666 10L41.166 7.5L38.666 2L36.166 7.5L30.666 10L36.166 12.5L38.666 18ZM38.666 30L36.166 35.5L30.666 38L36.166 40.5L38.666 46L41.166 40.5L46.666 38L41.166 35.5L38.666 30ZM23.666 19L18.666 8L13.666 19L2.66602 24L13.666 29L18.666 40L23.666 29L34.666 24L23.666 19ZM20.646 25.98L18.666 30.34L16.686 25.98L12.326 24L16.686 22.02L18.666 17.66L20.646 22.02L25.006 24L20.646 25.98Z" fill="#0A1748"/>
</svg>
