<svg width="48" height="48" viewBox="0 0 48 48" fill="none" xmlns="http://www.w3.org/2000/svg">
<path d="M24 16C19.58 16 16 19.58 16 24C16 28.42 19.58 32 24 32C28.42 32 32 28.42 32 24C32 19.58 28.42 16 24 16ZM41.88 22C41.427 17.9442 39.6083 14.1631 36.7226 11.2774C33.8369 8.3917 30.0558 6.57302 26 6.12V2H22V6.12C17.9442 6.57302 14.1631 8.3917 11.2774 11.2774C8.3917 14.1631 6.57302 17.9442 6.12 22H2V26H6.12C6.57302 30.0558 8.3917 33.8369 11.2774 36.7226C14.1631 39.6083 17.9442 41.427 22 41.88V46H26V41.88C30.0558 41.427 33.8369 39.6083 36.7226 36.7226C39.6083 33.8369 41.427 30.0558 41.88 26H46V22H41.88ZM24 38C16.26 38 10 31.74 10 24C10 16.26 16.26 10 24 10C31.74 10 38 16.26 38 24C38 31.74 31.74 38 24 38Z" fill="#F56EAC"/>
</svg>
