<svg width="48" height="48" viewBox="0 0 48 48" fill="none" xmlns="http://www.w3.org/2000/svg">
<path d="M42 2H14C11.8 2 10 3.8 10 6V34C10 36.2 11.8 38 14 38H42C44.2 38 46 36.2 46 34V6C46 3.8 44.2 2 42 2ZM42 34H14V6H42V34ZM6 10H2V42C2 44.2 3.8 46 6 46H38V42H6V10ZM34 26V23C34 21.34 32.66 20 31 20C32.66 20 34 18.66 34 17V14C34 12.9391 33.5786 11.9217 32.8284 11.1716C32.0783 10.4214 31.0609 10 30 10H22V14H30V18H26V22H30V26H22V30H30C31.0609 30 32.0783 29.5786 32.8284 28.8284C33.5786 28.0783 34 27.0609 34 26Z" fill="#0A1748"/>
</svg>
