<svg width="48" height="48" viewBox="0 0 48 48" fill="none" xmlns="http://www.w3.org/2000/svg">
<path d="M25 20C25 16.7 22.3 14 19 14C15.7 14 13 16.7 13 20C13 23.3 15.7 26 19 26C22.3 26 25 23.3 25 20ZM19 22C17.9 22 17 21.1 17 20C17 18.9 17.9 18 19 18C20.1 18 21 18.9 21 20C21 21.1 20.1 22 19 22ZM32 26C34.22 26 36 24.22 36 22C36 19.78 34.22 18 32 18C29.78 18 27.98 19.78 28 22C28 24.22 29.78 26 32 26ZM23.98 4.02002C12.94 4.02002 3.97998 12.98 3.97998 24.02C3.97998 35.06 12.94 44.02 23.98 44.02C35.02 44.02 43.98 35.06 43.98 24.02C43.98 12.98 35.02 4.02002 23.98 4.02002ZM11.68 34.24C13.04 33.16 16.22 32.02 19 32.02C19.14 32.02 19.3 32.04 19.46 32.04C19.94 30.76 20.8 29.46 22.06 28.32C21.051 28.1262 20.0272 28.0192 19 28C16.4 28 12.22 28.9 9.53998 30.86C8.53998 28.78 7.97998 26.46 7.97998 24C7.97998 15.18 15.16 8.00002 23.98 8.00002C32.8 8.00002 39.98 15.18 39.98 24C39.98 26.4 39.44 28.68 38.48 30.74C36.48 29.56 33.76 29 32 29C28.96 29 23 30.62 23 34.4V39.96C20.8214 39.8355 18.6918 39.2634 16.7441 38.2792C14.7965 37.2951 13.0726 35.9201 11.68 34.24Z" fill="#2C9D81"/>
</svg>
