<svg width="48" height="48" viewBox="0 0 48 48" fill="none" xmlns="http://www.w3.org/2000/svg">
<path d="M19.9995 22L18.1195 26.12L13.9995 28L18.1195 29.88L19.9995 34L21.8795 29.88L25.9995 28L21.8795 26.12L19.9995 22ZM36.0195 8L40.0195 16H34.0195L30.0195 8H26.0195L30.0195 16H24.0195L20.0195 8H16.0195L20.0195 16H14.0195L10.0195 8H8.01953C5.81953 8 4.03953 9.8 4.03953 12L4.01953 36C4.01953 38.2 5.81953 40 8.01953 40H40.0195C42.2195 40 43.9995 38.2 43.9995 36V8H36.0195ZM40.0195 36H8.01953V12.94L11.5395 20H31.9995L30.7395 22.74L27.9995 24L30.7395 25.26L31.9995 28L33.2595 25.26L35.9995 24L33.2595 22.74L31.9995 20H40.0195V36Z" fill="#0A1748"/>
</svg>
