<svg width="25" height="24" viewBox="0 0 25 24" fill="none" xmlns="http://www.w3.org/2000/svg">
<path d="M11.5008 4.0698V2.0498C9.49078 2.2498 7.66078 3.0498 6.18078 4.2598L7.60078 5.6898C8.73071 4.80765 10.0784 4.24785 11.5008 4.0698ZM18.8208 4.2598C17.3042 3.01467 15.4532 2.24577 13.5008 2.0498V4.0698C14.9608 4.2498 16.2908 4.8298 17.4008 5.6898L18.8208 4.2598ZM20.4308 10.9998H22.4508C22.2508 8.9898 21.4508 7.1598 20.2408 5.6798L18.8108 7.0998C19.6929 8.22973 20.2527 9.5774 20.4308 10.9998ZM6.19078 7.0998L4.76078 5.6798C3.51565 7.19642 2.74675 9.04735 2.55078 10.9998H4.57078C4.75078 9.5398 5.33078 8.20981 6.19078 7.0998ZM4.57078 12.9998H2.55078C2.75078 15.0098 3.55078 16.8398 4.76078 18.3198L6.19078 16.8898C5.30723 15.7645 4.74715 14.4196 4.57078 12.9998ZM15.5008 11.9998C15.5008 10.3398 14.1608 8.9998 12.5008 8.9998C10.8408 8.9998 9.50078 10.3398 9.50078 11.9998C9.50078 13.6598 10.8408 14.9998 12.5008 14.9998C14.1608 14.9998 15.5008 13.6598 15.5008 11.9998ZM18.8108 16.8998L20.2408 18.3298C21.4833 16.8116 22.2519 14.9615 22.4508 13.0098H20.4308C20.2505 14.4286 19.6909 15.7725 18.8108 16.8998ZM13.5008 19.9298V21.9498C15.5108 21.7498 17.3408 20.9498 18.8208 19.7398L17.3908 18.3098C16.2908 19.1698 14.9608 19.7498 13.5008 19.9298ZM6.18078 19.7398C7.69894 20.9824 9.54906 21.7509 11.5008 21.9498V19.9298C10.0784 19.7518 8.73071 19.192 7.60078 18.3098L6.18078 19.7398Z" fill="#0A1748"/>
</svg>
