<svg width="49" height="48" viewBox="0 0 49 48" fill="none" xmlns="http://www.w3.org/2000/svg">
<path d="M44.75 20V12C44.75 9.8 42.95 8 40.75 8H8.75C6.55 8 4.77 9.8 4.77 12V20C6.97 20 8.75 21.8 8.75 24C8.75 26.2 6.97 28 4.75 28V36C4.75 38.2 6.55 40 8.75 40H40.75C42.95 40 44.75 38.2 44.75 36V28C42.55 28 40.75 26.2 40.75 24C40.75 21.8 42.55 20 44.75 20ZM40.75 17.08C38.37 18.46 36.75 21.06 36.75 24C36.75 26.94 38.37 29.54 40.75 30.92V36H8.75V30.92C11.13 29.54 12.75 26.94 12.75 24C12.75 21.04 11.15 18.46 8.77 17.08L8.75 12H40.75V17.08ZM18.89 32L24.75 28.24L30.61 32L28.83 25.28L34.21 20.88L27.27 20.46L24.75 14L22.21 20.44L15.27 20.86L20.65 25.26L18.89 32Z" fill="#0A1748"/>
</svg>
