<svg width="48" height="48" viewBox="0 0 48 48" fill="none" xmlns="http://www.w3.org/2000/svg">
<path d="M30 4C24.58 4 19.9 7.08 17.56 11.56C14.9921 12.8975 12.8975 14.9921 11.56 17.56C9.2818 18.7428 7.37203 20.5283 6.03893 22.7219C4.70583 24.9155 4.00055 27.4331 4 30C4 37.74 10.26 44 18 44C23.42 44 28.1 40.92 30.44 36.44C33.0079 35.1025 35.1025 33.0079 36.44 30.44C38.7182 29.2572 40.628 27.4717 41.9611 25.2781C43.2942 23.0845 43.9994 20.5669 44 18C44 10.26 37.74 4 30 4ZM18 40C16.1435 39.9985 14.324 39.4805 12.7452 38.5038C11.1663 37.5272 9.8904 36.1304 9.06014 34.4699C8.22989 32.8094 7.87807 30.9506 8.04406 29.1016C8.21004 27.2525 8.88728 25.4861 10 24C10 31.74 16.26 38 24 38C22.32 39.26 20.24 40 18 40ZM24 34C22.1435 33.9985 20.324 33.4805 18.7452 32.5038C17.1663 31.5272 15.8904 30.1304 15.0601 28.4699C14.2299 26.8094 13.8781 24.9506 14.0441 23.1016C14.21 21.2525 14.8873 19.4861 16 18C16 25.72 22.26 31.98 30 32C28.32 33.26 26.24 34 24 34ZM33.4 27.4C32.34 27.78 31.2 28 30 28C24.48 28 20 23.52 20 18C20 16.8 20.22 15.66 20.6 14.6C21.66 14.22 22.8 14 24 14C29.52 14 34 18.48 34 24C34 25.2 33.78 26.34 33.4 27.4ZM38 24C38 16.28 31.74 10.02 24 10C25.9267 8.56333 28.3061 7.86828 30.7032 8.04197C33.1003 8.21566 35.3547 9.24649 37.0541 10.9459C38.7535 12.6453 39.7843 14.8997 39.958 17.2968C40.1317 19.6939 39.4367 22.0733 38 24Z" fill="#0A1748"/>
</svg>
