<svg width="48" height="48" viewBox="0 0 48 48" fill="none" xmlns="http://www.w3.org/2000/svg">
<path d="M28.5405 12C27.4405 13.9 28.1005 16.36 30.0005 17.46C31.9005 18.56 34.3605 17.9 35.4605 16C36.5605 14.1 35.9005 11.64 34.0005 10.54C32.1005 9.44003 29.6405 10.1 28.5405 12Z" fill="#0A1748"/>
<path d="M31.6795 20.8199L26.4795 17.8199C21.7195 15.0599 20.0795 8.9399 22.8395 4.1799L19.3795 2.1799C16.1995 7.6599 17.1995 14.4199 21.3195 18.7999L11.0195 36.6399L14.4795 38.6399L17.4795 33.4399L20.9395 35.4399L14.9395 45.8399L18.3995 47.8399L30.9795 26.0599C32.1322 27.6232 32.8047 29.4884 32.9148 31.4276C33.0249 33.3668 32.5679 35.2962 31.5995 36.9799L35.0595 38.9799C38.2595 33.4799 37.6195 25.8199 31.6795 20.8199ZM25.4995 7.5999C26.9395 8.4199 28.7595 7.9399 29.5995 6.4999C30.4195 5.0599 29.9395 3.2399 28.4995 2.3999C27.8108 2.01613 26.9988 1.91871 26.2388 2.12869C25.4789 2.33867 24.832 2.83918 24.438 3.5221C24.044 4.20503 23.9345 5.01554 24.1331 5.77853C24.3317 6.54153 24.8226 7.19577 25.4995 7.5999Z" fill="#0A1748"/>
</svg>
