<svg width="48" height="48" viewBox="0 0 48 48" fill="none" xmlns="http://www.w3.org/2000/svg">
<path d="M43.799 17.78L41.699 9.04C41.259 7.24 39.699 6 37.879 6H10.099C8.29904 6 6.71904 7.26 6.29904 9.04L4.19904 17.78C3.71904 19.82 4.15904 21.9 5.43904 23.54C5.59904 23.76 5.81904 23.92 5.99904 24.12V38C5.99904 40.2 7.79904 42 9.99904 42H37.999C40.199 42 41.999 40.2 41.999 38V24.12C42.179 23.94 42.399 23.76 42.559 23.56C43.839 21.92 44.299 19.82 43.799 17.78ZM37.819 9.98L39.919 18.72C40.119 19.56 39.939 20.4 39.419 21.06C39.139 21.42 38.539 22 37.539 22C36.319 22 35.259 21.02 35.119 19.72L33.959 10L37.819 9.98ZM25.999 10H29.919L30.999 19.04C31.099 19.82 30.859 20.6 30.339 21.18C29.899 21.7 29.259 22 28.439 22C27.099 22 25.999 20.82 25.999 19.38V10ZM16.979 19.04L18.079 10H21.999V19.38C21.999 20.82 20.899 22 19.419 22C18.739 22 18.119 21.7 17.639 21.18C17.3897 20.8867 17.2027 20.5457 17.0892 20.1778C16.9757 19.8099 16.9383 19.4228 16.979 19.04ZM8.07904 18.72L10.099 10H14.039L12.879 19.72C12.719 21.02 11.679 22 10.459 22C9.47904 22 8.85904 21.42 8.59904 21.06C8.05904 20.42 7.87904 19.56 8.07904 18.72ZM9.99904 38V25.94C10.159 25.96 10.299 26 10.459 26C12.199 26 13.779 25.28 14.939 24.1C16.139 25.3 17.739 26 19.559 26C21.299 26 22.859 25.28 24.019 24.14C25.199 25.28 26.799 26 28.599 26C30.279 26 31.879 25.3 33.079 24.1C34.239 25.28 35.819 26 37.559 26C37.719 26 37.859 25.96 38.019 25.94V38H9.99904Z" fill="#0A1748"/>
</svg>
