<svg width="48" height="48" viewBox="0 0 48 48" fill="none" xmlns="http://www.w3.org/2000/svg">
<path d="M43.801 17.78L41.701 9.04C41.261 7.24 39.701 6 37.881 6H10.101C8.30099 6 6.72099 7.26 6.30099 9.04L4.20099 17.78C3.72099 19.82 4.16099 21.9 5.44099 23.54C5.60099 23.76 5.82099 23.92 6.00099 24.12V38C6.00099 40.2 7.80099 42 10.001 42H38.001C40.201 42 42.001 40.2 42.001 38V24.12C42.181 23.94 42.401 23.76 42.561 23.56C43.841 21.92 44.301 19.82 43.801 17.78ZM37.821 9.98L39.921 18.72C40.121 19.56 39.941 20.4 39.421 21.06C39.141 21.42 38.541 22 37.541 22C36.321 22 35.261 21.02 35.121 19.72L33.961 10L37.821 9.98ZM26.001 10H29.921L31.001 19.04C31.101 19.82 30.861 20.6 30.341 21.18C29.901 21.7 29.261 22 28.441 22C27.101 22 26.001 20.82 26.001 19.38V10ZM16.981 19.04L18.081 10H22.001V19.38C22.001 20.82 20.901 22 19.421 22C18.741 22 18.121 21.7 17.641 21.18C17.3917 20.8867 17.2046 20.5457 17.0912 20.1778C16.9777 19.8099 16.9402 19.4228 16.981 19.04ZM8.08099 18.72L10.101 10H14.041L12.881 19.72C12.721 21.02 11.681 22 10.461 22C9.48099 22 8.86099 21.42 8.60099 21.06C8.06099 20.42 7.88099 19.56 8.08099 18.72ZM10.001 38V25.94C10.161 25.96 10.301 26 10.461 26C12.201 26 13.781 25.28 14.941 24.1C16.141 25.3 17.741 26 19.561 26C21.301 26 22.861 25.28 24.021 24.14C25.201 25.28 26.801 26 28.601 26C30.281 26 31.881 25.3 33.081 24.1C34.241 25.28 35.821 26 37.561 26C37.721 26 37.861 25.96 38.021 25.94V38H10.001Z" fill="#F56EAC"/>
</svg>
