<svg width="48" height="48" viewBox="0 0 48 48" fill="none" xmlns="http://www.w3.org/2000/svg">
<path d="M46 24.0001L41.12 18.4401L41.8 11.0801L34.58 9.44008L30.8 3.08008L24 6.00008L17.2 3.08008L13.42 9.44008L6.2 11.0601L6.88 18.4201L2 24.0001L6.88 29.5601L6.2 36.9401L13.42 38.5801L17.2 44.9401L24 42.0001L30.8 44.9201L34.58 38.5601L41.8 36.9201L41.12 29.5601L46 24.0001ZM36.98 28.2201L37.5 33.8001L32.02 35.0401L29.16 39.8601L24 37.6401L18.84 39.8601L15.98 35.0401L10.5 33.8001L11.02 28.2001L7.32 24.0001L11.02 19.7601L10.5 14.2001L15.98 12.9801L18.84 8.16008L24 10.3601L29.16 8.14008L32.02 12.9601L37.5 14.2001L36.98 19.7801L40.68 24.0001L36.98 28.2201ZM22 30.0001H26V34.0001H22V30.0001ZM22 14.0001H26V26.0001H22V14.0001Z" fill="#0A1748"/>
</svg>
