<svg width="48" height="48" viewBox="0 0 48 48" fill="none" xmlns="http://www.w3.org/2000/svg">
<path d="M23.42 35.98C20.3413 35.8345 17.4369 34.5085 15.3103 32.2776C13.1836 30.0466 11.9981 27.0822 12 24C12 17.38 17.38 12 24 12C30.44 12 35.68 17.06 35.98 23.42L31.78 22.16C31.4531 20.7736 30.7619 19.4996 29.7777 18.4698C28.7936 17.4399 27.5523 16.6916 26.1821 16.3022C24.8119 15.9127 23.3626 15.8963 21.9839 16.2546C20.6052 16.6128 19.3473 17.3328 18.34 18.34C17.3328 19.3473 16.6128 20.6052 16.2546 21.9839C15.8963 23.3626 15.9127 24.8119 16.3022 26.1821C16.6916 27.5523 17.4399 28.7936 18.4698 29.7777C19.4996 30.7619 20.7736 31.4531 22.16 31.78L23.42 35.98ZM44 24C44 24.6 43.98 25.2 43.92 25.8L39.98 24.62C40 24.42 40 24.2 40 24C40 15.16 32.84 8 24 8C15.16 8 8 15.16 8 24C8 32.84 15.16 40 24 40C24.2 40 24.42 40 24.62 39.98L25.8 43.92C25.2 43.98 24.6 44 24 44C12.96 44 4 35.04 4 24C4 12.96 12.96 4 24 4C35.04 4 44 12.96 44 24ZM36.46 32.52L44 30L24 24L30 44L32.52 36.46L41.06 45L45.02 41.04L36.46 32.52Z" fill="#0A1748"/>
</svg>
