<svg width="49" height="48" viewBox="0 0 49 48" fill="none" xmlns="http://www.w3.org/2000/svg">
<path d="M6.33203 26C6.33203 21.1 9.85203 17.06 14.492 16.18L11.512 19.18L14.332 22L22.332 13.98L14.332 6L11.512 8.82L14.672 11.98V12.1C11.2721 12.5091 8.13952 14.1489 5.86601 16.7098C3.5925 19.2707 2.33537 22.5755 2.33203 26C2.33203 33.74 8.59203 40 16.332 40H22.332V36H16.332C10.812 36 6.33203 31.52 6.33203 26ZM26.332 26V40H44.332V26H26.332ZM40.332 36H30.332V30H40.332V36ZM26.332 8H44.332V22H26.332V8Z" fill="#0A1748"/>
</svg>
