<svg width="48" height="48" viewBox="0 0 48 48" fill="none" xmlns="http://www.w3.org/2000/svg">
<path d="M22 28H10V38H6V24.06L16 16.92L26 24.06V26.22C27.14 25.04 28.5 24.08 30 23.38V22L16 12L2 22V42H14V32H18V42H23.36C22.5 40.18 22 38.16 22 36V28ZM34 14H38V18H34V14Z" fill="#0A1748"/>
<path d="M46 26.22V6H20V9.94L24 12.8V10H42V23.36C43.5 24.08 44.86 25.04 46 26.22ZM46 36C46 30.48 41.52 26 36 26C30.48 26 26 30.48 26 36C26 41.52 30.48 46 36 46C41.52 46 46 41.52 46 36ZM35 42V37H30V35H35V30H37V35H42V37H37V42H35Z" fill="#0A1748"/>
</svg>
