<svg width="48" height="48" viewBox="0 0 48 48" fill="none" xmlns="http://www.w3.org/2000/svg">
<path d="M40 12H35.64C35.86 11.38 36 10.7 36 9.99995C36.0022 8.7096 35.5877 7.45303 34.8183 6.41714C34.049 5.38126 32.9657 4.62141 31.7298 4.25063C30.4939 3.87985 29.1713 3.91795 27.9587 4.35925C26.7462 4.80056 25.7085 5.6215 25 6.69995L24 8.03995L23 6.67995C21.92 5.07995 20.1 3.99995 18 3.99995C14.68 3.99995 12 6.67995 12 9.99995C12 10.7 12.14 11.38 12.36 12H8C5.78 12 4.02 13.78 4.02 16L4 38C4 40.22 5.78 42 8 42H40C42.22 42 44 40.22 44 38V16C44 13.78 42.22 12 40 12ZM30 7.99995C31.1 7.99995 32 8.89995 32 9.99995C32 11.1 31.1 12 30 12C28.9 12 28 11.1 28 9.99995C28 8.89995 28.9 7.99995 30 7.99995ZM18 7.99995C19.1 7.99995 20 8.89995 20 9.99995C20 11.1 19.1 12 18 12C16.9 12 16 11.1 16 9.99995C16 8.89995 16.9 7.99995 18 7.99995ZM40 38H8V34H40V38ZM40 28H8V16H18.16L14 21.66L17.24 24L24 14.8L30.76 24L34 21.66L29.84 16H40V28Z" fill="#0A1748"/>
</svg>
