<svg width="48" height="49" viewBox="0 0 48 49" fill="none" xmlns="http://www.w3.org/2000/svg">
<path d="M35.2995 13.2002C33.8192 11.7101 32.0586 10.5277 30.1192 9.72101C28.1798 8.91437 26.1 8.49947 23.9995 8.50025C15.1595 8.50025 8.01953 15.6602 8.01953 24.5002C8.01953 33.3402 15.1595 40.5002 23.9995 40.5002C31.4595 40.5002 37.6795 35.4002 39.4595 28.5002H35.2995C34.4757 30.8393 32.9462 32.865 30.9222 34.2979C28.8982 35.7308 26.4794 36.5003 23.9995 36.5002C17.3795 36.5002 11.9995 31.1202 11.9995 24.5002C11.9995 17.8802 17.3795 12.5002 23.9995 12.5002C27.3195 12.5002 30.2795 13.8802 32.4395 16.0602L25.9995 22.5002H39.9995V8.50025L35.2995 13.2002Z" fill="#0A1748"/>
</svg>
