<svg width="32" height="32" viewBox="0 0 32 32" fill="none" xmlns="http://www.w3.org/2000/svg">
<path d="M26.667 8.00021H23.7603C23.907 7.58688 24.0003 7.13355 24.0003 6.66688C24.0018 5.80665 23.7255 4.96893 23.2126 4.27834C22.6996 3.58775 21.9775 3.08118 21.1535 2.834C20.3296 2.58681 19.4478 2.61221 18.6395 2.90641C17.8311 3.20062 17.1393 3.74791 16.667 4.46688L16.0003 5.36021L15.3337 4.45355C14.6137 3.38688 13.4003 2.66688 12.0003 2.66688C9.78699 2.66688 8.00033 4.45355 8.00033 6.66688C8.00033 7.13355 8.09366 7.58688 8.24033 8.00021H5.33366C3.85366 8.00021 2.68033 9.18688 2.68033 10.6669L2.66699 25.3335C2.66699 26.8135 3.85366 28.0002 5.33366 28.0002H26.667C28.147 28.0002 29.3337 26.8135 29.3337 25.3335V10.6669C29.3337 9.18688 28.147 8.00021 26.667 8.00021ZM20.0003 5.33355C20.7337 5.33355 21.3337 5.93355 21.3337 6.66688C21.3337 7.40021 20.7337 8.00021 20.0003 8.00021C19.267 8.00021 18.667 7.40021 18.667 6.66688C18.667 5.93355 19.267 5.33355 20.0003 5.33355ZM12.0003 5.33355C12.7337 5.33355 13.3337 5.93355 13.3337 6.66688C13.3337 7.40021 12.7337 8.00021 12.0003 8.00021C11.267 8.00021 10.667 7.40021 10.667 6.66688C10.667 5.93355 11.267 5.33355 12.0003 5.33355ZM26.667 25.3335H5.33366V22.6669H26.667V25.3335ZM26.667 18.6669H5.33366V10.6669H12.107L9.33366 14.4402L11.4937 16.0002L16.0003 9.86688L20.507 16.0002L22.667 14.4402L19.8937 10.6669H26.667V18.6669Z" fill="#0A1748"/>
</svg>
