<svg width="24" height="24" viewBox="0 0 24 24" fill="none" xmlns="http://www.w3.org/2000/svg">
<path d="M11 14H5V19H3V12.03L8 8.46L13 12.03V13.11C13.57 12.52 14.25 12.04 15 11.69V11L8 6L1 11V21H7V16H9V21H11.68C11.25 20.09 11 19.08 11 18V14ZM17 7H19V9H17V7Z" fill="#0A1748"/>
<path d="M23 13.11V3H10V4.97L12 6.4V5H21V11.68C21.75 12.04 22.43 12.52 23 13.11ZM23 18C23 15.24 20.76 13 18 13C15.24 13 13 15.24 13 18C13 20.76 15.24 23 18 23C20.76 23 23 20.76 23 18ZM17.5 21V18.5H15V17.5H17.5V15H18.5V17.5H21V18.5H18.5V21H17.5Z" fill="#0A1748"/>
</svg>
