<svg width="32" height="32" viewBox="0 0 32 32" fill="none" xmlns="http://www.w3.org/2000/svg">
<g id="ic:outline-shopping-cart">
<path id="Vector" d="M20.733 17.3337C21.733 17.3337 22.613 16.787 23.0663 15.9603L27.8397 7.30699C27.952 7.10489 28.0097 6.87695 28.0069 6.64573C28.0041 6.41451 27.941 6.18802 27.8239 5.98867C27.7067 5.78933 27.5395 5.62403 27.3388 5.50915C27.1381 5.39427 26.9109 5.33377 26.6797 5.33366H6.94634L5.69301 2.66699H1.33301V5.33366H3.99967L8.79967 15.4537L6.99967 18.707C6.02634 20.4937 7.30634 22.667 9.33301 22.667H25.333V20.0003H9.33301L10.7997 17.3337H20.733ZM8.21301 8.00033H24.413L20.733 14.667H11.373L8.21301 8.00033ZM9.33301 24.0003C7.86634 24.0003 6.67968 25.2003 6.67968 26.667C6.67968 28.1337 7.86634 29.3337 9.33301 29.3337C10.7997 29.3337 11.9997 28.1337 11.9997 26.667C11.9997 25.2003 10.7997 24.0003 9.33301 24.0003ZM22.6663 24.0003C21.1997 24.0003 20.013 25.2003 20.013 26.667C20.013 28.1337 21.1997 29.3337 22.6663 29.3337C24.133 29.3337 25.333 28.1337 25.333 26.667C25.333 25.2003 24.133 24.0003 22.6663 24.0003Z" fill="#F56EAC"/>
</g>
</svg>
