<svg width="32" height="32" viewBox="0 0 32 32" fill="none" xmlns="http://www.w3.org/2000/svg">
<g id="ic:outline-handshake">
<path id="Vector" d="M16.2934 26.4667C16.0534 26.7067 15.6267 26.7467 15.3467 26.4667C15.2218 26.3408 15.1518 26.1706 15.1518 25.9933C15.1518 25.816 15.2218 25.6459 15.3467 25.52L19.8667 21L17.9867 19.12L13.4667 23.64C13.2134 23.9067 12.7867 23.8933 12.5201 23.64C12.3952 23.5141 12.3251 23.344 12.3251 23.1667C12.3251 22.9893 12.3952 22.8192 12.5201 22.6933L17.0401 18.1733L15.1601 16.2933L10.6401 20.8133C10.4001 21.0533 9.97341 21.0933 9.69341 20.8133C9.57134 20.686 9.50319 20.5164 9.50319 20.34C9.50319 20.1636 9.57134 19.994 9.69341 19.8667L14.2134 15.3467L12.3201 13.4667L7.80008 17.9867C7.56008 18.2267 7.13341 18.2667 6.85341 17.9867C6.73134 17.8593 6.66319 17.6897 6.66319 17.5133C6.66319 17.3369 6.73134 17.1673 6.85341 17.04L12.6934 11.2L15.1867 13.68C16.4534 14.9467 18.6401 14.9333 19.9067 13.68C21.2134 12.3733 21.2134 10.2667 19.9067 8.95999L17.4267 6.47999L17.8001 6.10665C18.8401 5.06665 20.5334 5.06665 21.5734 6.10665L27.2267 11.76C28.2667 12.8 28.2667 14.4933 27.2267 15.5333L16.2934 26.4667ZM29.1067 17.4267C30.105 16.4246 30.6654 15.0678 30.6654 13.6533C30.6654 12.2389 30.105 10.8821 29.1067 9.87999L23.4534 4.22665C22.4513 3.22844 21.0945 2.66797 19.6801 2.66797C18.2656 2.66797 16.9088 3.22844 15.9067 4.22665L15.5334 4.59999L15.1601 4.22665C14.158 3.22844 12.8012 2.66797 11.3867 2.66797C9.97231 2.66797 8.61551 3.22844 7.61341 4.22665L2.89341 8.94665C1.99092 9.84529 1.44075 11.0379 1.34289 12.3077C1.24502 13.5775 1.60595 14.8403 2.36008 15.8667L4.29341 13.9333C4.03567 13.4301 3.94456 12.8579 4.03323 12.2995C4.12191 11.7411 4.38578 11.2253 4.78675 10.8267L9.50675 6.10665C10.5467 5.06665 12.2401 5.06665 13.2801 6.10665L18.0267 10.8533C18.2667 11.0933 18.3067 11.52 18.0267 11.8C17.7467 12.08 17.3201 12.04 17.0801 11.8L12.6934 7.42665L4.96008 15.1467C3.65341 16.44 3.65341 18.56 4.96008 19.8667C5.48008 20.3867 6.14675 20.7067 6.85341 20.8C6.94722 21.5168 7.2752 22.1825 7.78637 22.6937C8.29755 23.2049 8.96328 23.5328 9.68008 23.6267C9.77388 24.3435 10.1019 25.0092 10.613 25.5204C11.1242 26.0315 11.7899 26.3595 12.5067 26.4533C12.6001 27.1733 12.9201 27.8267 13.4401 28.3467C14.0667 28.9733 14.9067 29.32 15.8001 29.32C16.6934 29.32 17.5334 28.9733 18.1601 28.3467L29.1067 17.4267Z" fill="#F56EAC"/>
</g>
</svg>
