<svg width="35" height="35" viewBox="0 0 35 35" fill="none" xmlns="http://www.w3.org/2000/svg">
<g clip-path="url(#clip0_4711_2505)">
<path d="M17.5012 0.700012C8.22267 0.700012 0.701172 8.22151 0.701172 17.5C0.701172 26.7785 8.22267 34.3 17.5012 34.3C26.7797 34.3 34.3012 26.7785 34.3012 17.5C34.3012 8.22151 26.7797 0.700012 17.5012 0.700012ZM13.3887 24.4633H9.98667V13.5153H13.3887V24.4633ZM11.6667 12.1713C10.5922 12.1713 9.89742 11.41 9.89742 10.4685C9.89742 9.50776 10.6132 8.76926 11.7104 8.76926C12.8077 8.76926 13.4797 9.50776 13.5007 10.4685C13.5007 11.41 12.8077 12.1713 11.6667 12.1713ZM25.8137 24.4633H22.4117V18.396C22.4117 16.9838 21.9182 16.0248 20.6879 16.0248C19.7482 16.0248 19.1899 16.674 18.9432 17.2988C18.8522 17.521 18.8294 17.836 18.8294 18.1493V24.4615H15.4257V17.0065C15.4257 15.6398 15.3819 14.497 15.3364 13.5135H18.2922L18.4479 15.0343H18.5162C18.9642 14.3203 20.0614 13.2668 21.8972 13.2668C24.1354 13.2668 25.8137 14.7665 25.8137 17.99V24.4633Z" fill="#0A1748"/>
</g>
<defs>
<clipPath id="clip0_4711_2505">
<rect width="35" height="35" fill="white"/>
</clipPath>
</defs>
</svg>
