<svg width="48" height="48" viewBox="0 0 48 48" fill="none" xmlns="http://www.w3.org/2000/svg">
<path d="M12 30.0001C10.34 30.0001 8.84 30.6801 7.76 31.7601C5.4 34.1201 4 44.0001 4 44.0001C4 44.0001 13.88 42.6001 16.24 40.2401C17.082 39.4025 17.656 38.3336 17.8893 37.1691C18.1226 36.0046 18.0046 34.7971 17.5503 33.6998C17.0959 32.6025 16.3257 31.665 15.3375 31.0062C14.3493 30.3475 13.1876 29.9973 12 30.0001ZM13.42 37.4201C12.86 37.9801 9.08 38.9401 9.08 38.9401C9.08 38.9401 10.02 35.1801 10.6 34.6001C10.94 34.2201 11.44 34.0001 12 34.0001C12.396 34.0007 12.7829 34.1184 13.1121 34.3385C13.4412 34.5586 13.6979 34.8712 13.8498 35.2369C14.0016 35.6026 14.0418 36.005 13.9653 36.3935C13.8889 36.7821 13.6991 37.1392 13.42 37.4201ZM34.84 27.3001C47.56 14.5801 43.32 4.68011 43.32 4.68011C43.32 4.68011 33.42 0.440109 20.7 13.1601L15.72 12.1601C15.0726 12.0358 14.4047 12.071 13.774 12.2627C13.1433 12.4543 12.5688 12.7967 12.1 13.2601L4 21.3801L14 25.6601L22.34 34.0001L26.62 44.0001L34.72 35.9001C35.66 34.9601 36.08 33.6001 35.82 32.2801L34.84 27.3001ZM14.82 21.6601L11 20.0201L14.94 16.0801L17.82 16.6601C16.68 18.3201 15.66 20.0601 14.82 21.6601ZM27.98 37.0001L26.34 33.1801C27.94 32.3401 29.68 31.3201 31.32 30.1801L31.9 33.0601L27.98 37.0001ZM32 24.4801C29.36 27.1201 25.24 29.2801 23.92 29.9401L18.06 24.0801C18.7 22.7801 20.86 18.6601 23.52 16.0001C32.88 6.64011 39.98 8.02011 39.98 8.02011C39.98 8.02011 41.36 15.1201 32 24.4801ZM30 22.0001C32.2 22.0001 34 20.2001 34 18.0001C34 15.8001 32.2 14.0001 30 14.0001C27.8 14.0001 26 15.8001 26 18.0001C26 20.2001 27.8 22.0001 30 22.0001Z" fill="#0A1748"/>
</svg>
