<svg width="35" height="35" viewBox="0 0 35 35" fill="none" xmlns="http://www.w3.org/2000/svg">
<g clip-path="url(#clip0_4711_2497)">
<path d="M22.7512 17.5001C22.7512 18.8925 22.198 20.2278 21.2135 21.2124C20.2289 22.197 18.8936 22.7501 17.5012 22.7501C16.1088 22.7501 14.7734 22.197 13.7889 21.2124C12.8043 20.2278 12.2512 18.8925 12.2512 17.5001C12.2523 17.2002 12.2809 16.9086 12.3369 16.6251H10.5012V23.6198C10.5012 24.1063 10.8949 24.5001 11.3814 24.5001H23.6227C23.8558 24.4996 24.0793 24.4067 24.244 24.2416C24.4087 24.0766 24.5012 23.853 24.5012 23.6198V16.6251H22.6654C22.7214 16.9086 22.75 17.2002 22.7512 17.5001ZM17.5012 21.0001C17.9609 21 18.4161 20.9093 18.8408 20.7333C19.2655 20.5572 19.6514 20.2992 19.9764 19.9741C20.3014 19.6489 20.5592 19.2629 20.735 18.8381C20.9108 18.4133 21.0013 17.9581 21.0012 17.4983C21.0011 17.0386 20.9104 16.5834 20.7343 16.1587C20.5583 15.734 20.3003 15.3481 19.9752 15.0231C19.65 14.6981 19.264 14.4403 18.8392 14.2645C18.4144 14.0886 17.9592 13.9982 17.4994 13.9983C16.5709 13.9986 15.6806 14.3676 15.0242 15.0243C14.3678 15.681 13.9992 16.5716 13.9994 17.5001C13.9997 18.4286 14.3687 19.3189 15.0254 19.9753C15.6821 20.6317 16.5727 21.0003 17.5012 21.0001ZM21.7012 13.8251H23.7994C23.8685 13.8253 23.937 13.8119 24.0009 13.7856C24.0648 13.7593 24.1228 13.7207 24.1718 13.6719C24.2207 13.6232 24.2595 13.5652 24.286 13.5014C24.3125 13.4376 24.3262 13.3692 24.3262 13.3001V11.2018C24.3264 11.1326 24.3129 11.064 24.2865 11C24.2602 10.936 24.2214 10.8778 24.1724 10.8288C24.1234 10.7799 24.0653 10.7411 24.0013 10.7147C23.9373 10.6883 23.8687 10.6748 23.7994 10.6751H21.7012C21.6319 10.6748 21.5633 10.6883 21.4993 10.7147C21.4353 10.7411 21.3771 10.7799 21.3282 10.8288C21.2792 10.8778 21.2404 10.936 21.214 11C21.1877 11.064 21.1742 11.1326 21.1744 11.2018V13.3001C21.1762 13.5888 21.4124 13.8251 21.7012 13.8251ZM17.5012 0.700073C13.0455 0.700073 8.77239 2.47007 5.62178 5.62068C2.47117 8.77129 0.701172 13.0444 0.701172 17.5001C0.701172 21.9557 2.47117 26.2289 5.62178 29.3795C8.77239 32.5301 13.0455 34.3001 17.5012 34.3001C19.7074 34.3001 21.892 33.8655 23.9303 33.0213C25.9685 32.177 27.8205 30.9395 29.3806 29.3795C30.9406 27.8194 32.1781 25.9674 33.0223 23.9292C33.8666 21.8909 34.3012 19.7063 34.3012 17.5001C34.3012 15.2939 33.8666 13.1093 33.0223 11.071C32.1781 9.03272 30.9406 7.1807 29.3806 5.62068C27.8205 4.06065 25.9685 2.82318 23.9303 1.9789C21.892 1.13462 19.7074 0.700073 17.5012 0.700073ZM26.2512 24.3058C26.2512 25.3751 25.3762 26.2501 24.3069 26.2501H10.6954C9.62617 26.2501 8.75117 25.3751 8.75117 24.3058V10.6943C8.75117 9.62507 9.62617 8.75007 10.6954 8.75007H24.3069C25.3762 8.75007 26.2512 9.62507 26.2512 10.6943V24.3058Z" fill="#0A1748"/>
</g>
<defs>
<clipPath id="clip0_4711_2497">
<rect width="35" height="35" fill="white"/>
</clipPath>
</defs>
</svg>
