<svg width="24" height="24" viewBox="0 0 24 24" fill="none" xmlns="http://www.w3.org/2000/svg">
<path d="M15.6005 12.0005C15.6005 12.9552 15.2212 13.8709 14.5461 14.5461C13.8709 15.2212 12.9552 15.6005 12.0005 15.6005C11.0457 15.6005 10.13 15.2212 9.45488 14.5461C8.77975 13.8709 8.40047 12.9552 8.40047 12.0005C8.40127 11.7949 8.42087 11.5949 8.45927 11.4005H7.20047V16.1969C7.20047 16.5305 7.47047 16.8005 7.80407 16.8005H16.1981C16.3579 16.8002 16.5112 16.7364 16.6241 16.6233C16.737 16.5101 16.8005 16.3567 16.8005 16.1969V11.4005H15.5417C15.5801 11.5949 15.5997 11.7949 15.6005 12.0005ZM12.0005 14.4005C12.3157 14.4004 12.6279 14.3382 12.9191 14.2175C13.2103 14.0968 13.4749 13.9199 13.6978 13.6969C13.9206 13.474 14.0974 13.2093 14.218 12.918C14.3385 12.6267 14.4005 12.3145 14.4005 11.9993C14.4004 11.684 14.3382 11.3719 14.2175 11.0806C14.0968 10.7894 13.9199 10.5248 13.6969 10.302C13.474 10.0791 13.2093 9.90234 12.918 9.78177C12.6267 9.66121 12.3145 9.59919 11.9993 9.59927C11.3626 9.59943 10.7521 9.8525 10.302 10.3028C9.85188 10.7531 9.59911 11.3638 9.59927 12.0005C9.59943 12.6371 9.8525 13.2477 10.3028 13.6978C10.7531 14.1479 11.3638 14.4006 12.0005 14.4005ZM14.8805 9.48047H16.3193C16.3666 9.48063 16.4136 9.47143 16.4574 9.45341C16.5012 9.43539 16.541 9.4089 16.5746 9.37545C16.6082 9.34201 16.6348 9.30227 16.653 9.25851C16.6711 9.21476 16.6805 9.16785 16.6805 9.12047V7.68167C16.6806 7.63419 16.6714 7.58715 16.6533 7.54326C16.6352 7.49936 16.6086 7.45948 16.575 7.42591C16.5415 7.39234 16.5016 7.36574 16.4577 7.34764C16.4138 7.32954 16.3667 7.32031 16.3193 7.32047H14.8805C14.833 7.32031 14.786 7.32954 14.7421 7.34764C14.6982 7.36574 14.6583 7.39234 14.6247 7.42591C14.5911 7.45948 14.5645 7.49936 14.5464 7.54326C14.5283 7.58715 14.5191 7.63419 14.5193 7.68167V9.12047C14.5205 9.31847 14.6825 9.48047 14.8805 9.48047ZM12.0005 0.480469C8.94518 0.480469 6.01502 1.69418 3.8546 3.8546C1.69418 6.01502 0.480469 8.94518 0.480469 12.0005C0.480469 15.0558 1.69418 17.9859 3.8546 20.1463C6.01502 22.3068 8.94518 23.5205 12.0005 23.5205C13.5133 23.5205 15.0113 23.2225 16.409 22.6436C17.8067 22.0646 19.0766 21.2161 20.1463 20.1463C21.2161 19.0766 22.0646 17.8067 22.6436 16.409C23.2225 15.0113 23.5205 13.5133 23.5205 12.0005C23.5205 10.4876 23.2225 8.98963 22.6436 7.59196C22.0646 6.19428 21.2161 4.92433 20.1463 3.8546C19.0766 2.78487 17.8067 1.93631 16.409 1.35738C15.0113 0.778442 13.5133 0.480469 12.0005 0.480469ZM18.0005 16.6673C18.0005 17.4005 17.4005 18.0005 16.6673 18.0005H7.33367C6.60047 18.0005 6.00047 17.4005 6.00047 16.6673V7.33367C6.00047 6.60047 6.60047 6.00047 7.33367 6.00047H16.6673C17.4005 6.00047 18.0005 6.60047 18.0005 7.33367V16.6673Z" fill="#F56EAC"/>
</svg>
