<svg width="16" height="16" viewBox="0 0 16 16" fill="none" xmlns="http://www.w3.org/2000/svg">
<g id="entypo-social:instagram-with-circle" clip-path="url(#clip0_4570_5648)">
<path id="Vector" d="M10.4003 8.00001C10.4003 8.63653 10.1475 9.24698 9.69737 9.69706C9.24728 10.1472 8.63683 10.4 8.00031 10.4C7.36379 10.4 6.75334 10.1472 6.30326 9.69706C5.85317 9.24698 5.60031 8.63653 5.60031 8.00001C5.60085 7.86294 5.61391 7.72961 5.63951 7.60001H4.80031V10.7976C4.80031 11.02 4.98031 11.2 5.20271 11.2H10.7987C10.9053 11.1998 11.0074 11.1573 11.0827 11.0819C11.158 11.0064 11.2003 10.9042 11.2003 10.7976V7.60001H10.3611C10.3867 7.72961 10.3998 7.86294 10.4003 8.00001ZM8.00031 9.60001C8.21048 9.59996 8.41858 9.55851 8.61273 9.47803C8.80688 9.39756 8.98328 9.27963 9.13185 9.13098C9.28042 8.98233 9.39826 8.80587 9.47864 8.61168C9.55902 8.41749 9.60037 8.20937 9.60031 7.99921C9.60026 7.78904 9.55881 7.58094 9.47834 7.38679C9.39786 7.19264 9.27993 7.01624 9.13128 6.86767C8.98264 6.7191 8.80618 6.60126 8.61199 6.52088C8.4178 6.4405 8.20968 6.39915 7.99951 6.39921C7.57506 6.39931 7.16803 6.56803 6.86798 6.86824C6.56792 7.16845 6.39941 7.57556 6.39951 8.00001C6.39962 8.42446 6.56833 8.83149 6.86854 9.13155C7.16875 9.4316 7.57586 9.60011 8.00031 9.60001ZM9.92031 6.32001H10.8795C10.9111 6.32011 10.9424 6.31398 10.9716 6.30197C11.0008 6.28995 11.0274 6.27229 11.0497 6.25C11.0721 6.2277 11.0899 6.20121 11.102 6.17204C11.1141 6.14287 11.1203 6.11159 11.1203 6.08001V5.12081C11.1204 5.08916 11.1143 5.0578 11.1022 5.02853C11.0901 4.99927 11.0724 4.97268 11.05 4.9503C11.0276 4.92792 11.0011 4.91019 10.9718 4.89812C10.9425 4.88606 10.9112 4.8799 10.8795 4.88001H9.92031C9.88866 4.8799 9.8573 4.88606 9.82804 4.89812C9.79878 4.91019 9.77219 4.92792 9.74981 4.9503C9.72742 4.97268 9.70969 4.99927 9.69763 5.02853C9.68556 5.0578 9.67941 5.08916 9.67951 5.12081V6.08001C9.68031 6.21201 9.78831 6.32001 9.92031 6.32001ZM8.00031 0.320007C5.96345 0.320007 4.01001 1.12915 2.56973 2.56943C1.12945 4.00971 0.320313 5.96315 0.320312 8.00001C0.320313 10.0369 1.12945 11.9903 2.56973 13.4306C4.01001 14.8709 5.96345 15.68 8.00031 15.68C9.00887 15.68 10.0075 15.4814 10.9393 15.0954C11.8711 14.7094 12.7177 14.1437 13.4309 13.4306C14.144 12.7174 14.7098 11.8708 15.0957 10.939C15.4817 10.0072 15.6803 9.00856 15.6803 8.00001C15.6803 6.99146 15.4817 5.99278 15.0957 5.061C14.7098 4.12922 14.144 3.28258 13.4309 2.56943C12.7177 1.85627 11.8711 1.29057 10.9393 0.904613C10.0075 0.518656 9.00887 0.320007 8.00031 0.320007ZM12.0003 11.1112C12.0003 11.6 11.6003 12 11.1115 12H4.88911C4.40031 12 4.00031 11.6 4.00031 11.1112V4.88881C4.00031 4.40001 4.40031 4.00001 4.88911 4.00001H11.1115C11.6003 4.00001 12.0003 4.40001 12.0003 4.88881V11.1112Z" fill="white"/>
</g>
<defs>
<clipPath id="clip0_4570_5648">
<rect width="16" height="16" fill="white"/>
</clipPath>
</defs>
</svg>
