<svg width="49" height="48" viewBox="0 0 49 48" fill="none" xmlns="http://www.w3.org/2000/svg">
<path d="M40.6665 12H36.3065C36.5265 11.38 36.6665 10.7 36.6665 9.99995C36.6687 8.7096 36.2542 7.45303 35.4848 6.41714C34.7155 5.38126 33.6322 4.62141 32.3963 4.25063C31.1604 3.87985 29.8378 3.91795 28.6252 4.35925C27.4127 4.80056 26.375 5.6215 25.6665 6.69995L24.6665 8.03995L23.6665 6.67995C22.5865 5.07995 20.7665 3.99995 18.6665 3.99995C15.3465 3.99995 12.6665 6.67995 12.6665 9.99995C12.6665 10.7 12.8065 11.38 13.0265 12H8.6665C6.4465 12 4.6865 13.78 4.6865 16L4.6665 38C4.6665 40.22 6.4465 42 8.6665 42H40.6665C42.8865 42 44.6665 40.22 44.6665 38V16C44.6665 13.78 42.8865 12 40.6665 12ZM30.6665 7.99995C31.7665 7.99995 32.6665 8.89995 32.6665 9.99995C32.6665 11.1 31.7665 12 30.6665 12C29.5665 12 28.6665 11.1 28.6665 9.99995C28.6665 8.89995 29.5665 7.99995 30.6665 7.99995ZM18.6665 7.99995C19.7665 7.99995 20.6665 8.89995 20.6665 9.99995C20.6665 11.1 19.7665 12 18.6665 12C17.5665 12 16.6665 11.1 16.6665 9.99995C16.6665 8.89995 17.5665 7.99995 18.6665 7.99995ZM40.6665 38H8.6665V34H40.6665V38ZM40.6665 28H8.6665V16H18.8265L14.6665 21.66L17.9065 24L24.6665 14.8L31.4265 24L34.6665 21.66L30.5065 16H40.6665V28Z" fill="#0A1748"/>
</svg>
