<svg width="49" height="48" viewBox="0 0 49 48" fill="none" xmlns="http://www.w3.org/2000/svg">
<path d="M43.153 23.16L25.153 5.16C24.433 4.44 23.433 4 22.333 4H8.33301C6.13301 4 4.33301 5.8 4.33301 8V22C4.33301 23.1 4.77301 24.1 5.51301 24.84L23.513 42.84C24.233 43.56 25.233 44 26.333 44C27.433 44 28.433 43.56 29.153 42.82L43.153 28.82C43.893 28.1 44.333 27.1 44.333 26C44.333 24.9 43.873 23.88 43.153 23.16ZM26.333 40.02L8.33301 22V8H22.333V7.98L40.333 25.98L26.333 40.02Z" fill="#0A1748"/>
<path d="M13.333 16C14.9899 16 16.333 14.6569 16.333 13C16.333 11.3431 14.9899 10 13.333 10C11.6762 10 10.333 11.3431 10.333 13C10.333 14.6569 11.6762 16 13.333 16Z" fill="#0A1748"/>
<path d="M18.1328 25.1C18.1328 26.24 18.5928 27.24 19.3328 28L26.3328 35L33.3328 28C34.0417 27.2191 34.423 26.1954 34.3976 25.141C34.3721 24.0866 33.9419 23.0825 33.1961 22.3367C32.4504 21.5909 31.4462 21.1607 30.3918 21.1353C29.3374 21.1098 28.3137 21.4911 27.5328 22.2L26.3328 23.4L25.1328 22.22C24.3928 21.46 23.3528 21 22.2328 21C19.9728 21 18.1328 22.84 18.1328 25.1Z" fill="#0A1748"/>
</svg>
