<svg width="49" height="48" viewBox="0 0 49 48" fill="none" xmlns="http://www.w3.org/2000/svg">
<path d="M38.333 6H10.333C8.13301 6 6.33301 7.8 6.33301 10V38C6.33301 40.2 8.13301 42 10.333 42H38.333C40.533 42 42.333 40.2 42.333 38V10C42.333 7.8 40.533 6 38.333 6ZM38.333 38H34.873L38.333 34.54V38ZM38.333 32H36.633L30.633 38H27.393L33.393 32H29.153L23.153 38H19.933L25.933 32H21.693L15.693 38H12.013L18.013 32H13.773L10.333 35.44V10H38.333V32Z" fill="#0A1748"/>
<path d="M21.673 22L25.673 26L35.833 15.82L33.013 13L25.673 20.34L21.673 16.34L12.833 25.18L15.653 28L21.673 22Z" fill="#0A1748"/>
</svg>
