<svg width="49" height="48" viewBox="0 0 49 48" fill="none" xmlns="http://www.w3.org/2000/svg">
<path d="M25.3331 13.8C28.8931 13.8 30.2131 15.5 30.3331 18H34.7531C34.6131 14.56 32.5131 11.4 28.3331 10.38V6H22.3331V10.32C21.5531 10.48 20.8331 10.74 20.1331 11.04L23.1531 14.06C23.7931 13.9 24.5331 13.8 25.3331 13.8ZM11.2731 7.84L8.45312 10.66L15.3331 17.54C15.3331 21.7 18.4531 23.98 23.1531 25.36L30.1731 32.38C29.4931 33.36 28.0731 34.2 25.3331 34.2C21.2131 34.2 19.5931 32.36 19.3731 30H14.9731C15.2131 34.38 18.4931 36.84 22.3331 37.66V42H28.3331V37.7C30.2531 37.34 31.9931 36.6 33.2531 35.46L37.6931 39.9L40.5131 37.08L11.2731 7.84Z" fill="#0A1748"/>
</svg>
