<svg width="24" height="24" viewBox="0 0 24 24" fill="none" xmlns="http://www.w3.org/2000/svg">
<path d="M12.2198 19.85C12.0398 20.03 11.7198 20.06 11.5098 19.85C11.4161 19.7556 11.3636 19.628 11.3636 19.495C11.3636 19.362 11.4161 19.2344 11.5098 19.14L14.8998 15.75L13.4898 14.34L10.0998 17.73C9.90982 17.93 9.58982 17.92 9.38982 17.73C9.29614 17.6356 9.24358 17.508 9.24358 17.375C9.24358 17.242 9.29614 17.1144 9.38982 17.02L12.7798 13.63L11.3698 12.22L7.97982 15.61C7.79982 15.79 7.47982 15.82 7.26982 15.61C7.17826 15.5145 7.12715 15.3873 7.12715 15.255C7.12715 15.1227 7.17826 14.9955 7.26982 14.9L10.6598 11.51L9.23982 10.1L5.84982 13.49C5.66982 13.67 5.34982 13.7 5.13982 13.49C5.04826 13.3945 4.99715 13.2673 4.99715 13.135C4.99715 13.0027 5.04826 12.8755 5.13982 12.78L9.51982 8.39999L11.3898 10.26C12.3398 11.21 13.9798 11.2 14.9298 10.26C15.9098 9.27999 15.9098 7.69999 14.9298 6.71999L13.0698 4.85999L13.3498 4.57999C14.1298 3.79999 15.3998 3.79999 16.1798 4.57999L20.4198 8.81999C21.1998 9.59999 21.1998 10.87 20.4198 11.65L12.2198 19.85ZM21.8298 13.07C22.5785 12.3184 22.9988 11.3008 22.9988 10.24C22.9988 9.17916 22.5785 8.16156 21.8298 7.40999L17.5898 3.16999C16.8382 2.42133 15.8206 2.00098 14.7598 2.00098C13.699 2.00098 12.6814 2.42133 11.9298 3.16999L11.6498 3.44999L11.3698 3.16999C10.6182 2.42133 9.60064 2.00098 8.53982 2.00098C7.47899 2.00098 6.46139 2.42133 5.70982 3.16999L2.16982 6.70999C1.49295 7.38397 1.08032 8.27841 1.00692 9.23078C0.93352 10.1832 1.20421 11.1303 1.76982 11.9L3.21982 10.45C3.02651 10.0726 2.95817 9.64344 3.02468 9.22463C3.09119 8.80581 3.28909 8.41898 3.58982 8.11999L7.12982 4.57999C7.90982 3.79999 9.17982 3.79999 9.95982 4.57999L13.5198 8.13999C13.6998 8.31999 13.7298 8.63999 13.5198 8.84999C13.3098 9.05999 12.9898 9.02999 12.8098 8.84999L9.51982 5.56999L3.71982 11.36C2.73982 12.33 2.73982 13.92 3.71982 14.9C4.10982 15.29 4.60982 15.53 5.13982 15.6C5.21017 16.1376 5.45616 16.6369 5.83954 17.0203C6.22292 17.4037 6.72222 17.6496 7.25982 17.72C7.33017 18.2576 7.57616 18.7569 7.95954 19.1403C8.34292 19.5237 8.84222 19.7696 9.37982 19.84C9.44982 20.38 9.68982 20.87 10.0798 21.26C10.5498 21.73 11.1798 21.99 11.8498 21.99C12.5198 21.99 13.1498 21.73 13.6198 21.26L21.8298 13.07Z" fill="#E9C21B"/>
</svg>
