<svg width="49" height="48" viewBox="0 0 49 48" fill="none" xmlns="http://www.w3.org/2000/svg">
<path d="M43.487 23.16L25.487 5.16C24.767 4.44 23.767 4 22.667 4H8.66699C6.46699 4 4.66699 5.8 4.66699 8V22C4.66699 23.1 5.10699 24.1 5.84699 24.84L23.847 42.84C24.567 43.56 25.567 44 26.667 44C27.767 44 28.767 43.56 29.487 42.82L43.487 28.82C44.227 28.1 44.667 27.1 44.667 26C44.667 24.9 44.207 23.88 43.487 23.16ZM26.667 40.02L8.66699 22V8H22.667V7.98L40.667 25.98L26.667 40.02Z" fill="#E9C21B"/>
<path d="M13.667 16C15.3238 16 16.667 14.6569 16.667 13C16.667 11.3431 15.3238 10 13.667 10C12.0101 10 10.667 11.3431 10.667 13C10.667 14.6569 12.0101 16 13.667 16Z" fill="#E9C21B"/>
<path d="M18.4668 25.1C18.4668 26.24 18.9268 27.24 19.6668 28L26.6668 35L33.6668 28C34.3757 27.2191 34.757 26.1954 34.7315 25.141C34.7061 24.0866 34.2759 23.0825 33.5301 22.3367C32.7843 21.5909 31.7802 21.1607 30.7258 21.1353C29.6714 21.1098 28.6477 21.4911 27.8668 22.2L26.6668 23.4L25.4668 22.22C24.7268 21.46 23.6868 21 22.5668 21C20.3068 21 18.4668 22.84 18.4668 25.1Z" fill="#E9C21B"/>
</svg>
