<svg width="49" height="48" viewBox="0 0 49 48" fill="none" xmlns="http://www.w3.org/2000/svg">
<path d="M24.667 13C28.3445 12.9878 31.9507 14.0136 35.0712 15.9595C38.1917 17.9053 40.6998 20.6923 42.307 24C39.007 30.74 32.267 35 24.667 35C17.067 35 10.327 30.74 7.02699 24C8.63423 20.6923 11.1423 17.9053 14.2628 15.9595C17.3832 14.0136 20.9895 12.9878 24.667 13ZM24.667 9C14.667 9 6.12699 15.22 2.66699 24C6.12699 32.78 14.667 39 24.667 39C34.667 39 43.207 32.78 46.667 24C43.207 15.22 34.667 9 24.667 9ZM24.667 19C25.9931 19 27.2648 19.5268 28.2025 20.4645C29.1402 21.4021 29.667 22.6739 29.667 24C29.667 25.3261 29.1402 26.5979 28.2025 27.5355C27.2648 28.4732 25.9931 29 24.667 29C23.3409 29 22.0691 28.4732 21.1315 27.5355C20.1938 26.5979 19.667 25.3261 19.667 24C19.667 22.6739 20.1938 21.4021 21.1315 20.4645C22.0691 19.5268 23.3409 19 24.667 19ZM24.667 15C19.707 15 15.667 19.04 15.667 24C15.667 28.96 19.707 33 24.667 33C29.627 33 33.667 28.96 33.667 24C33.667 19.04 29.627 15 24.667 15Z" fill="#0A1748"/>
</svg>
