<svg width="73" height="72" viewBox="0 0 73 72" fill="none" xmlns="http://www.w3.org/2000/svg">
<g clip-path="url(#clip0_5763_4177)">
<path d="M61.4877 10.8689V61.1311C61.4877 61.4911 61.4174 61.8455 61.2866 62.1731C61.153 62.5106 60.9547 62.8214 60.6974 63.0858L52.6072 71.1759C52.3344 71.4488 52.0124 71.6597 51.6608 71.7989C51.3331 71.9297 50.9788 72 50.6188 72H22.7131C22.3531 72 21.9988 71.9297 21.6711 71.7989C21.3196 71.6597 20.9975 71.4488 20.7247 71.1759L12.6331 63.0844C12.3772 62.82 12.1789 62.5092 12.0453 62.1731C11.9146 61.8455 11.8442 61.4911 11.8442 61.1311V10.8689C11.8442 10.5089 11.9146 10.1545 12.0453 9.82687C12.1789 9.48937 12.3772 9.17859 12.6346 8.91422C12.6444 8.90297 12.6556 8.89172 12.6669 8.88047L20.7247 0.824063C20.9975 0.55125 21.3196 0.340312 21.6711 0.201094C21.9988 0.0703125 22.3531 0 22.7131 0H50.6188C50.9788 0 51.3331 0.0703125 51.6608 0.201094C52.0124 0.340312 52.3344 0.55125 52.6072 0.824063L60.665 8.88047C60.6763 8.89172 60.6875 8.90297 60.6974 8.91422C60.9547 9.17859 61.153 9.48937 61.2866 9.82687C61.4174 10.1545 61.4877 10.5089 61.4877 10.8689Z" fill="#F7A6C1"/>
<path d="M27.4573 62.3556L21.4888 56.3877V15.612L27.4573 9.64404H45.8764L51.8449 15.6123V56.3874L45.8764 62.3556H27.4573Z" fill="#FC709B"/>
<path d="M24.3008 17.3349V54.6652L12.0453 62.1732C11.9146 61.8455 11.8442 61.4911 11.8442 61.1311V10.8689C11.8442 10.5089 11.9146 10.1546 12.0453 9.8269L24.3008 17.3349Z" fill="#E01152"/>
<path d="M51.6621 71.7989C51.3344 71.9297 50.98 72 50.62 72H22.7144C22.3544 72 22 71.9297 21.6724 71.7989L29.1803 59.5435H44.1541L51.6621 71.7989Z" fill="#FE255F"/>
<path d="M51.6621 0.201094L44.1541 12.4566H29.1803L21.6724 0.201094C22 0.0703125 22.3544 0 22.7144 0H50.62C50.98 0 51.3344 0.0703125 51.6621 0.201094Z" fill="#FE255F"/>
<path d="M61.4888 48.9999V30.1042C61.4888 28.7451 60.387 27.6433 59.0278 27.6433C57.6687 27.6433 56.5669 28.7451 56.5669 30.1042V48.9999C56.5669 50.359 57.6687 51.4608 59.0278 51.4608C60.387 51.4608 61.4888 50.359 61.4888 48.9999Z" fill="#FFC2D9"/>
<path d="M61.4888 42.6866V33.0977C61.4888 31.7385 60.387 30.6367 59.0278 30.6367C57.6687 30.6367 56.5669 31.7385 56.5669 33.0977V42.6866C56.5669 44.0457 57.6687 45.1475 59.0278 45.1475C60.387 45.1475 61.4888 44.0457 61.4888 42.6866Z" fill="#FFD2E3"/>
<path d="M16.7661 50.7052V21.6846C16.7661 20.3254 15.6643 19.2236 14.3052 19.2236C12.946 19.2236 11.8442 20.3254 11.8442 21.6846V50.7052C11.8442 52.0644 12.946 53.1662 14.3052 53.1662C15.6643 53.1662 16.7661 52.0644 16.7661 50.7052Z" fill="#FE255F"/>
<path d="M16.7661 40.4444V25.4292C16.7661 24.0701 15.6643 22.9683 14.3052 22.9683C12.946 22.9683 11.8442 24.0701 11.8442 25.4292V40.4444C11.8442 41.8036 12.946 42.9054 14.3052 42.9054C15.6643 42.9054 16.7661 41.8036 16.7661 40.4444Z" fill="#FC709B"/>
<path d="M16.7661 32.6978V29.1936C16.7661 27.8345 15.6643 26.7327 14.3052 26.7327C12.946 26.7327 11.8442 27.8345 11.8442 29.1936V32.6978C11.8442 34.057 12.946 35.1588 14.3052 35.1588C15.6643 35.1588 16.7661 34.057 16.7661 32.6978Z" fill="#F7A6C1"/>
<path d="M29.18 59.5434L24.3013 54.6647V17.3355L29.18 12.4568H44.1534L49.0323 17.3355V54.6647L44.1534 59.5434H29.18Z" fill="#FE255F"/>
<path d="M61.2866 9.82695L51.8436 15.6123L49.0311 17.3349L44.1528 12.4566L45.8755 9.64414L51.6608 0.201172C52.0124 0.340391 52.3344 0.551328 52.6072 0.824141L60.6974 8.9143C60.9547 9.17867 61.153 9.48945 61.2866 9.82695Z" fill="#FC709B"/>
<path d="M49.0311 17.3348L44.1528 12.4565L45.8755 9.64404L51.8436 15.6122L49.0311 17.3348Z" fill="#FE255F"/>
<path d="M29.1792 12.4566L24.3009 17.3349L12.0454 9.82695C12.179 9.48945 12.3773 9.17867 12.6346 8.9143L20.7248 0.824141C20.9976 0.551328 21.3196 0.340391 21.6712 0.201172L29.1792 12.4566Z" fill="#C40047"/>
<path d="M61.2866 62.173C61.153 62.5105 60.9547 62.8213 60.6974 63.0857L52.6072 71.1758C52.3344 71.4486 52.0124 71.6596 51.6608 71.7988L45.8755 62.3558L44.1528 59.5433L49.0311 54.665L51.8436 56.3877L61.2866 62.173Z" fill="#FC709B"/>
<path d="M29.1792 59.5433L21.6712 71.7988C21.3196 71.6596 20.9976 71.4486 20.7248 71.1758L12.6332 63.0843C12.3773 62.8199 12.179 62.5091 12.0454 62.173L24.3009 54.665L29.1792 59.5433Z" fill="#C40047"/>
<path d="M49.0316 17.3348V54.6651L44.1533 59.5434H29.1795L24.3013 54.6651V52.3223C35.5021 50.6053 44.1561 39.2119 44.1561 25.4095C44.1561 20.7183 43.1563 16.3054 41.397 12.4565H44.1533L49.0316 17.3348Z" fill="#E01152"/>
<path d="M49.0309 41.6855V54.6652L44.1526 59.5435H29.1788L28.1157 58.4804C37.5882 56.7859 45.414 50.3354 49.0309 41.6855Z" fill="#C40047"/>
<path d="M29.2231 36.4975V19.3739L31.2186 17.3784H35.6271C36.9862 17.3784 38.088 16.2766 38.088 14.9175C38.088 13.5583 36.9862 12.4565 35.6271 12.4565H29.1795L24.3013 17.3348V36.4975C24.3013 37.8567 25.4031 38.9584 26.7622 38.9584C28.1213 38.9584 29.2231 37.8567 29.2231 36.4975Z" fill="#FC709B"/>
<path d="M29.2231 31.1803V21.0166C29.2231 19.6575 28.1213 18.5557 26.7622 18.5557C25.4031 18.5557 24.3013 19.6575 24.3013 21.0166V31.1803C24.3013 32.5394 25.4031 33.6412 26.7622 33.6412C28.1213 33.6412 29.2231 32.5394 29.2231 31.1803Z" fill="#F7A6C1"/>
<path d="M44.1533 59.5434L45.876 62.3559H27.4569L21.4888 56.3878V15.6122L27.4569 9.64404H45.876L44.1533 12.4565H29.1795L24.3013 17.3348V54.6651L29.1795 59.5434H44.1533Z" fill="#FE255F"/>
<path d="M45.8766 62.356H27.4575L29.1802 59.5435H44.1539L45.8766 62.356Z" fill="#E01152"/>
<path d="M45.8766 9.64404L44.1539 12.4565H29.1802L27.4575 9.64404H45.8766Z" fill="#E01152"/>
<path d="M24.3013 17.335V54.6653L21.4888 56.3879V15.6123L24.3013 17.335Z" fill="#C40047"/>
<path d="M29.1795 12.4565L24.3013 17.3348L21.4888 15.6122L27.4569 9.64404L29.1795 12.4565Z" fill="#A80045"/>
<path d="M29.1795 59.5433L27.4569 62.3558L21.4888 56.3877L24.3013 54.665L29.1795 59.5433Z" fill="#A80045"/>
<path d="M49.0311 54.665L51.8436 56.3877L45.8755 62.3558L44.1528 59.5433L49.0311 54.665Z" fill="#FE255F"/>
</g>
<defs>
<clipPath id="clip0_5763_4177">
<rect width="72" height="72" fill="white" transform="translate(0.666504)"/>
</clipPath>
</defs>
</svg>
