<svg width="49" height="48" viewBox="0 0 49 48" fill="none" xmlns="http://www.w3.org/2000/svg">
<path d="M25.3336 13.8C28.8936 13.8 30.2136 15.5 30.3336 18H34.7536C34.6136 14.56 32.5136 11.4 28.3336 10.38V6H22.3336V10.32C21.5536 10.48 20.8336 10.74 20.1336 11.04L23.1536 14.06C23.7936 13.9 24.5336 13.8 25.3336 13.8ZM11.2736 7.84L8.45361 10.66L15.3336 17.54C15.3336 21.7 18.4536 23.98 23.1536 25.36L30.1736 32.38C29.4936 33.36 28.0736 34.2 25.3336 34.2C21.2136 34.2 19.5936 32.36 19.3736 30H14.9736C15.2136 34.38 18.4936 36.84 22.3336 37.66V42H28.3336V37.7C30.2536 37.34 31.9936 36.6 33.2536 35.46L37.6936 39.9L40.5136 37.08L11.2736 7.84Z" fill="#2C9D81"/>
</svg>
