<svg width="49" height="48" viewBox="0 0 49 48" fill="none" xmlns="http://www.w3.org/2000/svg">
<path d="M33.6665 6C30.1865 6 26.8465 7.62 24.6665 10.18C22.4865 7.62 19.1465 6 15.6665 6C9.5065 6 4.6665 10.84 4.6665 17C4.6665 24.56 11.4665 30.72 21.7665 40.08L24.6665 42.7L27.5665 40.06C37.8665 30.72 44.6665 24.56 44.6665 17C44.6665 10.84 39.8265 6 33.6665 6ZM24.8665 37.1L24.6665 37.3L24.4665 37.1C14.9465 28.48 8.6665 22.78 8.6665 17C8.6665 13 11.6665 10 15.6665 10C18.7465 10 21.7465 11.98 22.8065 14.72H26.5465C27.5865 11.98 30.5865 10 33.6665 10C37.6665 10 40.6665 13 40.6665 17C40.6665 22.78 34.3865 28.48 24.8665 37.1Z" fill="#2C9D81"/>
</svg>
