<svg width="27" height="27" viewBox="0 0 27 27" fill="none" xmlns="http://www.w3.org/2000/svg">
<path d="M19.733 14.8337C20.733 14.8337 21.613 14.287 22.0663 13.4603L26.8397 4.80699C26.952 4.60489 27.0097 4.37695 27.0069 4.14573C27.0041 3.91451 26.941 3.68802 26.8239 3.48867C26.7067 3.28933 26.5395 3.12403 26.3388 3.00915C26.1381 2.89427 25.9109 2.83377 25.6797 2.83366H5.94634L4.69301 0.166992H0.333008V2.83366H2.99967L7.79967 12.9537L5.99967 16.207C5.02634 17.9937 6.30634 20.167 8.33301 20.167H24.333V17.5003H8.33301L9.79967 14.8337H19.733ZM7.21301 5.50033H23.413L19.733 12.167H10.373L7.21301 5.50033ZM8.33301 21.5003C6.86634 21.5003 5.67968 22.7003 5.67968 24.167C5.67968 25.6337 6.86634 26.8337 8.33301 26.8337C9.79967 26.8337 10.9997 25.6337 10.9997 24.167C10.9997 22.7003 9.79967 21.5003 8.33301 21.5003ZM21.6663 21.5003C20.1997 21.5003 19.013 22.7003 19.013 24.167C19.013 25.6337 20.1997 26.8337 21.6663 26.8337C23.133 26.8337 24.333 25.6337 24.333 24.167C24.333 22.7003 23.133 21.5003 21.6663 21.5003Z" fill="#A2A2A2"/>
</svg>
