<svg width="25" height="24" viewBox="0 0 25 24" fill="none" xmlns="http://www.w3.org/2000/svg">
<g clip-path="url(#clip0_4570_7965)">
<path d="M9.30877 14.9197L15.4188 3.88271C15.5028 3.73071 15.5868 3.58071 15.6628 3.42371C15.7318 3.28171 15.7898 3.13871 15.8278 2.98371C15.9078 2.65771 15.8858 2.31771 15.7618 2.00671C15.6414 1.70031 15.4235 1.44204 15.1418 1.27171C14.8653 1.10435 14.5401 1.03627 14.2198 1.07871C13.8998 1.12171 13.6068 1.27271 13.3758 1.50871C13.2658 1.61871 13.1758 1.74371 13.0928 1.87671C13.0008 2.02271 12.9178 2.17471 12.8338 2.32671L12.4478 3.02371L12.0608 2.32571C11.9768 2.17471 11.8938 2.02271 11.8018 1.87671C11.7207 1.74406 11.6259 1.62037 11.5188 1.50771C11.2934 1.27431 10.9962 1.12325 10.6748 1.07871C10.3548 1.0365 10.0299 1.10457 9.75377 1.27171C9.47204 1.44204 9.25418 1.70031 9.13377 2.00671C9.0102 2.31748 8.98712 2.65915 9.06777 2.98371C9.10577 3.13871 9.16377 3.28171 9.23177 3.42371C9.30777 3.58071 9.39177 3.73071 9.47577 3.88271L10.7238 6.13671L5.86177 14.9187H2.52977C2.36177 14.9187 2.19377 14.9187 2.02677 14.9287C1.87477 14.9377 1.72677 14.9567 1.57877 14.9997C1.26877 15.0897 0.996768 15.2797 0.800768 15.5477C0.604822 15.8174 0.499203 16.1422 0.499024 16.4756C0.498844 16.8089 0.604113 17.1338 0.799768 17.4037C0.996768 17.6717 1.26777 17.8607 1.57877 17.9517C1.72677 17.9947 1.87477 18.0137 2.02677 18.0227C2.19377 18.0327 2.36177 18.0327 2.52977 18.0327H15.6268C15.6665 17.9452 15.7 17.855 15.7268 17.7627C16.1418 16.3467 15.1108 14.9187 13.6918 14.9187L9.30877 14.9197ZM3.61277 18.5417L2.82077 20.0417C2.73877 20.1977 2.65577 20.3517 2.58177 20.5127C2.51348 20.6577 2.45988 20.8091 2.42177 20.9647C2.34153 21.2979 2.36383 21.6475 2.48577 21.9677C2.60677 22.2857 2.81977 22.5507 3.09277 22.7227C3.36577 22.8947 3.68177 22.9647 3.99377 22.9197C4.30777 22.8757 4.59377 22.7217 4.81977 22.4797C4.92777 22.3647 5.01577 22.2377 5.09777 22.1017C5.18777 21.9517 5.26877 21.7957 5.35077 21.6397L6.49977 19.4637C6.40977 19.3137 5.55277 17.9937 3.61277 18.5417ZM24.1988 15.5357C24.0058 15.2746 23.7319 15.0848 23.4198 14.9957C23.2736 14.9551 23.1233 14.9313 22.9718 14.9247C22.8038 14.9147 22.6368 14.9147 22.4688 14.9147H19.1478L14.7578 7.09971C14.1816 7.70427 13.8058 8.47182 13.6818 9.29771C13.5206 10.3307 13.713 11.3878 14.2278 12.2977L19.5018 21.6907C19.5858 21.8407 19.6688 21.9907 19.7608 22.1347C19.8448 22.2647 19.9348 22.3877 20.0438 22.4987C20.2748 22.7307 20.5678 22.8787 20.8888 22.9217C21.2098 22.9647 21.5318 22.8977 21.8108 22.7317C22.0914 22.5639 22.3094 22.3089 22.4318 22.0057C22.5568 21.6987 22.5778 21.3637 22.4978 21.0417C22.4582 20.8916 22.4029 20.7462 22.3328 20.6077C22.2578 20.4527 22.1728 20.3047 22.0888 20.1547L20.8728 17.9887H22.4688C22.6368 17.9887 22.8038 17.9887 22.9718 17.9797C23.1238 17.9707 23.2718 17.9517 23.4198 17.9097C23.7324 17.8206 24.0068 17.6303 24.1998 17.3687C24.3952 17.1033 24.5004 16.7823 24.4998 16.4527C24.5004 16.1231 24.3952 15.8021 24.1998 15.5367" fill="#070B16"/>
</g>
<defs>
<clipPath id="clip0_4570_7965">
<rect width="24" height="24" fill="white" transform="translate(0.5)"/>
</clipPath>
</defs>
</svg>
