<svg width="49" height="48" viewBox="0 0 49 48" fill="none" xmlns="http://www.w3.org/2000/svg">
<path d="M24.334 13C28.0115 12.9878 31.6177 14.0136 34.7382 15.9595C37.8587 17.9053 40.3667 20.6923 41.974 24C38.674 30.74 31.934 35 24.334 35C16.734 35 9.99398 30.74 6.69398 24C8.30122 20.6923 10.8092 17.9053 13.9297 15.9595C17.0502 14.0136 20.6565 12.9878 24.334 13ZM24.334 9C14.334 9 5.79398 15.22 2.33398 24C5.79398 32.78 14.334 39 24.334 39C34.334 39 42.874 32.78 46.334 24C42.874 15.22 34.334 9 24.334 9ZM24.334 19C25.6601 19 26.9318 19.5268 27.8695 20.4645C28.8072 21.4021 29.334 22.6739 29.334 24C29.334 25.3261 28.8072 26.5979 27.8695 27.5355C26.9318 28.4732 25.6601 29 24.334 29C23.0079 29 21.7361 28.4732 20.7985 27.5355C19.8608 26.5979 19.334 25.3261 19.334 24C19.334 22.6739 19.8608 21.4021 20.7985 20.4645C21.7361 19.5268 23.0079 19 24.334 19ZM24.334 15C19.374 15 15.334 19.04 15.334 24C15.334 28.96 19.374 33 24.334 33C29.294 33 33.334 28.96 33.334 24C33.334 19.04 29.294 15 24.334 15Z" fill="#0A1748"/>
</svg>
