<svg width="49" height="48" viewBox="0 0 49 48" fill="none" xmlns="http://www.w3.org/2000/svg">
<path d="M25.1056 39.7C24.7456 40.06 24.1056 40.12 23.6856 39.7C23.4983 39.5112 23.3932 39.256 23.3932 38.99C23.3932 38.724 23.4983 38.4688 23.6856 38.28L30.4656 31.5L27.6456 28.68L20.8657 35.46C20.4857 35.86 19.8456 35.84 19.4457 35.46C19.2583 35.2712 19.1532 35.016 19.1532 34.75C19.1532 34.484 19.2583 34.2288 19.4457 34.04L26.2256 27.26L23.4056 24.44L16.6257 31.22C16.2657 31.58 15.6257 31.64 15.2057 31.22C15.0225 31.029 14.9203 30.7746 14.9203 30.51C14.9203 30.2454 15.0225 29.991 15.2057 29.8L21.9856 23.02L19.1456 20.2L12.3657 26.98C12.0057 27.34 11.3657 27.4 10.9457 26.98C10.7625 26.789 10.6603 26.5346 10.6603 26.27C10.6603 26.0054 10.7625 25.751 10.9457 25.56L19.7057 16.8L23.4457 20.52C25.3456 22.42 28.6257 22.4 30.5257 20.52C32.4856 18.56 32.4856 15.4 30.5257 13.44L26.8056 9.72001L27.3657 9.16001C28.9256 7.60001 31.4657 7.60001 33.0257 9.16001L41.5056 17.64C43.0657 19.2 43.0657 21.74 41.5056 23.3L25.1056 39.7ZM44.3256 26.14C45.823 24.6369 46.6637 22.6017 46.6637 20.48C46.6637 18.3584 45.823 16.3231 44.3256 14.82L35.8456 6.34001C34.3425 4.84269 32.3073 4.00198 30.1856 4.00198C28.064 4.00198 26.0288 4.84269 24.5257 6.34001L23.9656 6.90001L23.4056 6.34001C21.9025 4.84269 19.8673 4.00198 17.7457 4.00198C15.624 4.00198 13.5888 4.84269 12.0857 6.34001L5.00565 13.42C3.65191 14.768 2.82666 16.5568 2.67986 18.4616C2.53306 20.3663 3.07445 22.2605 4.20565 23.8L7.10565 20.9C6.71903 20.1451 6.58236 19.2869 6.71538 18.4493C6.84839 17.6117 7.2442 16.838 7.84565 16.24L14.9257 9.16001C16.4857 7.60001 19.0257 7.60001 20.5856 9.16001L27.7057 16.28C28.0657 16.64 28.1257 17.28 27.7057 17.7C27.2857 18.12 26.6457 18.06 26.2857 17.7L19.7057 11.14L8.10565 22.72C6.14565 24.66 6.14565 27.84 8.10565 29.8C8.88565 30.58 9.88565 31.06 10.9457 31.2C11.0864 32.2752 11.5783 33.2738 12.3451 34.0406C13.1119 34.8073 14.1105 35.2993 15.1857 35.44C15.3264 36.5152 15.8183 37.5138 16.5851 38.2806C17.3519 39.0473 18.3505 39.5393 19.4256 39.68C19.5656 40.76 20.0456 41.74 20.8256 42.52C21.7656 43.46 23.0257 43.98 24.3657 43.98C25.7057 43.98 26.9656 43.46 27.9056 42.52L44.3256 26.14Z" fill="#0A1748"/>
</svg>
