<svg width="49" height="48" viewBox="0 0 49 48" fill="none" xmlns="http://www.w3.org/2000/svg">
<path d="M39.334 7L36.334 4L33.334 7L30.334 4L27.334 7L24.334 4L21.334 7L18.334 4L15.334 7L12.334 4V32H6.33398V38C6.33398 41.32 9.01398 44 12.334 44H36.334C39.654 44 42.334 41.32 42.334 38V4L39.334 7ZM30.334 40H12.334C11.234 40 10.334 39.1 10.334 38V36H30.334V40ZM38.334 38C38.334 39.1 37.434 40 36.334 40C35.234 40 34.334 39.1 34.334 38V32H16.334V10H38.334V38Z" fill="#0A1748"/>
<path d="M18.334 14H30.334V18H18.334V14ZM32.334 14H36.334V18H32.334V14ZM18.334 20H30.334V24H18.334V20ZM32.334 20H36.334V24H32.334V20Z" fill="#0A1748"/>
</svg>
