<svg width="49" height="48" viewBox="0 0 49 48" fill="none" xmlns="http://www.w3.org/2000/svg">
<g id="ic:outline-card-giftcard">
<path id="Vector" d="M40.5 12.0001H36.14C36.36 11.3801 36.5 10.7001 36.5 10.0001C36.5022 8.70972 36.0877 7.45315 35.3183 6.41726C34.549 5.38138 33.4657 4.62153 32.2298 4.25075C30.9939 3.87997 29.6713 3.91807 28.4587 4.35938C27.2462 4.80068 26.2085 5.62162 25.5 6.70007L24.5 8.04007L23.5 6.68007C22.42 5.08007 20.6 4.00008 18.5 4.00008C15.18 4.00008 12.5 6.68007 12.5 10.0001C12.5 10.7001 12.64 11.3801 12.86 12.0001H8.5C6.28 12.0001 4.52 13.7801 4.52 16.0001L4.5 38.0001C4.5 40.2201 6.28 42.0001 8.5 42.0001H40.5C42.72 42.0001 44.5 40.2201 44.5 38.0001V16.0001C44.5 13.7801 42.72 12.0001 40.5 12.0001ZM30.5 8.00007C31.6 8.00007 32.5 8.90007 32.5 10.0001C32.5 11.1001 31.6 12.0001 30.5 12.0001C29.4 12.0001 28.5 11.1001 28.5 10.0001C28.5 8.90007 29.4 8.00007 30.5 8.00007ZM18.5 8.00007C19.6 8.00007 20.5 8.90007 20.5 10.0001C20.5 11.1001 19.6 12.0001 18.5 12.0001C17.4 12.0001 16.5 11.1001 16.5 10.0001C16.5 8.90007 17.4 8.00007 18.5 8.00007ZM40.5 38.0001H8.5V34.0001H40.5V38.0001ZM40.5 28.0001H8.5V16.0001H18.66L14.5 21.6601L17.74 24.0001L24.5 14.8001L31.26 24.0001L34.5 21.6601L30.34 16.0001H40.5V28.0001Z" fill="#0A1748"/>
</g>
</svg>
