<svg width="49" height="48" viewBox="0 0 49 48" fill="none" xmlns="http://www.w3.org/2000/svg">
<path d="M24.667 2L6.66699 10V22C6.66699 33.1 14.347 43.48 24.667 46C34.987 43.48 42.667 33.1 42.667 22V10L24.667 2ZM24.667 23.98H38.667C37.607 32.22 32.107 39.56 24.667 41.86V24H10.667V12.6L24.667 6.38V23.98Z" fill="#0A1748"/>
<path d="M14.667 6H8.66699V12H4.66699V2H14.667V6ZM44.667 12V2H34.667V6H40.667V12H44.667ZM14.667 42H8.66699V36H4.66699V46H14.667V42ZM40.667 36V42H34.667V46H44.667V36H40.667ZM34.667 12H14.667V36H34.667V12ZM38.667 36C38.667 38.2 36.867 40 34.667 40H14.667C12.467 40 10.667 38.2 10.667 36V12C10.667 9.8 12.467 8 14.667 8H34.667C36.867 8 38.667 9.8 38.667 12V36ZM30.667 16H18.667V20H30.667V16ZM30.667 22H18.667V26H30.667V22ZM30.667 28H18.667V32H30.667V28Z" fill="#0A1748"/>
</svg>
