<svg width="33" height="32" viewBox="0 0 33 32" fill="none" xmlns="http://www.w3.org/2000/svg">
<path d="M24.5003 16.293V11.9997L17.8337 8.66634V6.66634H20.5003V3.99967H17.8337V1.33301H15.167V3.99967H12.5003V6.66634H15.167V8.66634L8.50033 11.9997V16.293L3.16699 18.6663V29.333H15.167V23.9997C15.167 23.2663 15.767 22.6663 16.5003 22.6663C17.2337 22.6663 17.8337 23.2663 17.8337 23.9997V29.333H29.8337V18.6663L24.5003 16.293ZM27.167 26.6663H20.5003V23.9463C20.5003 21.693 18.7003 19.8663 16.5003 19.8663C14.3003 19.8663 12.5003 21.693 12.5003 23.9463V26.6663H5.83366V20.2797L11.167 17.8663V13.3997L16.5003 10.6663L21.8337 13.3863V17.853L27.167 20.2663V26.6663Z" fill="#8DC89A"/>
<path d="M16.5 18C17.6046 18 18.5 17.1046 18.5 16C18.5 14.8954 17.6046 14 16.5 14C15.3954 14 14.5 14.8954 14.5 16C14.5 17.1046 15.3954 18 16.5 18Z" fill="#8DC89A"/>
</svg>
