<svg width="33" height="32" viewBox="0 0 33 32" fill="none" xmlns="http://www.w3.org/2000/svg">
<path d="M22.5003 4C20.1803 4 17.9537 5.08 16.5003 6.78667C15.047 5.08 12.8203 4 10.5003 4C6.39366 4 3.16699 7.22667 3.16699 11.3333C3.16699 16.3733 7.70033 20.48 14.567 26.72L16.5003 28.4667L18.4337 26.7067C25.3003 20.48 29.8337 16.3733 29.8337 11.3333C29.8337 7.22667 26.607 4 22.5003 4ZM16.6337 24.7333L16.5003 24.8667L16.367 24.7333C10.0203 18.9867 5.83366 15.1867 5.83366 11.3333C5.83366 8.66667 7.83366 6.66667 10.5003 6.66667C12.5537 6.66667 14.5537 7.98667 15.2603 9.81333H17.7537C18.447 7.98667 20.447 6.66667 22.5003 6.66667C25.167 6.66667 27.167 8.66667 27.167 11.3333C27.167 15.1867 22.9803 18.9867 16.6337 24.7333Z" fill="#FE518B"/>
</svg>
