<svg width="35" height="35" viewBox="0 0 35 35" fill="none" xmlns="http://www.w3.org/2000/svg">
<g clip-path="url(#clip0_4711_2501)">
<path d="M17.5012 0.700012C8.22267 0.700012 0.701172 8.22151 0.701172 17.5C0.701172 26.7785 8.22267 34.3 17.5012 34.3C26.7797 34.3 34.3012 26.7785 34.3012 17.5C34.3012 8.22151 26.7797 0.700012 17.5012 0.700012ZM24.3349 14.462C24.3408 14.6055 24.3437 14.7478 24.3437 14.889C24.3437 19.264 21.0169 24.3058 14.9304 24.3058C13.132 24.3083 11.3711 23.7918 9.85892 22.8183C10.1168 22.8486 10.3798 22.8632 10.6482 22.862C12.1987 22.862 13.6249 22.3353 14.7572 21.4463C14.0672 21.4327 13.3986 21.2042 12.8446 20.7927C12.2906 20.3811 11.8789 19.807 11.6667 19.1503C12.1622 19.2445 12.6727 19.2247 13.1594 19.0925C12.4102 18.9417 11.7363 18.5361 11.2524 17.9446C10.7684 17.3531 10.5042 16.6123 10.5047 15.848V15.8078C10.9509 16.0545 11.4619 16.205 12.0044 16.2225C11.3023 15.7551 10.8053 15.0372 10.615 14.2155C10.4247 13.3938 10.5555 12.5305 10.9807 11.802C11.8121 12.8237 12.8487 13.6595 14.0235 14.2555C15.1982 14.8514 16.4849 15.1942 17.8004 15.2618C17.6332 14.5518 17.7052 13.8065 18.0052 13.1416C18.3052 12.4768 18.8165 11.9297 19.4595 11.5855C20.1026 11.2412 20.8413 11.119 21.561 11.2379C22.2806 11.3568 22.9408 11.7102 23.4389 12.243C24.1794 12.0964 24.8896 11.8248 25.5389 11.4398C25.2921 12.2065 24.7754 12.8576 24.0847 13.272C24.7406 13.193 25.3812 13.0166 25.9852 12.7488C25.5425 13.4144 24.9835 13.9948 24.3349 14.462Z" fill="#0A1748"/>
</g>
<defs>
<clipPath id="clip0_4711_2501">
<rect width="35" height="35" fill="white"/>
</clipPath>
</defs>
</svg>
