<svg width="16" height="16" viewBox="0 0 16 16" fill="none" xmlns="http://www.w3.org/2000/svg">
<g id="entypo-social:twitter-with-circle" clip-path="url(#clip0_4570_5652)">
<path id="Vector" d="M8.00031 0.320007C3.75871 0.320007 0.320312 3.75841 0.320312 8.00001C0.320312 12.2416 3.75871 15.68 8.00031 15.68C12.2419 15.68 15.6803 12.2416 15.6803 8.00001C15.6803 3.75841 12.2419 0.320007 8.00031 0.320007ZM11.1243 6.61121C11.127 6.67681 11.1283 6.74187 11.1283 6.80641C11.1283 8.80641 9.60751 11.1112 6.82511 11.1112C6.00298 11.1123 5.19798 10.8762 4.50671 10.4312C4.62458 10.4451 4.74485 10.4517 4.86751 10.4512C5.57631 10.4512 6.22831 10.2104 6.74591 9.80401C6.43049 9.79781 6.12485 9.69337 5.8716 9.50522C5.61835 9.31708 5.43011 9.05461 5.33311 8.75441C5.55964 8.79748 5.79299 8.78845 6.01551 8.72801C5.67301 8.65906 5.36496 8.47363 5.14372 8.20324C4.92247 7.93284 4.8017 7.59418 4.80191 7.24481V7.22641C5.00591 7.33921 5.23951 7.40801 5.48751 7.41601C5.16655 7.20235 4.93934 6.87414 4.85235 6.49851C4.76536 6.12288 4.82515 5.72821 5.01951 5.39521C5.39961 5.86226 5.87349 6.24435 6.4105 6.51679C6.94752 6.78922 7.53573 6.94594 8.13711 6.97681C8.06065 6.65225 8.09356 6.31153 8.23072 6.00761C8.36788 5.70369 8.60161 5.4536 8.89557 5.29622C9.18953 5.13884 9.52725 5.08299 9.85623 5.13734C10.1852 5.1917 10.487 5.35323 10.7147 5.59681C11.0532 5.52978 11.3779 5.40561 11.6747 5.22961C11.5619 5.58011 11.3257 5.87775 11.0099 6.06721C11.3098 6.03108 11.6026 5.95046 11.8787 5.82801C11.6764 6.13229 11.4208 6.3976 11.1243 6.61121Z" fill="white"/>
</g>
<defs>
<clipPath id="clip0_4570_5652">
<rect width="16" height="16" fill="white"/>
</clipPath>
</defs>
</svg>
