<svg width="48" height="48" viewBox="0 0 48 48" fill="none" xmlns="http://www.w3.org/2000/svg">
<path d="M22 16V26L30.5 31.04L32.04 28.48L25 24.3V16H22ZM42 20V6.00003L36.72 11.28C35.0541 9.60276 33.0721 8.27248 30.8888 7.36618C28.7054 6.45988 26.364 5.99554 24 6.00003C20.4399 6.00003 16.9598 7.05571 13.9997 9.03358C11.0397 11.0114 8.73255 13.8227 7.37018 17.1117C6.0078 20.4008 5.65134 24.02 6.34587 27.5117C7.04041 31.0033 8.75474 34.2106 11.2721 36.728C13.7894 39.2453 16.9967 40.9596 20.4884 41.6542C23.98 42.3487 27.5992 41.9922 30.8883 40.6299C34.1774 39.2675 36.9886 36.9604 38.9665 34.0003C40.9443 31.0402 42 27.5601 42 24H38C38 31.72 31.72 38 24 38C16.28 38 10 31.72 10 24C10 16.28 16.28 10 24 10C27.86 10 31.36 11.58 33.9 14.1L28 20H42Z" fill="#E9C21B"/>
</svg>
