<svg width="48" height="48" viewBox="0 0 48 48" fill="none" xmlns="http://www.w3.org/2000/svg">
<path d="M24 13C27.6775 12.9878 31.2837 14.0136 34.4042 15.9595C37.5247 17.9053 40.0328 20.6923 41.64 24C38.34 30.74 31.6 35 24 35C16.4 35 9.66 30.74 6.36 24C7.96724 20.6923 10.4753 17.9053 13.5958 15.9595C16.7163 14.0136 20.3225 12.9878 24 13ZM24 9C14 9 5.46 15.22 2 24C5.46 32.78 14 39 24 39C34 39 42.54 32.78 46 24C42.54 15.22 34 9 24 9ZM24 19C25.3261 19 26.5979 19.5268 27.5355 20.4645C28.4732 21.4021 29 22.6739 29 24C29 25.3261 28.4732 26.5979 27.5355 27.5355C26.5979 28.4732 25.3261 29 24 29C22.6739 29 21.4021 28.4732 20.4645 27.5355C19.5268 26.5979 19 25.3261 19 24C19 22.6739 19.5268 21.4021 20.4645 20.4645C21.4021 19.5268 22.6739 19 24 19ZM24 15C19.04 15 15 19.04 15 24C15 28.96 19.04 33 24 33C28.96 33 33 28.96 33 24C33 19.04 28.96 15 24 15Z" fill="#E9C21B"/>
</svg>
