<svg width="24" height="25" viewBox="0 0 24 25" fill="none" xmlns="http://www.w3.org/2000/svg">
<g clip-path="url(#clip0_4735_7358)">
<path d="M12.0005 0.980469C5.63807 0.980469 0.480469 6.13807 0.480469 12.5005C0.480469 18.8629 5.63807 24.0205 12.0005 24.0205C18.3629 24.0205 23.5205 18.8629 23.5205 12.5005C23.5205 6.13807 18.3629 0.980469 12.0005 0.980469ZM14.7293 8.94127H12.9977C12.7925 8.94127 12.5645 9.21127 12.5645 9.57007V10.8205H14.7305L14.4029 12.6037H12.5645V17.9569H10.5209V12.6037H8.66687V10.8205H10.5209V9.77167C10.5209 8.26687 11.5649 7.04407 12.9977 7.04407H14.7293V8.94127Z" fill="#E9C21B"/>
</g>
<defs>
<clipPath id="clip0_4735_7358">
<rect width="24" height="24" fill="white" transform="translate(0 0.5)"/>
</clipPath>
</defs>
</svg>
