<svg width="24" height="24" viewBox="0 0 24 24" fill="none" xmlns="http://www.w3.org/2000/svg">
<g clip-path="url(#clip0_5409_2284)">
<path d="M12.0005 0.480469C5.63807 0.480469 0.480469 5.63807 0.480469 12.0005C0.480469 18.3629 5.63807 23.5205 12.0005 23.5205C18.3629 23.5205 23.5205 18.3629 23.5205 12.0005C23.5205 5.63807 18.3629 0.480469 12.0005 0.480469ZM16.6865 9.91727C16.6905 10.0157 16.6925 10.1133 16.6925 10.2101C16.6925 13.2101 14.4113 16.6673 10.2377 16.6673C9.00447 16.669 7.79697 16.3148 6.76007 15.6473C6.93687 15.6681 7.11727 15.6781 7.30127 15.6773C8.36447 15.6773 9.34247 15.3161 10.1189 14.7065C9.64573 14.6972 9.18727 14.5405 8.8074 14.2583C8.42753 13.9761 8.14517 13.5824 7.99967 13.1321C8.33946 13.1967 8.68949 13.1831 9.02327 13.0925C8.50952 12.989 8.04744 12.7109 7.71558 12.3053C7.38371 11.8997 7.20254 11.3917 7.20287 10.8677V10.8401C7.50887 11.0093 7.85927 11.1125 8.23127 11.1245C7.74983 10.804 7.40901 10.3117 7.27852 9.74823C7.14803 9.18478 7.23773 8.59277 7.52927 8.09327C8.09942 8.79384 8.81023 9.36698 9.61576 9.77564C10.4213 10.1843 11.3036 10.4194 12.2057 10.4657C12.091 9.97884 12.1403 9.46776 12.3461 9.01188C12.5518 8.55599 12.9024 8.18086 13.3434 7.94479C13.7843 7.70871 14.2909 7.62494 14.7843 7.70648C15.2778 7.78801 15.7305 8.0303 16.0721 8.39567C16.5799 8.29513 17.0668 8.10887 17.5121 7.84487C17.3428 8.37063 16.9885 8.81708 16.5149 9.10127C16.9647 9.04707 17.4039 8.92615 17.8181 8.74247C17.5145 9.1989 17.1312 9.59686 16.6865 9.91727Z" fill="#E9C21B"/>
</g>
<defs>
<clipPath id="clip0_5409_2284">
<rect width="24" height="24" fill="white"/>
</clipPath>
</defs>
</svg>
