<svg width="35" height="35" viewBox="0 0 35 35" fill="none" xmlns="http://www.w3.org/2000/svg">
<g clip-path="url(#clip0_4711_2503)">
<path d="M20.3064 17.2078L16.3759 15.3738C16.0329 15.2145 15.7512 15.393 15.7512 15.7728V19.2273C15.7512 19.607 16.0329 19.7855 16.3759 19.6263L20.3047 17.7923C20.6494 17.6313 20.6494 17.3688 20.3064 17.2078ZM17.5012 0.700012C8.22267 0.700012 0.701172 8.22151 0.701172 17.5C0.701172 26.7785 8.22267 34.3 17.5012 34.3C26.7797 34.3 34.3012 26.7785 34.3012 17.5C34.3012 8.22151 26.7797 0.700012 17.5012 0.700012ZM17.5012 24.325C8.90167 24.325 8.75117 23.5498 8.75117 17.5C8.75117 11.4503 8.90167 10.675 17.5012 10.675C26.1007 10.675 26.2512 11.4503 26.2512 17.5C26.2512 23.5498 26.1007 24.325 17.5012 24.325Z" fill="#0A1748"/>
</g>
<defs>
<clipPath id="clip0_4711_2503">
<rect width="35" height="35" fill="white"/>
</clipPath>
</defs>
</svg>
